%TF.GenerationSoftware,KiCad,Pcbnew,8.0.3*%
%TF.CreationDate,2024-06-12T13:30:28-03:00*%
%TF.ProjectId,keyboard_pcb,6b657962-6f61-4726-945f-7063622e6b69,rev1.0*%
%TF.SameCoordinates,Original*%
%TF.FileFunction,Soldermask,Bot*%
%TF.FilePolarity,Negative*%
%FSLAX46Y46*%
G04 Gerber Fmt 4.6, Leading zero omitted, Abs format (unit mm)*
G04 Created by KiCad (PCBNEW 8.0.3) date 2024-06-12 13:30:28*
%MOMM*%
%LPD*%
G01*
G04 APERTURE LIST*
G04 Aperture macros list*
%AMRoundRect*
0 Rectangle with rounded corners*
0 $1 Rounding radius*
0 $2 $3 $4 $5 $6 $7 $8 $9 X,Y pos of 4 corners*
0 Add a 4 corners polygon primitive as box body*
4,1,4,$2,$3,$4,$5,$6,$7,$8,$9,$2,$3,0*
0 Add four circle primitives for the rounded corners*
1,1,$1+$1,$2,$3*
1,1,$1+$1,$4,$5*
1,1,$1+$1,$6,$7*
1,1,$1+$1,$8,$9*
0 Add four rect primitives between the rounded corners*
20,1,$1+$1,$2,$3,$4,$5,0*
20,1,$1+$1,$4,$5,$6,$7,0*
20,1,$1+$1,$6,$7,$8,$9,0*
20,1,$1+$1,$8,$9,$2,$3,0*%
%AMRotRect*
0 Rectangle, with rotation*
0 The origin of the aperture is its center*
0 $1 length*
0 $2 width*
0 $3 Rotation angle, in degrees counterclockwise*
0 Add horizontal line*
21,1,$1,$2,0,0,$3*%
G04 Aperture macros list end*
%ADD10RoundRect,0.250000X-0.400000X-0.625000X0.400000X-0.625000X0.400000X0.625000X-0.400000X0.625000X0*%
%ADD11RoundRect,0.250000X0.400000X0.625000X-0.400000X0.625000X-0.400000X-0.625000X0.400000X-0.625000X0*%
%ADD12C,3.000000*%
%ADD13C,3.987800*%
%ADD14RotRect,2.550000X2.500000X170.000000*%
%ADD15R,2.550000X2.500000*%
%ADD16RotRect,2.550000X2.500000X155.000000*%
%ADD17O,2.000000X1.600000*%
%ADD18RotRect,2.550000X2.500000X185.000000*%
%ADD19O,1.700000X1.700000*%
%ADD20R,1.700000X1.700000*%
G04 APERTURE END LIST*
D10*
%TO.C,R1*%
X160440400Y-136241200D03*
X163540400Y-136241200D03*
%TD*%
D11*
%TO.C,R2*%
X163540400Y-139949600D03*
X160440400Y-139949600D03*
%TD*%
D12*
%TO.C,K31*%
X128191648Y-194228109D03*
D13*
X131575192Y-189666352D03*
D12*
X134886243Y-192829363D03*
D14*
X124498619Y-193576928D03*
X138579272Y-193480544D03*
%TD*%
D12*
%TO.C,K00*%
X46600000Y-140760000D03*
D13*
X44060000Y-145840000D03*
D12*
X40250000Y-143300000D03*
D15*
X50350000Y-140760000D03*
X36500000Y-143300000D03*
%TD*%
D12*
%TO.C,K13*%
X94020000Y-150920000D03*
D13*
X96560000Y-145840000D03*
D12*
X100370000Y-148380000D03*
D15*
X90270000Y-150920000D03*
X104120000Y-148380000D03*
%TD*%
D12*
%TO.C,K20*%
X46600000Y-174760000D03*
D13*
X44060000Y-179840000D03*
D12*
X40250000Y-177300000D03*
D15*
X50350000Y-174760000D03*
X36500000Y-177300000D03*
%TD*%
D12*
%TO.C,K05*%
X130020000Y-140920000D03*
D13*
X132560000Y-135840000D03*
D12*
X136370000Y-138380000D03*
D15*
X126270000Y-140920000D03*
X140120000Y-138380000D03*
%TD*%
D12*
%TO.C,K11*%
X58520000Y-167920000D03*
D13*
X61060000Y-162840000D03*
D12*
X64870000Y-165380000D03*
D15*
X54770000Y-167920000D03*
X68620000Y-165380000D03*
%TD*%
D12*
%TO.C,K32*%
X148204770Y-199947975D03*
D13*
X152653692Y-196417382D03*
D12*
X155033274Y-200329579D03*
D16*
X144806115Y-198363156D03*
X158431929Y-201914398D03*
%TD*%
D12*
%TO.C,K15*%
X130020000Y-157920000D03*
D13*
X132560000Y-152840000D03*
D12*
X136370000Y-155380000D03*
D15*
X126270000Y-157920000D03*
X140120000Y-155380000D03*
%TD*%
D17*
%TO.C,J1*%
X161110000Y-182540000D03*
X162210000Y-187140000D03*
X166210000Y-187140000D03*
X169210000Y-187140000D03*
%TD*%
D12*
%TO.C,K22*%
X76020000Y-172920000D03*
D13*
X78560000Y-167840000D03*
D12*
X82370000Y-170380000D03*
D15*
X72270000Y-172920000D03*
X86120000Y-170380000D03*
%TD*%
D12*
%TO.C,K03*%
X94020000Y-133920000D03*
D13*
X96560000Y-128840000D03*
D12*
X100370000Y-131380000D03*
D15*
X90270000Y-133920000D03*
X104120000Y-131380000D03*
%TD*%
D12*
%TO.C,K23*%
X94020000Y-167920000D03*
D13*
X96560000Y-162840000D03*
D12*
X100370000Y-165380000D03*
D15*
X90270000Y-167920000D03*
X104120000Y-165380000D03*
%TD*%
D12*
%TO.C,K14*%
X112020000Y-155920000D03*
D13*
X114560000Y-150840000D03*
D12*
X118370000Y-153380000D03*
D15*
X108270000Y-155920000D03*
X122120000Y-153380000D03*
%TD*%
D12*
%TO.C,K01*%
X58520000Y-150920000D03*
D13*
X61060000Y-145840000D03*
D12*
X64870000Y-148380000D03*
D15*
X54770000Y-150920000D03*
X68620000Y-148380000D03*
%TD*%
D12*
%TO.C,K30*%
X107476222Y-194209200D03*
D13*
X109563805Y-188927156D03*
D12*
X113580683Y-191125427D03*
D18*
X103740492Y-194536034D03*
X117316413Y-190798593D03*
%TD*%
D12*
%TO.C,K12*%
X76020000Y-155920000D03*
D13*
X78560000Y-150840000D03*
D12*
X82370000Y-153380000D03*
D15*
X72270000Y-155920000D03*
X86120000Y-153380000D03*
%TD*%
D12*
%TO.C,K04*%
X112020000Y-138920000D03*
D13*
X114560000Y-133840000D03*
D12*
X118370000Y-136380000D03*
D15*
X108270000Y-138920000D03*
X122120000Y-136380000D03*
%TD*%
D19*
%TO.C,U2*%
X151373200Y-128418000D03*
X151373200Y-130958000D03*
D20*
X151373200Y-133498000D03*
D19*
X151373200Y-136038000D03*
X151373200Y-138578000D03*
X151373200Y-141118000D03*
X151373200Y-143658000D03*
D20*
X151373200Y-146198000D03*
D19*
X151373200Y-148738000D03*
X151373200Y-151278000D03*
X151373200Y-153818000D03*
X151373200Y-156358000D03*
D20*
X151373200Y-158898000D03*
D19*
X151373200Y-161438000D03*
X151373200Y-163978000D03*
X151373200Y-166518000D03*
X151373200Y-169058000D03*
D20*
X151373200Y-171598000D03*
D19*
X151373200Y-174138000D03*
X151373200Y-176678000D03*
X169153200Y-176678000D03*
X169153200Y-174138000D03*
D20*
X169153200Y-171598000D03*
D19*
X169153200Y-169058000D03*
X169153200Y-166518000D03*
X169153200Y-163978000D03*
X169153200Y-161438000D03*
D20*
X169153200Y-158898000D03*
D19*
X169153200Y-156358000D03*
X169153200Y-153818000D03*
X169153200Y-151278000D03*
X169153200Y-148738000D03*
D20*
X169153200Y-146198000D03*
D19*
X169153200Y-143658000D03*
X169153200Y-141118000D03*
X169153200Y-138578000D03*
X169153200Y-136038000D03*
D20*
X169153200Y-133498000D03*
D19*
X169153200Y-130958000D03*
X169153200Y-128418000D03*
%TD*%
D12*
%TO.C,K10*%
X46600000Y-157760000D03*
D13*
X44060000Y-162840000D03*
D12*
X40250000Y-160300000D03*
D15*
X50350000Y-157760000D03*
X36500000Y-160300000D03*
%TD*%
D12*
%TO.C,K02*%
X76020000Y-138920000D03*
D13*
X78560000Y-133840000D03*
D12*
X82370000Y-136380000D03*
D15*
X72270000Y-138920000D03*
X86120000Y-136380000D03*
%TD*%
D12*
%TO.C,K21*%
X58520000Y-184920000D03*
D13*
X61060000Y-179840000D03*
D12*
X64870000Y-182380000D03*
D15*
X54770000Y-184920000D03*
X68620000Y-182380000D03*
%TD*%
D12*
%TO.C,K24*%
X112020000Y-172920000D03*
D13*
X114560000Y-167840000D03*
D12*
X118370000Y-170380000D03*
D15*
X108270000Y-172920000D03*
X122120000Y-170380000D03*
%TD*%
D12*
%TO.C,K25*%
X130020000Y-174920000D03*
D13*
X132560000Y-169840000D03*
D12*
X136370000Y-172380000D03*
D15*
X126270000Y-174920000D03*
X140120000Y-172380000D03*
%TD*%
D12*
%TO.C,K25*%
X130460000Y-76580000D03*
D13*
X133000000Y-71500000D03*
D12*
X136810000Y-74040000D03*
D15*
X126710000Y-76580000D03*
X140560000Y-74040000D03*
%TD*%
D12*
%TO.C,K24*%
X112460000Y-74580000D03*
D13*
X115000000Y-69500000D03*
D12*
X118810000Y-72040000D03*
D15*
X108710000Y-74580000D03*
X122560000Y-72040000D03*
%TD*%
D12*
%TO.C,K21*%
X58960000Y-86580000D03*
D13*
X61500000Y-81500000D03*
D12*
X65310000Y-84040000D03*
D15*
X55210000Y-86580000D03*
X69060000Y-84040000D03*
%TD*%
D12*
%TO.C,K02*%
X76460000Y-40580000D03*
D13*
X79000000Y-35500000D03*
D12*
X82810000Y-38040000D03*
D15*
X72710000Y-40580000D03*
X86560000Y-38040000D03*
%TD*%
D12*
%TO.C,K10*%
X47040000Y-59420000D03*
D13*
X44500000Y-64500000D03*
D12*
X40690000Y-61960000D03*
D15*
X50790000Y-59420000D03*
X36940000Y-61960000D03*
%TD*%
D19*
%TO.C,U2*%
X151813200Y-30078000D03*
X151813200Y-32618000D03*
D20*
X151813200Y-35158000D03*
D19*
X151813200Y-37698000D03*
X151813200Y-40238000D03*
X151813200Y-42778000D03*
X151813200Y-45318000D03*
D20*
X151813200Y-47858000D03*
D19*
X151813200Y-50398000D03*
X151813200Y-52938000D03*
X151813200Y-55478000D03*
X151813200Y-58018000D03*
D20*
X151813200Y-60558000D03*
D19*
X151813200Y-63098000D03*
X151813200Y-65638000D03*
X151813200Y-68178000D03*
X151813200Y-70718000D03*
D20*
X151813200Y-73258000D03*
D19*
X151813200Y-75798000D03*
X151813200Y-78338000D03*
X169593200Y-78338000D03*
X169593200Y-75798000D03*
D20*
X169593200Y-73258000D03*
D19*
X169593200Y-70718000D03*
X169593200Y-68178000D03*
X169593200Y-65638000D03*
X169593200Y-63098000D03*
D20*
X169593200Y-60558000D03*
D19*
X169593200Y-58018000D03*
X169593200Y-55478000D03*
X169593200Y-52938000D03*
X169593200Y-50398000D03*
D20*
X169593200Y-47858000D03*
D19*
X169593200Y-45318000D03*
X169593200Y-42778000D03*
X169593200Y-40238000D03*
X169593200Y-37698000D03*
D20*
X169593200Y-35158000D03*
D19*
X169593200Y-32618000D03*
X169593200Y-30078000D03*
%TD*%
D12*
%TO.C,K04*%
X112460000Y-40580000D03*
D13*
X115000000Y-35500000D03*
D12*
X118810000Y-38040000D03*
D15*
X108710000Y-40580000D03*
X122560000Y-38040000D03*
%TD*%
D12*
%TO.C,K12*%
X76460000Y-57580000D03*
D13*
X79000000Y-52500000D03*
D12*
X82810000Y-55040000D03*
D15*
X72710000Y-57580000D03*
X86560000Y-55040000D03*
%TD*%
D12*
%TO.C,K30*%
X107916222Y-95869200D03*
D13*
X110003805Y-90587156D03*
D12*
X114020683Y-92785427D03*
D18*
X104180492Y-96196034D03*
X117756413Y-92458593D03*
%TD*%
D12*
%TO.C,K01*%
X58960000Y-52580000D03*
D13*
X61500000Y-47500000D03*
D12*
X65310000Y-50040000D03*
D15*
X55210000Y-52580000D03*
X69060000Y-50040000D03*
%TD*%
D12*
%TO.C,K14*%
X112460000Y-57580000D03*
D13*
X115000000Y-52500000D03*
D12*
X118810000Y-55040000D03*
D15*
X108710000Y-57580000D03*
X122560000Y-55040000D03*
%TD*%
D12*
%TO.C,K23*%
X94460000Y-69580000D03*
D13*
X97000000Y-64500000D03*
D12*
X100810000Y-67040000D03*
D15*
X90710000Y-69580000D03*
X104560000Y-67040000D03*
%TD*%
D12*
%TO.C,K03*%
X94460000Y-35580000D03*
D13*
X97000000Y-30500000D03*
D12*
X100810000Y-33040000D03*
D15*
X90710000Y-35580000D03*
X104560000Y-33040000D03*
%TD*%
D12*
%TO.C,K22*%
X76460000Y-74580000D03*
D13*
X79000000Y-69500000D03*
D12*
X82810000Y-72040000D03*
D15*
X72710000Y-74580000D03*
X86560000Y-72040000D03*
%TD*%
D17*
%TO.C,J1*%
X161550000Y-84200000D03*
X162650000Y-88800000D03*
X166650000Y-88800000D03*
X169650000Y-88800000D03*
%TD*%
D12*
%TO.C,K15*%
X130460000Y-59580000D03*
D13*
X133000000Y-54500000D03*
D12*
X136810000Y-57040000D03*
D15*
X126710000Y-59580000D03*
X140560000Y-57040000D03*
%TD*%
D12*
%TO.C,K32*%
X148644770Y-101607975D03*
D13*
X153093692Y-98077382D03*
D12*
X155473274Y-101989579D03*
D16*
X145246115Y-100023156D03*
X158871929Y-103574398D03*
%TD*%
D12*
%TO.C,K11*%
X58960000Y-69580000D03*
D13*
X61500000Y-64500000D03*
D12*
X65310000Y-67040000D03*
D15*
X55210000Y-69580000D03*
X69060000Y-67040000D03*
%TD*%
D12*
%TO.C,K05*%
X130460000Y-42580000D03*
D13*
X133000000Y-37500000D03*
D12*
X136810000Y-40040000D03*
D15*
X126710000Y-42580000D03*
X140560000Y-40040000D03*
%TD*%
D12*
%TO.C,K20*%
X47040000Y-76420000D03*
D13*
X44500000Y-81500000D03*
D12*
X40690000Y-78960000D03*
D15*
X50790000Y-76420000D03*
X36940000Y-78960000D03*
%TD*%
D12*
%TO.C,K13*%
X94460000Y-52580000D03*
D13*
X97000000Y-47500000D03*
D12*
X100810000Y-50040000D03*
D15*
X90710000Y-52580000D03*
X104560000Y-50040000D03*
%TD*%
D12*
%TO.C,K00*%
X47040000Y-42420000D03*
D13*
X44500000Y-47500000D03*
D12*
X40690000Y-44960000D03*
D15*
X50790000Y-42420000D03*
X36940000Y-44960000D03*
%TD*%
D12*
%TO.C,K31*%
X128631648Y-95888109D03*
D13*
X132015192Y-91326352D03*
D12*
X135326243Y-94489363D03*
D14*
X124938619Y-95236928D03*
X139019272Y-95140544D03*
%TD*%
D11*
%TO.C,R2*%
X163980400Y-41609600D03*
X160880400Y-41609600D03*
%TD*%
D10*
%TO.C,R1*%
X160880400Y-37901200D03*
X163980400Y-37901200D03*
%TD*%
M02*
