%TF.GenerationSoftware,KiCad,Pcbnew,8.0.3*%
%TF.CreationDate,2024-06-14T18:36:55-03:00*%
%TF.ProjectId,keyboard_pcb,6b657962-6f61-4726-945f-7063622e6b69,rev1.0*%
%TF.SameCoordinates,Original*%
%TF.FileFunction,Legend,Top*%
%TF.FilePolarity,Positive*%
%FSLAX46Y46*%
G04 Gerber Fmt 4.6, Leading zero omitted, Abs format (unit mm)*
G04 Created by KiCad (PCBNEW 8.0.3) date 2024-06-14 18:36:55*
%MOMM*%
%LPD*%
G01*
G04 APERTURE LIST*
%ADD10C,0.150000*%
%ADD11C,0.120000*%
G04 APERTURE END LIST*
D10*
X42786930Y-156317130D02*
X42710740Y-156279035D01*
X42710740Y-156279035D02*
X42596454Y-156279035D01*
X42596454Y-156279035D02*
X42482168Y-156317130D01*
X42482168Y-156317130D02*
X42405978Y-156393320D01*
X42405978Y-156393320D02*
X42367883Y-156469511D01*
X42367883Y-156469511D02*
X42329787Y-156621892D01*
X42329787Y-156621892D02*
X42329787Y-156736178D01*
X42329787Y-156736178D02*
X42367883Y-156888559D01*
X42367883Y-156888559D02*
X42405978Y-156964749D01*
X42405978Y-156964749D02*
X42482168Y-157040940D01*
X42482168Y-157040940D02*
X42596454Y-157079035D01*
X42596454Y-157079035D02*
X42672645Y-157079035D01*
X42672645Y-157079035D02*
X42786930Y-157040940D01*
X42786930Y-157040940D02*
X42825026Y-157002844D01*
X42825026Y-157002844D02*
X42825026Y-156736178D01*
X42825026Y-156736178D02*
X42672645Y-156736178D01*
X43167883Y-157079035D02*
X43167883Y-156279035D01*
X43167883Y-156279035D02*
X43472645Y-156279035D01*
X43472645Y-156279035D02*
X43548835Y-156317130D01*
X43548835Y-156317130D02*
X43586930Y-156355225D01*
X43586930Y-156355225D02*
X43625026Y-156431416D01*
X43625026Y-156431416D02*
X43625026Y-156545701D01*
X43625026Y-156545701D02*
X43586930Y-156621892D01*
X43586930Y-156621892D02*
X43548835Y-156659987D01*
X43548835Y-156659987D02*
X43472645Y-156698082D01*
X43472645Y-156698082D02*
X43167883Y-156698082D01*
X44120264Y-156279035D02*
X44196454Y-156279035D01*
X44196454Y-156279035D02*
X44272645Y-156317130D01*
X44272645Y-156317130D02*
X44310740Y-156355225D01*
X44310740Y-156355225D02*
X44348835Y-156431416D01*
X44348835Y-156431416D02*
X44386930Y-156583797D01*
X44386930Y-156583797D02*
X44386930Y-156774273D01*
X44386930Y-156774273D02*
X44348835Y-156926654D01*
X44348835Y-156926654D02*
X44310740Y-157002844D01*
X44310740Y-157002844D02*
X44272645Y-157040940D01*
X44272645Y-157040940D02*
X44196454Y-157079035D01*
X44196454Y-157079035D02*
X44120264Y-157079035D01*
X44120264Y-157079035D02*
X44044073Y-157040940D01*
X44044073Y-157040940D02*
X44005978Y-157002844D01*
X44005978Y-157002844D02*
X43967883Y-156926654D01*
X43967883Y-156926654D02*
X43929787Y-156774273D01*
X43929787Y-156774273D02*
X43929787Y-156583797D01*
X43929787Y-156583797D02*
X43967883Y-156431416D01*
X43967883Y-156431416D02*
X44005978Y-156355225D01*
X44005978Y-156355225D02*
X44044073Y-156317130D01*
X44044073Y-156317130D02*
X44120264Y-156279035D01*
X154178571Y-43641890D02*
X154102381Y-43603795D01*
X154102381Y-43603795D02*
X153988095Y-43603795D01*
X153988095Y-43603795D02*
X153873809Y-43641890D01*
X153873809Y-43641890D02*
X153797619Y-43718080D01*
X153797619Y-43718080D02*
X153759524Y-43794271D01*
X153759524Y-43794271D02*
X153721428Y-43946652D01*
X153721428Y-43946652D02*
X153721428Y-44060938D01*
X153721428Y-44060938D02*
X153759524Y-44213319D01*
X153759524Y-44213319D02*
X153797619Y-44289509D01*
X153797619Y-44289509D02*
X153873809Y-44365700D01*
X153873809Y-44365700D02*
X153988095Y-44403795D01*
X153988095Y-44403795D02*
X154064286Y-44403795D01*
X154064286Y-44403795D02*
X154178571Y-44365700D01*
X154178571Y-44365700D02*
X154216667Y-44327604D01*
X154216667Y-44327604D02*
X154216667Y-44060938D01*
X154216667Y-44060938D02*
X154064286Y-44060938D01*
X154559524Y-44403795D02*
X154559524Y-43603795D01*
X154559524Y-43603795D02*
X154864286Y-43603795D01*
X154864286Y-43603795D02*
X154940476Y-43641890D01*
X154940476Y-43641890D02*
X154978571Y-43679985D01*
X154978571Y-43679985D02*
X155016667Y-43756176D01*
X155016667Y-43756176D02*
X155016667Y-43870461D01*
X155016667Y-43870461D02*
X154978571Y-43946652D01*
X154978571Y-43946652D02*
X154940476Y-43984747D01*
X154940476Y-43984747D02*
X154864286Y-44022842D01*
X154864286Y-44022842D02*
X154559524Y-44022842D01*
X155511905Y-43603795D02*
X155588095Y-43603795D01*
X155588095Y-43603795D02*
X155664286Y-43641890D01*
X155664286Y-43641890D02*
X155702381Y-43679985D01*
X155702381Y-43679985D02*
X155740476Y-43756176D01*
X155740476Y-43756176D02*
X155778571Y-43908557D01*
X155778571Y-43908557D02*
X155778571Y-44099033D01*
X155778571Y-44099033D02*
X155740476Y-44251414D01*
X155740476Y-44251414D02*
X155702381Y-44327604D01*
X155702381Y-44327604D02*
X155664286Y-44365700D01*
X155664286Y-44365700D02*
X155588095Y-44403795D01*
X155588095Y-44403795D02*
X155511905Y-44403795D01*
X155511905Y-44403795D02*
X155435714Y-44365700D01*
X155435714Y-44365700D02*
X155397619Y-44327604D01*
X155397619Y-44327604D02*
X155359524Y-44251414D01*
X155359524Y-44251414D02*
X155321428Y-44099033D01*
X155321428Y-44099033D02*
X155321428Y-43908557D01*
X155321428Y-43908557D02*
X155359524Y-43756176D01*
X155359524Y-43756176D02*
X155397619Y-43679985D01*
X155397619Y-43679985D02*
X155435714Y-43641890D01*
X155435714Y-43641890D02*
X155511905Y-43603795D01*
D11*
%TO.C,U2*%
X39061559Y-155383240D02*
X39061559Y-155683240D01*
X39061559Y-155383240D02*
X60061559Y-155383240D01*
X39061559Y-157783240D02*
X39061559Y-158183240D01*
X39061559Y-158050240D02*
X42068559Y-158050240D01*
X39061559Y-160383240D02*
X39061559Y-160783240D01*
X39061559Y-162883240D02*
X39061559Y-163283240D01*
X39061559Y-165483240D02*
X39061559Y-165883240D01*
X39061559Y-167983240D02*
X39061559Y-168383240D01*
X39061559Y-170483240D02*
X39061559Y-170883240D01*
X39061559Y-173083240D02*
X39061559Y-173483240D01*
X39061559Y-175583240D02*
X39061559Y-175983240D01*
X39061559Y-178183240D02*
X39061559Y-178583240D01*
X39061559Y-180683240D02*
X39061559Y-181083240D01*
X39061559Y-183183240D02*
X39061559Y-183583240D01*
X39061559Y-185783240D02*
X39061559Y-186183240D01*
X39061559Y-188283240D02*
X39061559Y-188683240D01*
X39061559Y-190883240D02*
X39061559Y-191283240D01*
X39061559Y-193383240D02*
X39061559Y-193783240D01*
X39061559Y-195983240D02*
X39061559Y-196383240D01*
X39061559Y-198483240D02*
X39061559Y-198883240D01*
X39061559Y-200983240D02*
X39061559Y-201383240D01*
X39061559Y-203583240D02*
X39061559Y-203983240D01*
X42068559Y-158050240D02*
X42068559Y-155383240D01*
X45861559Y-206383240D02*
X39061559Y-206383240D01*
X60061559Y-155383240D02*
X60061559Y-155683240D01*
X60061559Y-157783240D02*
X60061559Y-158183240D01*
X60061559Y-160383240D02*
X60061559Y-160783240D01*
X60061559Y-162883240D02*
X60061559Y-163283240D01*
X60061559Y-165483240D02*
X60061559Y-165883240D01*
X60061559Y-167983240D02*
X60061559Y-168383240D01*
X60061559Y-170483240D02*
X60061559Y-170883240D01*
X60061559Y-173083240D02*
X60061559Y-173483240D01*
X60061559Y-175583240D02*
X60061559Y-175983240D01*
X60061559Y-178183240D02*
X60061559Y-178583240D01*
X60061559Y-180683240D02*
X60061559Y-181083240D01*
X60061559Y-183183240D02*
X60061559Y-183583240D01*
X60061559Y-185783240D02*
X60061559Y-186183240D01*
X60061559Y-188283240D02*
X60061559Y-188683240D01*
X60061559Y-190883240D02*
X60061559Y-191283240D01*
X60061559Y-193383240D02*
X60061559Y-193783240D01*
X60061559Y-195983240D02*
X60061559Y-196383240D01*
X60061559Y-198483240D02*
X60061559Y-198883240D01*
X60061559Y-200983240D02*
X60061559Y-201383240D01*
X60061559Y-203583240D02*
X60061559Y-203983240D01*
X60061559Y-206383240D02*
X53261559Y-206383240D01*
X150453200Y-42708000D02*
X150453200Y-43008000D01*
X150453200Y-42708000D02*
X171453200Y-42708000D01*
X150453200Y-45108000D02*
X150453200Y-45508000D01*
X150453200Y-45375000D02*
X153460200Y-45375000D01*
X150453200Y-47708000D02*
X150453200Y-48108000D01*
X150453200Y-50208000D02*
X150453200Y-50608000D01*
X150453200Y-52808000D02*
X150453200Y-53208000D01*
X150453200Y-55308000D02*
X150453200Y-55708000D01*
X150453200Y-57808000D02*
X150453200Y-58208000D01*
X150453200Y-60408000D02*
X150453200Y-60808000D01*
X150453200Y-62908000D02*
X150453200Y-63308000D01*
X150453200Y-65508000D02*
X150453200Y-65908000D01*
X150453200Y-68008000D02*
X150453200Y-68408000D01*
X150453200Y-70508000D02*
X150453200Y-70908000D01*
X150453200Y-73108000D02*
X150453200Y-73508000D01*
X150453200Y-75608000D02*
X150453200Y-76008000D01*
X150453200Y-78208000D02*
X150453200Y-78608000D01*
X150453200Y-80708000D02*
X150453200Y-81108000D01*
X150453200Y-83308000D02*
X150453200Y-83708000D01*
X150453200Y-85808000D02*
X150453200Y-86208000D01*
X150453200Y-88308000D02*
X150453200Y-88708000D01*
X150453200Y-90908000D02*
X150453200Y-91308000D01*
X153460200Y-45375000D02*
X153460200Y-42708000D01*
X157253200Y-93708000D02*
X150453200Y-93708000D01*
X171453200Y-42708000D02*
X171453200Y-43008000D01*
X171453200Y-45108000D02*
X171453200Y-45508000D01*
X171453200Y-47708000D02*
X171453200Y-48108000D01*
X171453200Y-50208000D02*
X171453200Y-50608000D01*
X171453200Y-52808000D02*
X171453200Y-53208000D01*
X171453200Y-55308000D02*
X171453200Y-55708000D01*
X171453200Y-57808000D02*
X171453200Y-58208000D01*
X171453200Y-60408000D02*
X171453200Y-60808000D01*
X171453200Y-62908000D02*
X171453200Y-63308000D01*
X171453200Y-65508000D02*
X171453200Y-65908000D01*
X171453200Y-68008000D02*
X171453200Y-68408000D01*
X171453200Y-70508000D02*
X171453200Y-70908000D01*
X171453200Y-73108000D02*
X171453200Y-73508000D01*
X171453200Y-75608000D02*
X171453200Y-76008000D01*
X171453200Y-78208000D02*
X171453200Y-78608000D01*
X171453200Y-80708000D02*
X171453200Y-81108000D01*
X171453200Y-83308000D02*
X171453200Y-83708000D01*
X171453200Y-85808000D02*
X171453200Y-86208000D01*
X171453200Y-88308000D02*
X171453200Y-88708000D01*
X171453200Y-90908000D02*
X171453200Y-91308000D01*
X171453200Y-93708000D02*
X164653200Y-93708000D01*
D10*
%TO.C,J1*%
X161000000Y-103550000D02*
X161000000Y-97450000D01*
X173100000Y-97450000D02*
X161000000Y-97450000D01*
X173100000Y-97700000D02*
X175100000Y-97700000D01*
X173100000Y-103300000D02*
X175100000Y-103300000D01*
X173100000Y-103550000D02*
X161000000Y-103550000D01*
X173100000Y-103550000D02*
X173100000Y-97450000D01*
X175100000Y-103300000D02*
X175100000Y-97700000D01*
X35414759Y-210375240D02*
X35414759Y-215975240D01*
X37414759Y-210125240D02*
X37414759Y-216225240D01*
X37414759Y-210125240D02*
X49514759Y-210125240D01*
X37414759Y-210375240D02*
X35414759Y-210375240D01*
X37414759Y-215975240D02*
X35414759Y-215975240D01*
X37414759Y-216225240D02*
X49514759Y-216225240D01*
X49514759Y-210125240D02*
X49514759Y-216225240D01*
%TD*%
M02*
