%TF.GenerationSoftware,KiCad,Pcbnew,8.0.3*%
%TF.CreationDate,2024-06-12T13:30:28-03:00*%
%TF.ProjectId,keyboard_pcb,6b657962-6f61-4726-945f-7063622e6b69,rev1.0*%
%TF.SameCoordinates,Original*%
%TF.FileFunction,Legend,Bot*%
%TF.FilePolarity,Positive*%
%FSLAX46Y46*%
G04 Gerber Fmt 4.6, Leading zero omitted, Abs format (unit mm)*
G04 Created by KiCad (PCBNEW 8.0.3) date 2024-06-12 13:30:28*
%MOMM*%
%LPD*%
G01*
G04 APERTURE LIST*
%ADD10C,0.150000*%
%ADD11C,0.120000*%
G04 APERTURE END LIST*
D10*
X165713066Y-136746819D02*
X166046399Y-136270628D01*
X166284494Y-136746819D02*
X166284494Y-135746819D01*
X166284494Y-135746819D02*
X165903542Y-135746819D01*
X165903542Y-135746819D02*
X165808304Y-135794438D01*
X165808304Y-135794438D02*
X165760685Y-135842057D01*
X165760685Y-135842057D02*
X165713066Y-135937295D01*
X165713066Y-135937295D02*
X165713066Y-136080152D01*
X165713066Y-136080152D02*
X165760685Y-136175390D01*
X165760685Y-136175390D02*
X165808304Y-136223009D01*
X165808304Y-136223009D02*
X165903542Y-136270628D01*
X165903542Y-136270628D02*
X166284494Y-136270628D01*
X164760685Y-136746819D02*
X165332113Y-136746819D01*
X165046399Y-136746819D02*
X165046399Y-135746819D01*
X165046399Y-135746819D02*
X165141637Y-135889676D01*
X165141637Y-135889676D02*
X165236875Y-135984914D01*
X165236875Y-135984914D02*
X165332113Y-136032533D01*
X158569257Y-135746819D02*
X159045447Y-135746819D01*
X159045447Y-135746819D02*
X159093066Y-136223009D01*
X159093066Y-136223009D02*
X159045447Y-136175390D01*
X159045447Y-136175390D02*
X158950209Y-136127771D01*
X158950209Y-136127771D02*
X158712114Y-136127771D01*
X158712114Y-136127771D02*
X158616876Y-136175390D01*
X158616876Y-136175390D02*
X158569257Y-136223009D01*
X158569257Y-136223009D02*
X158521638Y-136318247D01*
X158521638Y-136318247D02*
X158521638Y-136556342D01*
X158521638Y-136556342D02*
X158569257Y-136651580D01*
X158569257Y-136651580D02*
X158616876Y-136699200D01*
X158616876Y-136699200D02*
X158712114Y-136746819D01*
X158712114Y-136746819D02*
X158950209Y-136746819D01*
X158950209Y-136746819D02*
X159045447Y-136699200D01*
X159045447Y-136699200D02*
X159093066Y-136651580D01*
X158093066Y-136746819D02*
X158093066Y-135746819D01*
X157997828Y-136365866D02*
X157712114Y-136746819D01*
X157712114Y-136080152D02*
X158093066Y-136461104D01*
X156854971Y-135746819D02*
X157045447Y-135746819D01*
X157045447Y-135746819D02*
X157140685Y-135794438D01*
X157140685Y-135794438D02*
X157188304Y-135842057D01*
X157188304Y-135842057D02*
X157283542Y-135984914D01*
X157283542Y-135984914D02*
X157331161Y-136175390D01*
X157331161Y-136175390D02*
X157331161Y-136556342D01*
X157331161Y-136556342D02*
X157283542Y-136651580D01*
X157283542Y-136651580D02*
X157235923Y-136699200D01*
X157235923Y-136699200D02*
X157140685Y-136746819D01*
X157140685Y-136746819D02*
X156950209Y-136746819D01*
X156950209Y-136746819D02*
X156854971Y-136699200D01*
X156854971Y-136699200D02*
X156807352Y-136651580D01*
X156807352Y-136651580D02*
X156759733Y-136556342D01*
X156759733Y-136556342D02*
X156759733Y-136318247D01*
X156759733Y-136318247D02*
X156807352Y-136223009D01*
X156807352Y-136223009D02*
X156854971Y-136175390D01*
X156854971Y-136175390D02*
X156950209Y-136127771D01*
X156950209Y-136127771D02*
X157140685Y-136127771D01*
X157140685Y-136127771D02*
X157235923Y-136175390D01*
X157235923Y-136175390D02*
X157283542Y-136223009D01*
X157283542Y-136223009D02*
X157331161Y-136318247D01*
X165713066Y-140404419D02*
X166046399Y-139928228D01*
X166284494Y-140404419D02*
X166284494Y-139404419D01*
X166284494Y-139404419D02*
X165903542Y-139404419D01*
X165903542Y-139404419D02*
X165808304Y-139452038D01*
X165808304Y-139452038D02*
X165760685Y-139499657D01*
X165760685Y-139499657D02*
X165713066Y-139594895D01*
X165713066Y-139594895D02*
X165713066Y-139737752D01*
X165713066Y-139737752D02*
X165760685Y-139832990D01*
X165760685Y-139832990D02*
X165808304Y-139880609D01*
X165808304Y-139880609D02*
X165903542Y-139928228D01*
X165903542Y-139928228D02*
X166284494Y-139928228D01*
X165332113Y-139499657D02*
X165284494Y-139452038D01*
X165284494Y-139452038D02*
X165189256Y-139404419D01*
X165189256Y-139404419D02*
X164951161Y-139404419D01*
X164951161Y-139404419D02*
X164855923Y-139452038D01*
X164855923Y-139452038D02*
X164808304Y-139499657D01*
X164808304Y-139499657D02*
X164760685Y-139594895D01*
X164760685Y-139594895D02*
X164760685Y-139690133D01*
X164760685Y-139690133D02*
X164808304Y-139832990D01*
X164808304Y-139832990D02*
X165379732Y-140404419D01*
X165379732Y-140404419D02*
X164760685Y-140404419D01*
X158572438Y-140404419D02*
X159143866Y-140404419D01*
X158858152Y-140404419D02*
X158858152Y-139404419D01*
X158858152Y-139404419D02*
X158953390Y-139547276D01*
X158953390Y-139547276D02*
X159048628Y-139642514D01*
X159048628Y-139642514D02*
X159143866Y-139690133D01*
X157953390Y-139404419D02*
X157858152Y-139404419D01*
X157858152Y-139404419D02*
X157762914Y-139452038D01*
X157762914Y-139452038D02*
X157715295Y-139499657D01*
X157715295Y-139499657D02*
X157667676Y-139594895D01*
X157667676Y-139594895D02*
X157620057Y-139785371D01*
X157620057Y-139785371D02*
X157620057Y-140023466D01*
X157620057Y-140023466D02*
X157667676Y-140213942D01*
X157667676Y-140213942D02*
X157715295Y-140309180D01*
X157715295Y-140309180D02*
X157762914Y-140356800D01*
X157762914Y-140356800D02*
X157858152Y-140404419D01*
X157858152Y-140404419D02*
X157953390Y-140404419D01*
X157953390Y-140404419D02*
X158048628Y-140356800D01*
X158048628Y-140356800D02*
X158096247Y-140309180D01*
X158096247Y-140309180D02*
X158143866Y-140213942D01*
X158143866Y-140213942D02*
X158191485Y-140023466D01*
X158191485Y-140023466D02*
X158191485Y-139785371D01*
X158191485Y-139785371D02*
X158143866Y-139594895D01*
X158143866Y-139594895D02*
X158096247Y-139499657D01*
X158096247Y-139499657D02*
X158048628Y-139452038D01*
X158048628Y-139452038D02*
X157953390Y-139404419D01*
X157191485Y-140404419D02*
X157191485Y-139404419D01*
X157096247Y-140023466D02*
X156810533Y-140404419D01*
X156810533Y-139737752D02*
X157191485Y-140118704D01*
X131258586Y-198454707D02*
X131432234Y-197469900D01*
X130695839Y-198355480D02*
X131217127Y-197867153D01*
X130869487Y-197370672D02*
X131333007Y-198032647D01*
X130541218Y-197312789D02*
X129931575Y-197205293D01*
X129931575Y-197205293D02*
X130193692Y-197638340D01*
X130193692Y-197638340D02*
X130053006Y-197613534D01*
X130053006Y-197613534D02*
X129950945Y-197643891D01*
X129950945Y-197643891D02*
X129895781Y-197682518D01*
X129895781Y-197682518D02*
X129832347Y-197768040D01*
X129832347Y-197768040D02*
X129791002Y-198002518D01*
X129791002Y-198002518D02*
X129821360Y-198104578D01*
X129821360Y-198104578D02*
X129859987Y-198159743D01*
X129859987Y-198159743D02*
X129945509Y-198223176D01*
X129945509Y-198223176D02*
X130226883Y-198272790D01*
X130226883Y-198272790D02*
X130328943Y-198242433D01*
X130328943Y-198242433D02*
X130384107Y-198203806D01*
X128820014Y-198024721D02*
X129382762Y-198123949D01*
X129101388Y-198074335D02*
X129275036Y-197089527D01*
X129275036Y-197089527D02*
X129344021Y-197246752D01*
X129344021Y-197246752D02*
X129421274Y-197357081D01*
X129421274Y-197357081D02*
X129506796Y-197420515D01*
X45274285Y-138039819D02*
X45274285Y-137039819D01*
X44702857Y-138039819D02*
X45131428Y-137468390D01*
X44702857Y-137039819D02*
X45274285Y-137611247D01*
X44083809Y-137039819D02*
X43988571Y-137039819D01*
X43988571Y-137039819D02*
X43893333Y-137087438D01*
X43893333Y-137087438D02*
X43845714Y-137135057D01*
X43845714Y-137135057D02*
X43798095Y-137230295D01*
X43798095Y-137230295D02*
X43750476Y-137420771D01*
X43750476Y-137420771D02*
X43750476Y-137658866D01*
X43750476Y-137658866D02*
X43798095Y-137849342D01*
X43798095Y-137849342D02*
X43845714Y-137944580D01*
X43845714Y-137944580D02*
X43893333Y-137992200D01*
X43893333Y-137992200D02*
X43988571Y-138039819D01*
X43988571Y-138039819D02*
X44083809Y-138039819D01*
X44083809Y-138039819D02*
X44179047Y-137992200D01*
X44179047Y-137992200D02*
X44226666Y-137944580D01*
X44226666Y-137944580D02*
X44274285Y-137849342D01*
X44274285Y-137849342D02*
X44321904Y-137658866D01*
X44321904Y-137658866D02*
X44321904Y-137420771D01*
X44321904Y-137420771D02*
X44274285Y-137230295D01*
X44274285Y-137230295D02*
X44226666Y-137135057D01*
X44226666Y-137135057D02*
X44179047Y-137087438D01*
X44179047Y-137087438D02*
X44083809Y-137039819D01*
X43131428Y-137039819D02*
X43036190Y-137039819D01*
X43036190Y-137039819D02*
X42940952Y-137087438D01*
X42940952Y-137087438D02*
X42893333Y-137135057D01*
X42893333Y-137135057D02*
X42845714Y-137230295D01*
X42845714Y-137230295D02*
X42798095Y-137420771D01*
X42798095Y-137420771D02*
X42798095Y-137658866D01*
X42798095Y-137658866D02*
X42845714Y-137849342D01*
X42845714Y-137849342D02*
X42893333Y-137944580D01*
X42893333Y-137944580D02*
X42940952Y-137992200D01*
X42940952Y-137992200D02*
X43036190Y-138039819D01*
X43036190Y-138039819D02*
X43131428Y-138039819D01*
X43131428Y-138039819D02*
X43226666Y-137992200D01*
X43226666Y-137992200D02*
X43274285Y-137944580D01*
X43274285Y-137944580D02*
X43321904Y-137849342D01*
X43321904Y-137849342D02*
X43369523Y-137658866D01*
X43369523Y-137658866D02*
X43369523Y-137420771D01*
X43369523Y-137420771D02*
X43321904Y-137230295D01*
X43321904Y-137230295D02*
X43274285Y-137135057D01*
X43274285Y-137135057D02*
X43226666Y-137087438D01*
X43226666Y-137087438D02*
X43131428Y-137039819D01*
X97774285Y-154549819D02*
X97774285Y-153549819D01*
X97202857Y-154549819D02*
X97631428Y-153978390D01*
X97202857Y-153549819D02*
X97774285Y-154121247D01*
X96250476Y-154549819D02*
X96821904Y-154549819D01*
X96536190Y-154549819D02*
X96536190Y-153549819D01*
X96536190Y-153549819D02*
X96631428Y-153692676D01*
X96631428Y-153692676D02*
X96726666Y-153787914D01*
X96726666Y-153787914D02*
X96821904Y-153835533D01*
X95917142Y-153549819D02*
X95298095Y-153549819D01*
X95298095Y-153549819D02*
X95631428Y-153930771D01*
X95631428Y-153930771D02*
X95488571Y-153930771D01*
X95488571Y-153930771D02*
X95393333Y-153978390D01*
X95393333Y-153978390D02*
X95345714Y-154026009D01*
X95345714Y-154026009D02*
X95298095Y-154121247D01*
X95298095Y-154121247D02*
X95298095Y-154359342D01*
X95298095Y-154359342D02*
X95345714Y-154454580D01*
X95345714Y-154454580D02*
X95393333Y-154502200D01*
X95393333Y-154502200D02*
X95488571Y-154549819D01*
X95488571Y-154549819D02*
X95774285Y-154549819D01*
X95774285Y-154549819D02*
X95869523Y-154502200D01*
X95869523Y-154502200D02*
X95917142Y-154454580D01*
X45274285Y-172039819D02*
X45274285Y-171039819D01*
X44702857Y-172039819D02*
X45131428Y-171468390D01*
X44702857Y-171039819D02*
X45274285Y-171611247D01*
X44321904Y-171135057D02*
X44274285Y-171087438D01*
X44274285Y-171087438D02*
X44179047Y-171039819D01*
X44179047Y-171039819D02*
X43940952Y-171039819D01*
X43940952Y-171039819D02*
X43845714Y-171087438D01*
X43845714Y-171087438D02*
X43798095Y-171135057D01*
X43798095Y-171135057D02*
X43750476Y-171230295D01*
X43750476Y-171230295D02*
X43750476Y-171325533D01*
X43750476Y-171325533D02*
X43798095Y-171468390D01*
X43798095Y-171468390D02*
X44369523Y-172039819D01*
X44369523Y-172039819D02*
X43750476Y-172039819D01*
X43131428Y-171039819D02*
X43036190Y-171039819D01*
X43036190Y-171039819D02*
X42940952Y-171087438D01*
X42940952Y-171087438D02*
X42893333Y-171135057D01*
X42893333Y-171135057D02*
X42845714Y-171230295D01*
X42845714Y-171230295D02*
X42798095Y-171420771D01*
X42798095Y-171420771D02*
X42798095Y-171658866D01*
X42798095Y-171658866D02*
X42845714Y-171849342D01*
X42845714Y-171849342D02*
X42893333Y-171944580D01*
X42893333Y-171944580D02*
X42940952Y-171992200D01*
X42940952Y-171992200D02*
X43036190Y-172039819D01*
X43036190Y-172039819D02*
X43131428Y-172039819D01*
X43131428Y-172039819D02*
X43226666Y-171992200D01*
X43226666Y-171992200D02*
X43274285Y-171944580D01*
X43274285Y-171944580D02*
X43321904Y-171849342D01*
X43321904Y-171849342D02*
X43369523Y-171658866D01*
X43369523Y-171658866D02*
X43369523Y-171420771D01*
X43369523Y-171420771D02*
X43321904Y-171230295D01*
X43321904Y-171230295D02*
X43274285Y-171135057D01*
X43274285Y-171135057D02*
X43226666Y-171087438D01*
X43226666Y-171087438D02*
X43131428Y-171039819D01*
X133774285Y-144549819D02*
X133774285Y-143549819D01*
X133202857Y-144549819D02*
X133631428Y-143978390D01*
X133202857Y-143549819D02*
X133774285Y-144121247D01*
X132583809Y-143549819D02*
X132488571Y-143549819D01*
X132488571Y-143549819D02*
X132393333Y-143597438D01*
X132393333Y-143597438D02*
X132345714Y-143645057D01*
X132345714Y-143645057D02*
X132298095Y-143740295D01*
X132298095Y-143740295D02*
X132250476Y-143930771D01*
X132250476Y-143930771D02*
X132250476Y-144168866D01*
X132250476Y-144168866D02*
X132298095Y-144359342D01*
X132298095Y-144359342D02*
X132345714Y-144454580D01*
X132345714Y-144454580D02*
X132393333Y-144502200D01*
X132393333Y-144502200D02*
X132488571Y-144549819D01*
X132488571Y-144549819D02*
X132583809Y-144549819D01*
X132583809Y-144549819D02*
X132679047Y-144502200D01*
X132679047Y-144502200D02*
X132726666Y-144454580D01*
X132726666Y-144454580D02*
X132774285Y-144359342D01*
X132774285Y-144359342D02*
X132821904Y-144168866D01*
X132821904Y-144168866D02*
X132821904Y-143930771D01*
X132821904Y-143930771D02*
X132774285Y-143740295D01*
X132774285Y-143740295D02*
X132726666Y-143645057D01*
X132726666Y-143645057D02*
X132679047Y-143597438D01*
X132679047Y-143597438D02*
X132583809Y-143549819D01*
X131345714Y-143549819D02*
X131821904Y-143549819D01*
X131821904Y-143549819D02*
X131869523Y-144026009D01*
X131869523Y-144026009D02*
X131821904Y-143978390D01*
X131821904Y-143978390D02*
X131726666Y-143930771D01*
X131726666Y-143930771D02*
X131488571Y-143930771D01*
X131488571Y-143930771D02*
X131393333Y-143978390D01*
X131393333Y-143978390D02*
X131345714Y-144026009D01*
X131345714Y-144026009D02*
X131298095Y-144121247D01*
X131298095Y-144121247D02*
X131298095Y-144359342D01*
X131298095Y-144359342D02*
X131345714Y-144454580D01*
X131345714Y-144454580D02*
X131393333Y-144502200D01*
X131393333Y-144502200D02*
X131488571Y-144549819D01*
X131488571Y-144549819D02*
X131726666Y-144549819D01*
X131726666Y-144549819D02*
X131821904Y-144502200D01*
X131821904Y-144502200D02*
X131869523Y-144454580D01*
X62274285Y-171549819D02*
X62274285Y-170549819D01*
X61702857Y-171549819D02*
X62131428Y-170978390D01*
X61702857Y-170549819D02*
X62274285Y-171121247D01*
X60750476Y-171549819D02*
X61321904Y-171549819D01*
X61036190Y-171549819D02*
X61036190Y-170549819D01*
X61036190Y-170549819D02*
X61131428Y-170692676D01*
X61131428Y-170692676D02*
X61226666Y-170787914D01*
X61226666Y-170787914D02*
X61321904Y-170835533D01*
X59798095Y-171549819D02*
X60369523Y-171549819D01*
X60083809Y-171549819D02*
X60083809Y-170549819D01*
X60083809Y-170549819D02*
X60179047Y-170692676D01*
X60179047Y-170692676D02*
X60274285Y-170787914D01*
X60274285Y-170787914D02*
X60369523Y-170835533D01*
X150073279Y-204824338D02*
X150495898Y-203918030D01*
X149555389Y-204582842D02*
X150185303Y-204246074D01*
X149978007Y-203676534D02*
X150254401Y-204435920D01*
X149675905Y-203535661D02*
X149114857Y-203274040D01*
X149114857Y-203274040D02*
X149255962Y-203760173D01*
X149255962Y-203760173D02*
X149126490Y-203699799D01*
X149126490Y-203699799D02*
X149020050Y-203702707D01*
X149020050Y-203702707D02*
X148956768Y-203725740D01*
X148956768Y-203725740D02*
X148873361Y-203791931D01*
X148873361Y-203791931D02*
X148772738Y-204007718D01*
X148772738Y-204007718D02*
X148775646Y-204114158D01*
X148775646Y-204114158D02*
X148798679Y-204177440D01*
X148798679Y-204177440D02*
X148864869Y-204260847D01*
X148864869Y-204260847D02*
X149123814Y-204381595D01*
X149123814Y-204381595D02*
X149230254Y-204378687D01*
X149230254Y-204378687D02*
X149293536Y-204355654D01*
X148729348Y-203199358D02*
X148706315Y-203136076D01*
X148706315Y-203136076D02*
X148640124Y-203052669D01*
X148640124Y-203052669D02*
X148424337Y-202952045D01*
X148424337Y-202952045D02*
X148317897Y-202954954D01*
X148317897Y-202954954D02*
X148254615Y-202977986D01*
X148254615Y-202977986D02*
X148171208Y-203044177D01*
X148171208Y-203044177D02*
X148130959Y-203130492D01*
X148130959Y-203130492D02*
X148113742Y-203280089D01*
X148113742Y-203280089D02*
X148390136Y-204039475D01*
X148390136Y-204039475D02*
X147829089Y-203777855D01*
X133774285Y-161549819D02*
X133774285Y-160549819D01*
X133202857Y-161549819D02*
X133631428Y-160978390D01*
X133202857Y-160549819D02*
X133774285Y-161121247D01*
X132250476Y-161549819D02*
X132821904Y-161549819D01*
X132536190Y-161549819D02*
X132536190Y-160549819D01*
X132536190Y-160549819D02*
X132631428Y-160692676D01*
X132631428Y-160692676D02*
X132726666Y-160787914D01*
X132726666Y-160787914D02*
X132821904Y-160835533D01*
X131345714Y-160549819D02*
X131821904Y-160549819D01*
X131821904Y-160549819D02*
X131869523Y-161026009D01*
X131869523Y-161026009D02*
X131821904Y-160978390D01*
X131821904Y-160978390D02*
X131726666Y-160930771D01*
X131726666Y-160930771D02*
X131488571Y-160930771D01*
X131488571Y-160930771D02*
X131393333Y-160978390D01*
X131393333Y-160978390D02*
X131345714Y-161026009D01*
X131345714Y-161026009D02*
X131298095Y-161121247D01*
X131298095Y-161121247D02*
X131298095Y-161359342D01*
X131298095Y-161359342D02*
X131345714Y-161454580D01*
X131345714Y-161454580D02*
X131393333Y-161502200D01*
X131393333Y-161502200D02*
X131488571Y-161549819D01*
X131488571Y-161549819D02*
X131726666Y-161549819D01*
X131726666Y-161549819D02*
X131821904Y-161502200D01*
X131821904Y-161502200D02*
X131869523Y-161454580D01*
X79774285Y-176549819D02*
X79774285Y-175549819D01*
X79202857Y-176549819D02*
X79631428Y-175978390D01*
X79202857Y-175549819D02*
X79774285Y-176121247D01*
X78821904Y-175645057D02*
X78774285Y-175597438D01*
X78774285Y-175597438D02*
X78679047Y-175549819D01*
X78679047Y-175549819D02*
X78440952Y-175549819D01*
X78440952Y-175549819D02*
X78345714Y-175597438D01*
X78345714Y-175597438D02*
X78298095Y-175645057D01*
X78298095Y-175645057D02*
X78250476Y-175740295D01*
X78250476Y-175740295D02*
X78250476Y-175835533D01*
X78250476Y-175835533D02*
X78298095Y-175978390D01*
X78298095Y-175978390D02*
X78869523Y-176549819D01*
X78869523Y-176549819D02*
X78250476Y-176549819D01*
X77869523Y-175645057D02*
X77821904Y-175597438D01*
X77821904Y-175597438D02*
X77726666Y-175549819D01*
X77726666Y-175549819D02*
X77488571Y-175549819D01*
X77488571Y-175549819D02*
X77393333Y-175597438D01*
X77393333Y-175597438D02*
X77345714Y-175645057D01*
X77345714Y-175645057D02*
X77298095Y-175740295D01*
X77298095Y-175740295D02*
X77298095Y-175835533D01*
X77298095Y-175835533D02*
X77345714Y-175978390D01*
X77345714Y-175978390D02*
X77917142Y-176549819D01*
X77917142Y-176549819D02*
X77298095Y-176549819D01*
X97774285Y-137549819D02*
X97774285Y-136549819D01*
X97202857Y-137549819D02*
X97631428Y-136978390D01*
X97202857Y-136549819D02*
X97774285Y-137121247D01*
X96583809Y-136549819D02*
X96488571Y-136549819D01*
X96488571Y-136549819D02*
X96393333Y-136597438D01*
X96393333Y-136597438D02*
X96345714Y-136645057D01*
X96345714Y-136645057D02*
X96298095Y-136740295D01*
X96298095Y-136740295D02*
X96250476Y-136930771D01*
X96250476Y-136930771D02*
X96250476Y-137168866D01*
X96250476Y-137168866D02*
X96298095Y-137359342D01*
X96298095Y-137359342D02*
X96345714Y-137454580D01*
X96345714Y-137454580D02*
X96393333Y-137502200D01*
X96393333Y-137502200D02*
X96488571Y-137549819D01*
X96488571Y-137549819D02*
X96583809Y-137549819D01*
X96583809Y-137549819D02*
X96679047Y-137502200D01*
X96679047Y-137502200D02*
X96726666Y-137454580D01*
X96726666Y-137454580D02*
X96774285Y-137359342D01*
X96774285Y-137359342D02*
X96821904Y-137168866D01*
X96821904Y-137168866D02*
X96821904Y-136930771D01*
X96821904Y-136930771D02*
X96774285Y-136740295D01*
X96774285Y-136740295D02*
X96726666Y-136645057D01*
X96726666Y-136645057D02*
X96679047Y-136597438D01*
X96679047Y-136597438D02*
X96583809Y-136549819D01*
X95917142Y-136549819D02*
X95298095Y-136549819D01*
X95298095Y-136549819D02*
X95631428Y-136930771D01*
X95631428Y-136930771D02*
X95488571Y-136930771D01*
X95488571Y-136930771D02*
X95393333Y-136978390D01*
X95393333Y-136978390D02*
X95345714Y-137026009D01*
X95345714Y-137026009D02*
X95298095Y-137121247D01*
X95298095Y-137121247D02*
X95298095Y-137359342D01*
X95298095Y-137359342D02*
X95345714Y-137454580D01*
X95345714Y-137454580D02*
X95393333Y-137502200D01*
X95393333Y-137502200D02*
X95488571Y-137549819D01*
X95488571Y-137549819D02*
X95774285Y-137549819D01*
X95774285Y-137549819D02*
X95869523Y-137502200D01*
X95869523Y-137502200D02*
X95917142Y-137454580D01*
X97774285Y-171549819D02*
X97774285Y-170549819D01*
X97202857Y-171549819D02*
X97631428Y-170978390D01*
X97202857Y-170549819D02*
X97774285Y-171121247D01*
X96821904Y-170645057D02*
X96774285Y-170597438D01*
X96774285Y-170597438D02*
X96679047Y-170549819D01*
X96679047Y-170549819D02*
X96440952Y-170549819D01*
X96440952Y-170549819D02*
X96345714Y-170597438D01*
X96345714Y-170597438D02*
X96298095Y-170645057D01*
X96298095Y-170645057D02*
X96250476Y-170740295D01*
X96250476Y-170740295D02*
X96250476Y-170835533D01*
X96250476Y-170835533D02*
X96298095Y-170978390D01*
X96298095Y-170978390D02*
X96869523Y-171549819D01*
X96869523Y-171549819D02*
X96250476Y-171549819D01*
X95917142Y-170549819D02*
X95298095Y-170549819D01*
X95298095Y-170549819D02*
X95631428Y-170930771D01*
X95631428Y-170930771D02*
X95488571Y-170930771D01*
X95488571Y-170930771D02*
X95393333Y-170978390D01*
X95393333Y-170978390D02*
X95345714Y-171026009D01*
X95345714Y-171026009D02*
X95298095Y-171121247D01*
X95298095Y-171121247D02*
X95298095Y-171359342D01*
X95298095Y-171359342D02*
X95345714Y-171454580D01*
X95345714Y-171454580D02*
X95393333Y-171502200D01*
X95393333Y-171502200D02*
X95488571Y-171549819D01*
X95488571Y-171549819D02*
X95774285Y-171549819D01*
X95774285Y-171549819D02*
X95869523Y-171502200D01*
X95869523Y-171502200D02*
X95917142Y-171454580D01*
X115774285Y-159549819D02*
X115774285Y-158549819D01*
X115202857Y-159549819D02*
X115631428Y-158978390D01*
X115202857Y-158549819D02*
X115774285Y-159121247D01*
X114250476Y-159549819D02*
X114821904Y-159549819D01*
X114536190Y-159549819D02*
X114536190Y-158549819D01*
X114536190Y-158549819D02*
X114631428Y-158692676D01*
X114631428Y-158692676D02*
X114726666Y-158787914D01*
X114726666Y-158787914D02*
X114821904Y-158835533D01*
X113393333Y-158883152D02*
X113393333Y-159549819D01*
X113631428Y-158502200D02*
X113869523Y-159216485D01*
X113869523Y-159216485D02*
X113250476Y-159216485D01*
X62274285Y-154549819D02*
X62274285Y-153549819D01*
X61702857Y-154549819D02*
X62131428Y-153978390D01*
X61702857Y-153549819D02*
X62274285Y-154121247D01*
X61083809Y-153549819D02*
X60988571Y-153549819D01*
X60988571Y-153549819D02*
X60893333Y-153597438D01*
X60893333Y-153597438D02*
X60845714Y-153645057D01*
X60845714Y-153645057D02*
X60798095Y-153740295D01*
X60798095Y-153740295D02*
X60750476Y-153930771D01*
X60750476Y-153930771D02*
X60750476Y-154168866D01*
X60750476Y-154168866D02*
X60798095Y-154359342D01*
X60798095Y-154359342D02*
X60845714Y-154454580D01*
X60845714Y-154454580D02*
X60893333Y-154502200D01*
X60893333Y-154502200D02*
X60988571Y-154549819D01*
X60988571Y-154549819D02*
X61083809Y-154549819D01*
X61083809Y-154549819D02*
X61179047Y-154502200D01*
X61179047Y-154502200D02*
X61226666Y-154454580D01*
X61226666Y-154454580D02*
X61274285Y-154359342D01*
X61274285Y-154359342D02*
X61321904Y-154168866D01*
X61321904Y-154168866D02*
X61321904Y-153930771D01*
X61321904Y-153930771D02*
X61274285Y-153740295D01*
X61274285Y-153740295D02*
X61226666Y-153645057D01*
X61226666Y-153645057D02*
X61179047Y-153597438D01*
X61179047Y-153597438D02*
X61083809Y-153549819D01*
X59798095Y-154549819D02*
X60369523Y-154549819D01*
X60083809Y-154549819D02*
X60083809Y-153549819D01*
X60083809Y-153549819D02*
X60179047Y-153692676D01*
X60179047Y-153692676D02*
X60274285Y-153787914D01*
X60274285Y-153787914D02*
X60369523Y-153835533D01*
X111532581Y-197497999D02*
X111445425Y-196501804D01*
X110963327Y-197547802D02*
X111340464Y-196941196D01*
X110876171Y-196551607D02*
X111495228Y-197071058D01*
X110544106Y-196580659D02*
X109927414Y-196634613D01*
X109927414Y-196634613D02*
X110292681Y-196985064D01*
X110292681Y-196985064D02*
X110150367Y-196997515D01*
X110150367Y-196997515D02*
X110059642Y-197053253D01*
X110059642Y-197053253D02*
X110016354Y-197104841D01*
X110016354Y-197104841D02*
X109977217Y-197203867D01*
X109977217Y-197203867D02*
X109997969Y-197441056D01*
X109997969Y-197441056D02*
X110053707Y-197531782D01*
X110053707Y-197531782D02*
X110105295Y-197575069D01*
X110105295Y-197575069D02*
X110204321Y-197614207D01*
X110204321Y-197614207D02*
X110488948Y-197589305D01*
X110488948Y-197589305D02*
X110579674Y-197533566D01*
X110579674Y-197533566D02*
X110622961Y-197481978D01*
X109310722Y-196688566D02*
X109215846Y-196696867D01*
X109215846Y-196696867D02*
X109125121Y-196752605D01*
X109125121Y-196752605D02*
X109081833Y-196804194D01*
X109081833Y-196804194D02*
X109042696Y-196903219D01*
X109042696Y-196903219D02*
X109011859Y-197097121D01*
X109011859Y-197097121D02*
X109032611Y-197334310D01*
X109032611Y-197334310D02*
X109096650Y-197519911D01*
X109096650Y-197519911D02*
X109152388Y-197610637D01*
X109152388Y-197610637D02*
X109203976Y-197653924D01*
X109203976Y-197653924D02*
X109303002Y-197693062D01*
X109303002Y-197693062D02*
X109397878Y-197684761D01*
X109397878Y-197684761D02*
X109488603Y-197629023D01*
X109488603Y-197629023D02*
X109531891Y-197577435D01*
X109531891Y-197577435D02*
X109571028Y-197478409D01*
X109571028Y-197478409D02*
X109601865Y-197284507D01*
X109601865Y-197284507D02*
X109581113Y-197047318D01*
X109581113Y-197047318D02*
X109517074Y-196861717D01*
X109517074Y-196861717D02*
X109461336Y-196770991D01*
X109461336Y-196770991D02*
X109409748Y-196727704D01*
X109409748Y-196727704D02*
X109310722Y-196688566D01*
X79774285Y-159549819D02*
X79774285Y-158549819D01*
X79202857Y-159549819D02*
X79631428Y-158978390D01*
X79202857Y-158549819D02*
X79774285Y-159121247D01*
X78250476Y-159549819D02*
X78821904Y-159549819D01*
X78536190Y-159549819D02*
X78536190Y-158549819D01*
X78536190Y-158549819D02*
X78631428Y-158692676D01*
X78631428Y-158692676D02*
X78726666Y-158787914D01*
X78726666Y-158787914D02*
X78821904Y-158835533D01*
X77869523Y-158645057D02*
X77821904Y-158597438D01*
X77821904Y-158597438D02*
X77726666Y-158549819D01*
X77726666Y-158549819D02*
X77488571Y-158549819D01*
X77488571Y-158549819D02*
X77393333Y-158597438D01*
X77393333Y-158597438D02*
X77345714Y-158645057D01*
X77345714Y-158645057D02*
X77298095Y-158740295D01*
X77298095Y-158740295D02*
X77298095Y-158835533D01*
X77298095Y-158835533D02*
X77345714Y-158978390D01*
X77345714Y-158978390D02*
X77917142Y-159549819D01*
X77917142Y-159549819D02*
X77298095Y-159549819D01*
X115774285Y-142549819D02*
X115774285Y-141549819D01*
X115202857Y-142549819D02*
X115631428Y-141978390D01*
X115202857Y-141549819D02*
X115774285Y-142121247D01*
X114583809Y-141549819D02*
X114488571Y-141549819D01*
X114488571Y-141549819D02*
X114393333Y-141597438D01*
X114393333Y-141597438D02*
X114345714Y-141645057D01*
X114345714Y-141645057D02*
X114298095Y-141740295D01*
X114298095Y-141740295D02*
X114250476Y-141930771D01*
X114250476Y-141930771D02*
X114250476Y-142168866D01*
X114250476Y-142168866D02*
X114298095Y-142359342D01*
X114298095Y-142359342D02*
X114345714Y-142454580D01*
X114345714Y-142454580D02*
X114393333Y-142502200D01*
X114393333Y-142502200D02*
X114488571Y-142549819D01*
X114488571Y-142549819D02*
X114583809Y-142549819D01*
X114583809Y-142549819D02*
X114679047Y-142502200D01*
X114679047Y-142502200D02*
X114726666Y-142454580D01*
X114726666Y-142454580D02*
X114774285Y-142359342D01*
X114774285Y-142359342D02*
X114821904Y-142168866D01*
X114821904Y-142168866D02*
X114821904Y-141930771D01*
X114821904Y-141930771D02*
X114774285Y-141740295D01*
X114774285Y-141740295D02*
X114726666Y-141645057D01*
X114726666Y-141645057D02*
X114679047Y-141597438D01*
X114679047Y-141597438D02*
X114583809Y-141549819D01*
X113393333Y-141883152D02*
X113393333Y-142549819D01*
X113631428Y-141502200D02*
X113869523Y-142216485D01*
X113869523Y-142216485D02*
X113250476Y-142216485D01*
X45274285Y-155039819D02*
X45274285Y-154039819D01*
X44702857Y-155039819D02*
X45131428Y-154468390D01*
X44702857Y-154039819D02*
X45274285Y-154611247D01*
X43750476Y-155039819D02*
X44321904Y-155039819D01*
X44036190Y-155039819D02*
X44036190Y-154039819D01*
X44036190Y-154039819D02*
X44131428Y-154182676D01*
X44131428Y-154182676D02*
X44226666Y-154277914D01*
X44226666Y-154277914D02*
X44321904Y-154325533D01*
X43131428Y-154039819D02*
X43036190Y-154039819D01*
X43036190Y-154039819D02*
X42940952Y-154087438D01*
X42940952Y-154087438D02*
X42893333Y-154135057D01*
X42893333Y-154135057D02*
X42845714Y-154230295D01*
X42845714Y-154230295D02*
X42798095Y-154420771D01*
X42798095Y-154420771D02*
X42798095Y-154658866D01*
X42798095Y-154658866D02*
X42845714Y-154849342D01*
X42845714Y-154849342D02*
X42893333Y-154944580D01*
X42893333Y-154944580D02*
X42940952Y-154992200D01*
X42940952Y-154992200D02*
X43036190Y-155039819D01*
X43036190Y-155039819D02*
X43131428Y-155039819D01*
X43131428Y-155039819D02*
X43226666Y-154992200D01*
X43226666Y-154992200D02*
X43274285Y-154944580D01*
X43274285Y-154944580D02*
X43321904Y-154849342D01*
X43321904Y-154849342D02*
X43369523Y-154658866D01*
X43369523Y-154658866D02*
X43369523Y-154420771D01*
X43369523Y-154420771D02*
X43321904Y-154230295D01*
X43321904Y-154230295D02*
X43274285Y-154135057D01*
X43274285Y-154135057D02*
X43226666Y-154087438D01*
X43226666Y-154087438D02*
X43131428Y-154039819D01*
X79774285Y-142549819D02*
X79774285Y-141549819D01*
X79202857Y-142549819D02*
X79631428Y-141978390D01*
X79202857Y-141549819D02*
X79774285Y-142121247D01*
X78583809Y-141549819D02*
X78488571Y-141549819D01*
X78488571Y-141549819D02*
X78393333Y-141597438D01*
X78393333Y-141597438D02*
X78345714Y-141645057D01*
X78345714Y-141645057D02*
X78298095Y-141740295D01*
X78298095Y-141740295D02*
X78250476Y-141930771D01*
X78250476Y-141930771D02*
X78250476Y-142168866D01*
X78250476Y-142168866D02*
X78298095Y-142359342D01*
X78298095Y-142359342D02*
X78345714Y-142454580D01*
X78345714Y-142454580D02*
X78393333Y-142502200D01*
X78393333Y-142502200D02*
X78488571Y-142549819D01*
X78488571Y-142549819D02*
X78583809Y-142549819D01*
X78583809Y-142549819D02*
X78679047Y-142502200D01*
X78679047Y-142502200D02*
X78726666Y-142454580D01*
X78726666Y-142454580D02*
X78774285Y-142359342D01*
X78774285Y-142359342D02*
X78821904Y-142168866D01*
X78821904Y-142168866D02*
X78821904Y-141930771D01*
X78821904Y-141930771D02*
X78774285Y-141740295D01*
X78774285Y-141740295D02*
X78726666Y-141645057D01*
X78726666Y-141645057D02*
X78679047Y-141597438D01*
X78679047Y-141597438D02*
X78583809Y-141549819D01*
X77869523Y-141645057D02*
X77821904Y-141597438D01*
X77821904Y-141597438D02*
X77726666Y-141549819D01*
X77726666Y-141549819D02*
X77488571Y-141549819D01*
X77488571Y-141549819D02*
X77393333Y-141597438D01*
X77393333Y-141597438D02*
X77345714Y-141645057D01*
X77345714Y-141645057D02*
X77298095Y-141740295D01*
X77298095Y-141740295D02*
X77298095Y-141835533D01*
X77298095Y-141835533D02*
X77345714Y-141978390D01*
X77345714Y-141978390D02*
X77917142Y-142549819D01*
X77917142Y-142549819D02*
X77298095Y-142549819D01*
X62274285Y-188549819D02*
X62274285Y-187549819D01*
X61702857Y-188549819D02*
X62131428Y-187978390D01*
X61702857Y-187549819D02*
X62274285Y-188121247D01*
X61321904Y-187645057D02*
X61274285Y-187597438D01*
X61274285Y-187597438D02*
X61179047Y-187549819D01*
X61179047Y-187549819D02*
X60940952Y-187549819D01*
X60940952Y-187549819D02*
X60845714Y-187597438D01*
X60845714Y-187597438D02*
X60798095Y-187645057D01*
X60798095Y-187645057D02*
X60750476Y-187740295D01*
X60750476Y-187740295D02*
X60750476Y-187835533D01*
X60750476Y-187835533D02*
X60798095Y-187978390D01*
X60798095Y-187978390D02*
X61369523Y-188549819D01*
X61369523Y-188549819D02*
X60750476Y-188549819D01*
X59798095Y-188549819D02*
X60369523Y-188549819D01*
X60083809Y-188549819D02*
X60083809Y-187549819D01*
X60083809Y-187549819D02*
X60179047Y-187692676D01*
X60179047Y-187692676D02*
X60274285Y-187787914D01*
X60274285Y-187787914D02*
X60369523Y-187835533D01*
X115774285Y-176549819D02*
X115774285Y-175549819D01*
X115202857Y-176549819D02*
X115631428Y-175978390D01*
X115202857Y-175549819D02*
X115774285Y-176121247D01*
X114821904Y-175645057D02*
X114774285Y-175597438D01*
X114774285Y-175597438D02*
X114679047Y-175549819D01*
X114679047Y-175549819D02*
X114440952Y-175549819D01*
X114440952Y-175549819D02*
X114345714Y-175597438D01*
X114345714Y-175597438D02*
X114298095Y-175645057D01*
X114298095Y-175645057D02*
X114250476Y-175740295D01*
X114250476Y-175740295D02*
X114250476Y-175835533D01*
X114250476Y-175835533D02*
X114298095Y-175978390D01*
X114298095Y-175978390D02*
X114869523Y-176549819D01*
X114869523Y-176549819D02*
X114250476Y-176549819D01*
X113393333Y-175883152D02*
X113393333Y-176549819D01*
X113631428Y-175502200D02*
X113869523Y-176216485D01*
X113869523Y-176216485D02*
X113250476Y-176216485D01*
X133774285Y-178549819D02*
X133774285Y-177549819D01*
X133202857Y-178549819D02*
X133631428Y-177978390D01*
X133202857Y-177549819D02*
X133774285Y-178121247D01*
X132821904Y-177645057D02*
X132774285Y-177597438D01*
X132774285Y-177597438D02*
X132679047Y-177549819D01*
X132679047Y-177549819D02*
X132440952Y-177549819D01*
X132440952Y-177549819D02*
X132345714Y-177597438D01*
X132345714Y-177597438D02*
X132298095Y-177645057D01*
X132298095Y-177645057D02*
X132250476Y-177740295D01*
X132250476Y-177740295D02*
X132250476Y-177835533D01*
X132250476Y-177835533D02*
X132298095Y-177978390D01*
X132298095Y-177978390D02*
X132869523Y-178549819D01*
X132869523Y-178549819D02*
X132250476Y-178549819D01*
X131345714Y-177549819D02*
X131821904Y-177549819D01*
X131821904Y-177549819D02*
X131869523Y-178026009D01*
X131869523Y-178026009D02*
X131821904Y-177978390D01*
X131821904Y-177978390D02*
X131726666Y-177930771D01*
X131726666Y-177930771D02*
X131488571Y-177930771D01*
X131488571Y-177930771D02*
X131393333Y-177978390D01*
X131393333Y-177978390D02*
X131345714Y-178026009D01*
X131345714Y-178026009D02*
X131298095Y-178121247D01*
X131298095Y-178121247D02*
X131298095Y-178359342D01*
X131298095Y-178359342D02*
X131345714Y-178454580D01*
X131345714Y-178454580D02*
X131393333Y-178502200D01*
X131393333Y-178502200D02*
X131488571Y-178549819D01*
X131488571Y-178549819D02*
X131726666Y-178549819D01*
X131726666Y-178549819D02*
X131821904Y-178502200D01*
X131821904Y-178502200D02*
X131869523Y-178454580D01*
X134214285Y-80209819D02*
X134214285Y-79209819D01*
X133642857Y-80209819D02*
X134071428Y-79638390D01*
X133642857Y-79209819D02*
X134214285Y-79781247D01*
X133261904Y-79305057D02*
X133214285Y-79257438D01*
X133214285Y-79257438D02*
X133119047Y-79209819D01*
X133119047Y-79209819D02*
X132880952Y-79209819D01*
X132880952Y-79209819D02*
X132785714Y-79257438D01*
X132785714Y-79257438D02*
X132738095Y-79305057D01*
X132738095Y-79305057D02*
X132690476Y-79400295D01*
X132690476Y-79400295D02*
X132690476Y-79495533D01*
X132690476Y-79495533D02*
X132738095Y-79638390D01*
X132738095Y-79638390D02*
X133309523Y-80209819D01*
X133309523Y-80209819D02*
X132690476Y-80209819D01*
X131785714Y-79209819D02*
X132261904Y-79209819D01*
X132261904Y-79209819D02*
X132309523Y-79686009D01*
X132309523Y-79686009D02*
X132261904Y-79638390D01*
X132261904Y-79638390D02*
X132166666Y-79590771D01*
X132166666Y-79590771D02*
X131928571Y-79590771D01*
X131928571Y-79590771D02*
X131833333Y-79638390D01*
X131833333Y-79638390D02*
X131785714Y-79686009D01*
X131785714Y-79686009D02*
X131738095Y-79781247D01*
X131738095Y-79781247D02*
X131738095Y-80019342D01*
X131738095Y-80019342D02*
X131785714Y-80114580D01*
X131785714Y-80114580D02*
X131833333Y-80162200D01*
X131833333Y-80162200D02*
X131928571Y-80209819D01*
X131928571Y-80209819D02*
X132166666Y-80209819D01*
X132166666Y-80209819D02*
X132261904Y-80162200D01*
X132261904Y-80162200D02*
X132309523Y-80114580D01*
X116214285Y-78209819D02*
X116214285Y-77209819D01*
X115642857Y-78209819D02*
X116071428Y-77638390D01*
X115642857Y-77209819D02*
X116214285Y-77781247D01*
X115261904Y-77305057D02*
X115214285Y-77257438D01*
X115214285Y-77257438D02*
X115119047Y-77209819D01*
X115119047Y-77209819D02*
X114880952Y-77209819D01*
X114880952Y-77209819D02*
X114785714Y-77257438D01*
X114785714Y-77257438D02*
X114738095Y-77305057D01*
X114738095Y-77305057D02*
X114690476Y-77400295D01*
X114690476Y-77400295D02*
X114690476Y-77495533D01*
X114690476Y-77495533D02*
X114738095Y-77638390D01*
X114738095Y-77638390D02*
X115309523Y-78209819D01*
X115309523Y-78209819D02*
X114690476Y-78209819D01*
X113833333Y-77543152D02*
X113833333Y-78209819D01*
X114071428Y-77162200D02*
X114309523Y-77876485D01*
X114309523Y-77876485D02*
X113690476Y-77876485D01*
X62714285Y-90209819D02*
X62714285Y-89209819D01*
X62142857Y-90209819D02*
X62571428Y-89638390D01*
X62142857Y-89209819D02*
X62714285Y-89781247D01*
X61761904Y-89305057D02*
X61714285Y-89257438D01*
X61714285Y-89257438D02*
X61619047Y-89209819D01*
X61619047Y-89209819D02*
X61380952Y-89209819D01*
X61380952Y-89209819D02*
X61285714Y-89257438D01*
X61285714Y-89257438D02*
X61238095Y-89305057D01*
X61238095Y-89305057D02*
X61190476Y-89400295D01*
X61190476Y-89400295D02*
X61190476Y-89495533D01*
X61190476Y-89495533D02*
X61238095Y-89638390D01*
X61238095Y-89638390D02*
X61809523Y-90209819D01*
X61809523Y-90209819D02*
X61190476Y-90209819D01*
X60238095Y-90209819D02*
X60809523Y-90209819D01*
X60523809Y-90209819D02*
X60523809Y-89209819D01*
X60523809Y-89209819D02*
X60619047Y-89352676D01*
X60619047Y-89352676D02*
X60714285Y-89447914D01*
X60714285Y-89447914D02*
X60809523Y-89495533D01*
X80214285Y-44209819D02*
X80214285Y-43209819D01*
X79642857Y-44209819D02*
X80071428Y-43638390D01*
X79642857Y-43209819D02*
X80214285Y-43781247D01*
X79023809Y-43209819D02*
X78928571Y-43209819D01*
X78928571Y-43209819D02*
X78833333Y-43257438D01*
X78833333Y-43257438D02*
X78785714Y-43305057D01*
X78785714Y-43305057D02*
X78738095Y-43400295D01*
X78738095Y-43400295D02*
X78690476Y-43590771D01*
X78690476Y-43590771D02*
X78690476Y-43828866D01*
X78690476Y-43828866D02*
X78738095Y-44019342D01*
X78738095Y-44019342D02*
X78785714Y-44114580D01*
X78785714Y-44114580D02*
X78833333Y-44162200D01*
X78833333Y-44162200D02*
X78928571Y-44209819D01*
X78928571Y-44209819D02*
X79023809Y-44209819D01*
X79023809Y-44209819D02*
X79119047Y-44162200D01*
X79119047Y-44162200D02*
X79166666Y-44114580D01*
X79166666Y-44114580D02*
X79214285Y-44019342D01*
X79214285Y-44019342D02*
X79261904Y-43828866D01*
X79261904Y-43828866D02*
X79261904Y-43590771D01*
X79261904Y-43590771D02*
X79214285Y-43400295D01*
X79214285Y-43400295D02*
X79166666Y-43305057D01*
X79166666Y-43305057D02*
X79119047Y-43257438D01*
X79119047Y-43257438D02*
X79023809Y-43209819D01*
X78309523Y-43305057D02*
X78261904Y-43257438D01*
X78261904Y-43257438D02*
X78166666Y-43209819D01*
X78166666Y-43209819D02*
X77928571Y-43209819D01*
X77928571Y-43209819D02*
X77833333Y-43257438D01*
X77833333Y-43257438D02*
X77785714Y-43305057D01*
X77785714Y-43305057D02*
X77738095Y-43400295D01*
X77738095Y-43400295D02*
X77738095Y-43495533D01*
X77738095Y-43495533D02*
X77785714Y-43638390D01*
X77785714Y-43638390D02*
X78357142Y-44209819D01*
X78357142Y-44209819D02*
X77738095Y-44209819D01*
X45714285Y-56699819D02*
X45714285Y-55699819D01*
X45142857Y-56699819D02*
X45571428Y-56128390D01*
X45142857Y-55699819D02*
X45714285Y-56271247D01*
X44190476Y-56699819D02*
X44761904Y-56699819D01*
X44476190Y-56699819D02*
X44476190Y-55699819D01*
X44476190Y-55699819D02*
X44571428Y-55842676D01*
X44571428Y-55842676D02*
X44666666Y-55937914D01*
X44666666Y-55937914D02*
X44761904Y-55985533D01*
X43571428Y-55699819D02*
X43476190Y-55699819D01*
X43476190Y-55699819D02*
X43380952Y-55747438D01*
X43380952Y-55747438D02*
X43333333Y-55795057D01*
X43333333Y-55795057D02*
X43285714Y-55890295D01*
X43285714Y-55890295D02*
X43238095Y-56080771D01*
X43238095Y-56080771D02*
X43238095Y-56318866D01*
X43238095Y-56318866D02*
X43285714Y-56509342D01*
X43285714Y-56509342D02*
X43333333Y-56604580D01*
X43333333Y-56604580D02*
X43380952Y-56652200D01*
X43380952Y-56652200D02*
X43476190Y-56699819D01*
X43476190Y-56699819D02*
X43571428Y-56699819D01*
X43571428Y-56699819D02*
X43666666Y-56652200D01*
X43666666Y-56652200D02*
X43714285Y-56604580D01*
X43714285Y-56604580D02*
X43761904Y-56509342D01*
X43761904Y-56509342D02*
X43809523Y-56318866D01*
X43809523Y-56318866D02*
X43809523Y-56080771D01*
X43809523Y-56080771D02*
X43761904Y-55890295D01*
X43761904Y-55890295D02*
X43714285Y-55795057D01*
X43714285Y-55795057D02*
X43666666Y-55747438D01*
X43666666Y-55747438D02*
X43571428Y-55699819D01*
X116214285Y-44209819D02*
X116214285Y-43209819D01*
X115642857Y-44209819D02*
X116071428Y-43638390D01*
X115642857Y-43209819D02*
X116214285Y-43781247D01*
X115023809Y-43209819D02*
X114928571Y-43209819D01*
X114928571Y-43209819D02*
X114833333Y-43257438D01*
X114833333Y-43257438D02*
X114785714Y-43305057D01*
X114785714Y-43305057D02*
X114738095Y-43400295D01*
X114738095Y-43400295D02*
X114690476Y-43590771D01*
X114690476Y-43590771D02*
X114690476Y-43828866D01*
X114690476Y-43828866D02*
X114738095Y-44019342D01*
X114738095Y-44019342D02*
X114785714Y-44114580D01*
X114785714Y-44114580D02*
X114833333Y-44162200D01*
X114833333Y-44162200D02*
X114928571Y-44209819D01*
X114928571Y-44209819D02*
X115023809Y-44209819D01*
X115023809Y-44209819D02*
X115119047Y-44162200D01*
X115119047Y-44162200D02*
X115166666Y-44114580D01*
X115166666Y-44114580D02*
X115214285Y-44019342D01*
X115214285Y-44019342D02*
X115261904Y-43828866D01*
X115261904Y-43828866D02*
X115261904Y-43590771D01*
X115261904Y-43590771D02*
X115214285Y-43400295D01*
X115214285Y-43400295D02*
X115166666Y-43305057D01*
X115166666Y-43305057D02*
X115119047Y-43257438D01*
X115119047Y-43257438D02*
X115023809Y-43209819D01*
X113833333Y-43543152D02*
X113833333Y-44209819D01*
X114071428Y-43162200D02*
X114309523Y-43876485D01*
X114309523Y-43876485D02*
X113690476Y-43876485D01*
X80214285Y-61209819D02*
X80214285Y-60209819D01*
X79642857Y-61209819D02*
X80071428Y-60638390D01*
X79642857Y-60209819D02*
X80214285Y-60781247D01*
X78690476Y-61209819D02*
X79261904Y-61209819D01*
X78976190Y-61209819D02*
X78976190Y-60209819D01*
X78976190Y-60209819D02*
X79071428Y-60352676D01*
X79071428Y-60352676D02*
X79166666Y-60447914D01*
X79166666Y-60447914D02*
X79261904Y-60495533D01*
X78309523Y-60305057D02*
X78261904Y-60257438D01*
X78261904Y-60257438D02*
X78166666Y-60209819D01*
X78166666Y-60209819D02*
X77928571Y-60209819D01*
X77928571Y-60209819D02*
X77833333Y-60257438D01*
X77833333Y-60257438D02*
X77785714Y-60305057D01*
X77785714Y-60305057D02*
X77738095Y-60400295D01*
X77738095Y-60400295D02*
X77738095Y-60495533D01*
X77738095Y-60495533D02*
X77785714Y-60638390D01*
X77785714Y-60638390D02*
X78357142Y-61209819D01*
X78357142Y-61209819D02*
X77738095Y-61209819D01*
X111972581Y-99157999D02*
X111885425Y-98161804D01*
X111403327Y-99207802D02*
X111780464Y-98601196D01*
X111316171Y-98211607D02*
X111935228Y-98731058D01*
X110984106Y-98240659D02*
X110367414Y-98294613D01*
X110367414Y-98294613D02*
X110732681Y-98645064D01*
X110732681Y-98645064D02*
X110590367Y-98657515D01*
X110590367Y-98657515D02*
X110499642Y-98713253D01*
X110499642Y-98713253D02*
X110456354Y-98764841D01*
X110456354Y-98764841D02*
X110417217Y-98863867D01*
X110417217Y-98863867D02*
X110437969Y-99101056D01*
X110437969Y-99101056D02*
X110493707Y-99191782D01*
X110493707Y-99191782D02*
X110545295Y-99235069D01*
X110545295Y-99235069D02*
X110644321Y-99274207D01*
X110644321Y-99274207D02*
X110928948Y-99249305D01*
X110928948Y-99249305D02*
X111019674Y-99193566D01*
X111019674Y-99193566D02*
X111062961Y-99141978D01*
X109750722Y-98348566D02*
X109655846Y-98356867D01*
X109655846Y-98356867D02*
X109565121Y-98412605D01*
X109565121Y-98412605D02*
X109521833Y-98464194D01*
X109521833Y-98464194D02*
X109482696Y-98563219D01*
X109482696Y-98563219D02*
X109451859Y-98757121D01*
X109451859Y-98757121D02*
X109472611Y-98994310D01*
X109472611Y-98994310D02*
X109536650Y-99179911D01*
X109536650Y-99179911D02*
X109592388Y-99270637D01*
X109592388Y-99270637D02*
X109643976Y-99313924D01*
X109643976Y-99313924D02*
X109743002Y-99353062D01*
X109743002Y-99353062D02*
X109837878Y-99344761D01*
X109837878Y-99344761D02*
X109928603Y-99289023D01*
X109928603Y-99289023D02*
X109971891Y-99237435D01*
X109971891Y-99237435D02*
X110011028Y-99138409D01*
X110011028Y-99138409D02*
X110041865Y-98944507D01*
X110041865Y-98944507D02*
X110021113Y-98707318D01*
X110021113Y-98707318D02*
X109957074Y-98521717D01*
X109957074Y-98521717D02*
X109901336Y-98430991D01*
X109901336Y-98430991D02*
X109849748Y-98387704D01*
X109849748Y-98387704D02*
X109750722Y-98348566D01*
X62714285Y-56209819D02*
X62714285Y-55209819D01*
X62142857Y-56209819D02*
X62571428Y-55638390D01*
X62142857Y-55209819D02*
X62714285Y-55781247D01*
X61523809Y-55209819D02*
X61428571Y-55209819D01*
X61428571Y-55209819D02*
X61333333Y-55257438D01*
X61333333Y-55257438D02*
X61285714Y-55305057D01*
X61285714Y-55305057D02*
X61238095Y-55400295D01*
X61238095Y-55400295D02*
X61190476Y-55590771D01*
X61190476Y-55590771D02*
X61190476Y-55828866D01*
X61190476Y-55828866D02*
X61238095Y-56019342D01*
X61238095Y-56019342D02*
X61285714Y-56114580D01*
X61285714Y-56114580D02*
X61333333Y-56162200D01*
X61333333Y-56162200D02*
X61428571Y-56209819D01*
X61428571Y-56209819D02*
X61523809Y-56209819D01*
X61523809Y-56209819D02*
X61619047Y-56162200D01*
X61619047Y-56162200D02*
X61666666Y-56114580D01*
X61666666Y-56114580D02*
X61714285Y-56019342D01*
X61714285Y-56019342D02*
X61761904Y-55828866D01*
X61761904Y-55828866D02*
X61761904Y-55590771D01*
X61761904Y-55590771D02*
X61714285Y-55400295D01*
X61714285Y-55400295D02*
X61666666Y-55305057D01*
X61666666Y-55305057D02*
X61619047Y-55257438D01*
X61619047Y-55257438D02*
X61523809Y-55209819D01*
X60238095Y-56209819D02*
X60809523Y-56209819D01*
X60523809Y-56209819D02*
X60523809Y-55209819D01*
X60523809Y-55209819D02*
X60619047Y-55352676D01*
X60619047Y-55352676D02*
X60714285Y-55447914D01*
X60714285Y-55447914D02*
X60809523Y-55495533D01*
X116214285Y-61209819D02*
X116214285Y-60209819D01*
X115642857Y-61209819D02*
X116071428Y-60638390D01*
X115642857Y-60209819D02*
X116214285Y-60781247D01*
X114690476Y-61209819D02*
X115261904Y-61209819D01*
X114976190Y-61209819D02*
X114976190Y-60209819D01*
X114976190Y-60209819D02*
X115071428Y-60352676D01*
X115071428Y-60352676D02*
X115166666Y-60447914D01*
X115166666Y-60447914D02*
X115261904Y-60495533D01*
X113833333Y-60543152D02*
X113833333Y-61209819D01*
X114071428Y-60162200D02*
X114309523Y-60876485D01*
X114309523Y-60876485D02*
X113690476Y-60876485D01*
X98214285Y-73209819D02*
X98214285Y-72209819D01*
X97642857Y-73209819D02*
X98071428Y-72638390D01*
X97642857Y-72209819D02*
X98214285Y-72781247D01*
X97261904Y-72305057D02*
X97214285Y-72257438D01*
X97214285Y-72257438D02*
X97119047Y-72209819D01*
X97119047Y-72209819D02*
X96880952Y-72209819D01*
X96880952Y-72209819D02*
X96785714Y-72257438D01*
X96785714Y-72257438D02*
X96738095Y-72305057D01*
X96738095Y-72305057D02*
X96690476Y-72400295D01*
X96690476Y-72400295D02*
X96690476Y-72495533D01*
X96690476Y-72495533D02*
X96738095Y-72638390D01*
X96738095Y-72638390D02*
X97309523Y-73209819D01*
X97309523Y-73209819D02*
X96690476Y-73209819D01*
X96357142Y-72209819D02*
X95738095Y-72209819D01*
X95738095Y-72209819D02*
X96071428Y-72590771D01*
X96071428Y-72590771D02*
X95928571Y-72590771D01*
X95928571Y-72590771D02*
X95833333Y-72638390D01*
X95833333Y-72638390D02*
X95785714Y-72686009D01*
X95785714Y-72686009D02*
X95738095Y-72781247D01*
X95738095Y-72781247D02*
X95738095Y-73019342D01*
X95738095Y-73019342D02*
X95785714Y-73114580D01*
X95785714Y-73114580D02*
X95833333Y-73162200D01*
X95833333Y-73162200D02*
X95928571Y-73209819D01*
X95928571Y-73209819D02*
X96214285Y-73209819D01*
X96214285Y-73209819D02*
X96309523Y-73162200D01*
X96309523Y-73162200D02*
X96357142Y-73114580D01*
X98214285Y-39209819D02*
X98214285Y-38209819D01*
X97642857Y-39209819D02*
X98071428Y-38638390D01*
X97642857Y-38209819D02*
X98214285Y-38781247D01*
X97023809Y-38209819D02*
X96928571Y-38209819D01*
X96928571Y-38209819D02*
X96833333Y-38257438D01*
X96833333Y-38257438D02*
X96785714Y-38305057D01*
X96785714Y-38305057D02*
X96738095Y-38400295D01*
X96738095Y-38400295D02*
X96690476Y-38590771D01*
X96690476Y-38590771D02*
X96690476Y-38828866D01*
X96690476Y-38828866D02*
X96738095Y-39019342D01*
X96738095Y-39019342D02*
X96785714Y-39114580D01*
X96785714Y-39114580D02*
X96833333Y-39162200D01*
X96833333Y-39162200D02*
X96928571Y-39209819D01*
X96928571Y-39209819D02*
X97023809Y-39209819D01*
X97023809Y-39209819D02*
X97119047Y-39162200D01*
X97119047Y-39162200D02*
X97166666Y-39114580D01*
X97166666Y-39114580D02*
X97214285Y-39019342D01*
X97214285Y-39019342D02*
X97261904Y-38828866D01*
X97261904Y-38828866D02*
X97261904Y-38590771D01*
X97261904Y-38590771D02*
X97214285Y-38400295D01*
X97214285Y-38400295D02*
X97166666Y-38305057D01*
X97166666Y-38305057D02*
X97119047Y-38257438D01*
X97119047Y-38257438D02*
X97023809Y-38209819D01*
X96357142Y-38209819D02*
X95738095Y-38209819D01*
X95738095Y-38209819D02*
X96071428Y-38590771D01*
X96071428Y-38590771D02*
X95928571Y-38590771D01*
X95928571Y-38590771D02*
X95833333Y-38638390D01*
X95833333Y-38638390D02*
X95785714Y-38686009D01*
X95785714Y-38686009D02*
X95738095Y-38781247D01*
X95738095Y-38781247D02*
X95738095Y-39019342D01*
X95738095Y-39019342D02*
X95785714Y-39114580D01*
X95785714Y-39114580D02*
X95833333Y-39162200D01*
X95833333Y-39162200D02*
X95928571Y-39209819D01*
X95928571Y-39209819D02*
X96214285Y-39209819D01*
X96214285Y-39209819D02*
X96309523Y-39162200D01*
X96309523Y-39162200D02*
X96357142Y-39114580D01*
X80214285Y-78209819D02*
X80214285Y-77209819D01*
X79642857Y-78209819D02*
X80071428Y-77638390D01*
X79642857Y-77209819D02*
X80214285Y-77781247D01*
X79261904Y-77305057D02*
X79214285Y-77257438D01*
X79214285Y-77257438D02*
X79119047Y-77209819D01*
X79119047Y-77209819D02*
X78880952Y-77209819D01*
X78880952Y-77209819D02*
X78785714Y-77257438D01*
X78785714Y-77257438D02*
X78738095Y-77305057D01*
X78738095Y-77305057D02*
X78690476Y-77400295D01*
X78690476Y-77400295D02*
X78690476Y-77495533D01*
X78690476Y-77495533D02*
X78738095Y-77638390D01*
X78738095Y-77638390D02*
X79309523Y-78209819D01*
X79309523Y-78209819D02*
X78690476Y-78209819D01*
X78309523Y-77305057D02*
X78261904Y-77257438D01*
X78261904Y-77257438D02*
X78166666Y-77209819D01*
X78166666Y-77209819D02*
X77928571Y-77209819D01*
X77928571Y-77209819D02*
X77833333Y-77257438D01*
X77833333Y-77257438D02*
X77785714Y-77305057D01*
X77785714Y-77305057D02*
X77738095Y-77400295D01*
X77738095Y-77400295D02*
X77738095Y-77495533D01*
X77738095Y-77495533D02*
X77785714Y-77638390D01*
X77785714Y-77638390D02*
X78357142Y-78209819D01*
X78357142Y-78209819D02*
X77738095Y-78209819D01*
X134214285Y-63209819D02*
X134214285Y-62209819D01*
X133642857Y-63209819D02*
X134071428Y-62638390D01*
X133642857Y-62209819D02*
X134214285Y-62781247D01*
X132690476Y-63209819D02*
X133261904Y-63209819D01*
X132976190Y-63209819D02*
X132976190Y-62209819D01*
X132976190Y-62209819D02*
X133071428Y-62352676D01*
X133071428Y-62352676D02*
X133166666Y-62447914D01*
X133166666Y-62447914D02*
X133261904Y-62495533D01*
X131785714Y-62209819D02*
X132261904Y-62209819D01*
X132261904Y-62209819D02*
X132309523Y-62686009D01*
X132309523Y-62686009D02*
X132261904Y-62638390D01*
X132261904Y-62638390D02*
X132166666Y-62590771D01*
X132166666Y-62590771D02*
X131928571Y-62590771D01*
X131928571Y-62590771D02*
X131833333Y-62638390D01*
X131833333Y-62638390D02*
X131785714Y-62686009D01*
X131785714Y-62686009D02*
X131738095Y-62781247D01*
X131738095Y-62781247D02*
X131738095Y-63019342D01*
X131738095Y-63019342D02*
X131785714Y-63114580D01*
X131785714Y-63114580D02*
X131833333Y-63162200D01*
X131833333Y-63162200D02*
X131928571Y-63209819D01*
X131928571Y-63209819D02*
X132166666Y-63209819D01*
X132166666Y-63209819D02*
X132261904Y-63162200D01*
X132261904Y-63162200D02*
X132309523Y-63114580D01*
X150513279Y-106484338D02*
X150935898Y-105578030D01*
X149995389Y-106242842D02*
X150625303Y-105906074D01*
X150418007Y-105336534D02*
X150694401Y-106095920D01*
X150115905Y-105195661D02*
X149554857Y-104934040D01*
X149554857Y-104934040D02*
X149695962Y-105420173D01*
X149695962Y-105420173D02*
X149566490Y-105359799D01*
X149566490Y-105359799D02*
X149460050Y-105362707D01*
X149460050Y-105362707D02*
X149396768Y-105385740D01*
X149396768Y-105385740D02*
X149313361Y-105451931D01*
X149313361Y-105451931D02*
X149212738Y-105667718D01*
X149212738Y-105667718D02*
X149215646Y-105774158D01*
X149215646Y-105774158D02*
X149238679Y-105837440D01*
X149238679Y-105837440D02*
X149304869Y-105920847D01*
X149304869Y-105920847D02*
X149563814Y-106041595D01*
X149563814Y-106041595D02*
X149670254Y-106038687D01*
X149670254Y-106038687D02*
X149733536Y-106015654D01*
X149169348Y-104859358D02*
X149146315Y-104796076D01*
X149146315Y-104796076D02*
X149080124Y-104712669D01*
X149080124Y-104712669D02*
X148864337Y-104612045D01*
X148864337Y-104612045D02*
X148757897Y-104614954D01*
X148757897Y-104614954D02*
X148694615Y-104637986D01*
X148694615Y-104637986D02*
X148611208Y-104704177D01*
X148611208Y-104704177D02*
X148570959Y-104790492D01*
X148570959Y-104790492D02*
X148553742Y-104940089D01*
X148553742Y-104940089D02*
X148830136Y-105699475D01*
X148830136Y-105699475D02*
X148269089Y-105437855D01*
X62714285Y-73209819D02*
X62714285Y-72209819D01*
X62142857Y-73209819D02*
X62571428Y-72638390D01*
X62142857Y-72209819D02*
X62714285Y-72781247D01*
X61190476Y-73209819D02*
X61761904Y-73209819D01*
X61476190Y-73209819D02*
X61476190Y-72209819D01*
X61476190Y-72209819D02*
X61571428Y-72352676D01*
X61571428Y-72352676D02*
X61666666Y-72447914D01*
X61666666Y-72447914D02*
X61761904Y-72495533D01*
X60238095Y-73209819D02*
X60809523Y-73209819D01*
X60523809Y-73209819D02*
X60523809Y-72209819D01*
X60523809Y-72209819D02*
X60619047Y-72352676D01*
X60619047Y-72352676D02*
X60714285Y-72447914D01*
X60714285Y-72447914D02*
X60809523Y-72495533D01*
X134214285Y-46209819D02*
X134214285Y-45209819D01*
X133642857Y-46209819D02*
X134071428Y-45638390D01*
X133642857Y-45209819D02*
X134214285Y-45781247D01*
X133023809Y-45209819D02*
X132928571Y-45209819D01*
X132928571Y-45209819D02*
X132833333Y-45257438D01*
X132833333Y-45257438D02*
X132785714Y-45305057D01*
X132785714Y-45305057D02*
X132738095Y-45400295D01*
X132738095Y-45400295D02*
X132690476Y-45590771D01*
X132690476Y-45590771D02*
X132690476Y-45828866D01*
X132690476Y-45828866D02*
X132738095Y-46019342D01*
X132738095Y-46019342D02*
X132785714Y-46114580D01*
X132785714Y-46114580D02*
X132833333Y-46162200D01*
X132833333Y-46162200D02*
X132928571Y-46209819D01*
X132928571Y-46209819D02*
X133023809Y-46209819D01*
X133023809Y-46209819D02*
X133119047Y-46162200D01*
X133119047Y-46162200D02*
X133166666Y-46114580D01*
X133166666Y-46114580D02*
X133214285Y-46019342D01*
X133214285Y-46019342D02*
X133261904Y-45828866D01*
X133261904Y-45828866D02*
X133261904Y-45590771D01*
X133261904Y-45590771D02*
X133214285Y-45400295D01*
X133214285Y-45400295D02*
X133166666Y-45305057D01*
X133166666Y-45305057D02*
X133119047Y-45257438D01*
X133119047Y-45257438D02*
X133023809Y-45209819D01*
X131785714Y-45209819D02*
X132261904Y-45209819D01*
X132261904Y-45209819D02*
X132309523Y-45686009D01*
X132309523Y-45686009D02*
X132261904Y-45638390D01*
X132261904Y-45638390D02*
X132166666Y-45590771D01*
X132166666Y-45590771D02*
X131928571Y-45590771D01*
X131928571Y-45590771D02*
X131833333Y-45638390D01*
X131833333Y-45638390D02*
X131785714Y-45686009D01*
X131785714Y-45686009D02*
X131738095Y-45781247D01*
X131738095Y-45781247D02*
X131738095Y-46019342D01*
X131738095Y-46019342D02*
X131785714Y-46114580D01*
X131785714Y-46114580D02*
X131833333Y-46162200D01*
X131833333Y-46162200D02*
X131928571Y-46209819D01*
X131928571Y-46209819D02*
X132166666Y-46209819D01*
X132166666Y-46209819D02*
X132261904Y-46162200D01*
X132261904Y-46162200D02*
X132309523Y-46114580D01*
X45714285Y-73699819D02*
X45714285Y-72699819D01*
X45142857Y-73699819D02*
X45571428Y-73128390D01*
X45142857Y-72699819D02*
X45714285Y-73271247D01*
X44761904Y-72795057D02*
X44714285Y-72747438D01*
X44714285Y-72747438D02*
X44619047Y-72699819D01*
X44619047Y-72699819D02*
X44380952Y-72699819D01*
X44380952Y-72699819D02*
X44285714Y-72747438D01*
X44285714Y-72747438D02*
X44238095Y-72795057D01*
X44238095Y-72795057D02*
X44190476Y-72890295D01*
X44190476Y-72890295D02*
X44190476Y-72985533D01*
X44190476Y-72985533D02*
X44238095Y-73128390D01*
X44238095Y-73128390D02*
X44809523Y-73699819D01*
X44809523Y-73699819D02*
X44190476Y-73699819D01*
X43571428Y-72699819D02*
X43476190Y-72699819D01*
X43476190Y-72699819D02*
X43380952Y-72747438D01*
X43380952Y-72747438D02*
X43333333Y-72795057D01*
X43333333Y-72795057D02*
X43285714Y-72890295D01*
X43285714Y-72890295D02*
X43238095Y-73080771D01*
X43238095Y-73080771D02*
X43238095Y-73318866D01*
X43238095Y-73318866D02*
X43285714Y-73509342D01*
X43285714Y-73509342D02*
X43333333Y-73604580D01*
X43333333Y-73604580D02*
X43380952Y-73652200D01*
X43380952Y-73652200D02*
X43476190Y-73699819D01*
X43476190Y-73699819D02*
X43571428Y-73699819D01*
X43571428Y-73699819D02*
X43666666Y-73652200D01*
X43666666Y-73652200D02*
X43714285Y-73604580D01*
X43714285Y-73604580D02*
X43761904Y-73509342D01*
X43761904Y-73509342D02*
X43809523Y-73318866D01*
X43809523Y-73318866D02*
X43809523Y-73080771D01*
X43809523Y-73080771D02*
X43761904Y-72890295D01*
X43761904Y-72890295D02*
X43714285Y-72795057D01*
X43714285Y-72795057D02*
X43666666Y-72747438D01*
X43666666Y-72747438D02*
X43571428Y-72699819D01*
X98214285Y-56209819D02*
X98214285Y-55209819D01*
X97642857Y-56209819D02*
X98071428Y-55638390D01*
X97642857Y-55209819D02*
X98214285Y-55781247D01*
X96690476Y-56209819D02*
X97261904Y-56209819D01*
X96976190Y-56209819D02*
X96976190Y-55209819D01*
X96976190Y-55209819D02*
X97071428Y-55352676D01*
X97071428Y-55352676D02*
X97166666Y-55447914D01*
X97166666Y-55447914D02*
X97261904Y-55495533D01*
X96357142Y-55209819D02*
X95738095Y-55209819D01*
X95738095Y-55209819D02*
X96071428Y-55590771D01*
X96071428Y-55590771D02*
X95928571Y-55590771D01*
X95928571Y-55590771D02*
X95833333Y-55638390D01*
X95833333Y-55638390D02*
X95785714Y-55686009D01*
X95785714Y-55686009D02*
X95738095Y-55781247D01*
X95738095Y-55781247D02*
X95738095Y-56019342D01*
X95738095Y-56019342D02*
X95785714Y-56114580D01*
X95785714Y-56114580D02*
X95833333Y-56162200D01*
X95833333Y-56162200D02*
X95928571Y-56209819D01*
X95928571Y-56209819D02*
X96214285Y-56209819D01*
X96214285Y-56209819D02*
X96309523Y-56162200D01*
X96309523Y-56162200D02*
X96357142Y-56114580D01*
X45714285Y-39699819D02*
X45714285Y-38699819D01*
X45142857Y-39699819D02*
X45571428Y-39128390D01*
X45142857Y-38699819D02*
X45714285Y-39271247D01*
X44523809Y-38699819D02*
X44428571Y-38699819D01*
X44428571Y-38699819D02*
X44333333Y-38747438D01*
X44333333Y-38747438D02*
X44285714Y-38795057D01*
X44285714Y-38795057D02*
X44238095Y-38890295D01*
X44238095Y-38890295D02*
X44190476Y-39080771D01*
X44190476Y-39080771D02*
X44190476Y-39318866D01*
X44190476Y-39318866D02*
X44238095Y-39509342D01*
X44238095Y-39509342D02*
X44285714Y-39604580D01*
X44285714Y-39604580D02*
X44333333Y-39652200D01*
X44333333Y-39652200D02*
X44428571Y-39699819D01*
X44428571Y-39699819D02*
X44523809Y-39699819D01*
X44523809Y-39699819D02*
X44619047Y-39652200D01*
X44619047Y-39652200D02*
X44666666Y-39604580D01*
X44666666Y-39604580D02*
X44714285Y-39509342D01*
X44714285Y-39509342D02*
X44761904Y-39318866D01*
X44761904Y-39318866D02*
X44761904Y-39080771D01*
X44761904Y-39080771D02*
X44714285Y-38890295D01*
X44714285Y-38890295D02*
X44666666Y-38795057D01*
X44666666Y-38795057D02*
X44619047Y-38747438D01*
X44619047Y-38747438D02*
X44523809Y-38699819D01*
X43571428Y-38699819D02*
X43476190Y-38699819D01*
X43476190Y-38699819D02*
X43380952Y-38747438D01*
X43380952Y-38747438D02*
X43333333Y-38795057D01*
X43333333Y-38795057D02*
X43285714Y-38890295D01*
X43285714Y-38890295D02*
X43238095Y-39080771D01*
X43238095Y-39080771D02*
X43238095Y-39318866D01*
X43238095Y-39318866D02*
X43285714Y-39509342D01*
X43285714Y-39509342D02*
X43333333Y-39604580D01*
X43333333Y-39604580D02*
X43380952Y-39652200D01*
X43380952Y-39652200D02*
X43476190Y-39699819D01*
X43476190Y-39699819D02*
X43571428Y-39699819D01*
X43571428Y-39699819D02*
X43666666Y-39652200D01*
X43666666Y-39652200D02*
X43714285Y-39604580D01*
X43714285Y-39604580D02*
X43761904Y-39509342D01*
X43761904Y-39509342D02*
X43809523Y-39318866D01*
X43809523Y-39318866D02*
X43809523Y-39080771D01*
X43809523Y-39080771D02*
X43761904Y-38890295D01*
X43761904Y-38890295D02*
X43714285Y-38795057D01*
X43714285Y-38795057D02*
X43666666Y-38747438D01*
X43666666Y-38747438D02*
X43571428Y-38699819D01*
X131698586Y-100114707D02*
X131872234Y-99129900D01*
X131135839Y-100015480D02*
X131657127Y-99527153D01*
X131309487Y-99030672D02*
X131773007Y-99692647D01*
X130981218Y-98972789D02*
X130371575Y-98865293D01*
X130371575Y-98865293D02*
X130633692Y-99298340D01*
X130633692Y-99298340D02*
X130493006Y-99273534D01*
X130493006Y-99273534D02*
X130390945Y-99303891D01*
X130390945Y-99303891D02*
X130335781Y-99342518D01*
X130335781Y-99342518D02*
X130272347Y-99428040D01*
X130272347Y-99428040D02*
X130231002Y-99662518D01*
X130231002Y-99662518D02*
X130261360Y-99764578D01*
X130261360Y-99764578D02*
X130299987Y-99819743D01*
X130299987Y-99819743D02*
X130385509Y-99883176D01*
X130385509Y-99883176D02*
X130666883Y-99932790D01*
X130666883Y-99932790D02*
X130768943Y-99902433D01*
X130768943Y-99902433D02*
X130824107Y-99863806D01*
X129260014Y-99684721D02*
X129822762Y-99783949D01*
X129541388Y-99734335D02*
X129715036Y-98749527D01*
X129715036Y-98749527D02*
X129784021Y-98906752D01*
X129784021Y-98906752D02*
X129861274Y-99017081D01*
X129861274Y-99017081D02*
X129946796Y-99080515D01*
X166153066Y-42064419D02*
X166486399Y-41588228D01*
X166724494Y-42064419D02*
X166724494Y-41064419D01*
X166724494Y-41064419D02*
X166343542Y-41064419D01*
X166343542Y-41064419D02*
X166248304Y-41112038D01*
X166248304Y-41112038D02*
X166200685Y-41159657D01*
X166200685Y-41159657D02*
X166153066Y-41254895D01*
X166153066Y-41254895D02*
X166153066Y-41397752D01*
X166153066Y-41397752D02*
X166200685Y-41492990D01*
X166200685Y-41492990D02*
X166248304Y-41540609D01*
X166248304Y-41540609D02*
X166343542Y-41588228D01*
X166343542Y-41588228D02*
X166724494Y-41588228D01*
X165772113Y-41159657D02*
X165724494Y-41112038D01*
X165724494Y-41112038D02*
X165629256Y-41064419D01*
X165629256Y-41064419D02*
X165391161Y-41064419D01*
X165391161Y-41064419D02*
X165295923Y-41112038D01*
X165295923Y-41112038D02*
X165248304Y-41159657D01*
X165248304Y-41159657D02*
X165200685Y-41254895D01*
X165200685Y-41254895D02*
X165200685Y-41350133D01*
X165200685Y-41350133D02*
X165248304Y-41492990D01*
X165248304Y-41492990D02*
X165819732Y-42064419D01*
X165819732Y-42064419D02*
X165200685Y-42064419D01*
X159012438Y-42064419D02*
X159583866Y-42064419D01*
X159298152Y-42064419D02*
X159298152Y-41064419D01*
X159298152Y-41064419D02*
X159393390Y-41207276D01*
X159393390Y-41207276D02*
X159488628Y-41302514D01*
X159488628Y-41302514D02*
X159583866Y-41350133D01*
X158393390Y-41064419D02*
X158298152Y-41064419D01*
X158298152Y-41064419D02*
X158202914Y-41112038D01*
X158202914Y-41112038D02*
X158155295Y-41159657D01*
X158155295Y-41159657D02*
X158107676Y-41254895D01*
X158107676Y-41254895D02*
X158060057Y-41445371D01*
X158060057Y-41445371D02*
X158060057Y-41683466D01*
X158060057Y-41683466D02*
X158107676Y-41873942D01*
X158107676Y-41873942D02*
X158155295Y-41969180D01*
X158155295Y-41969180D02*
X158202914Y-42016800D01*
X158202914Y-42016800D02*
X158298152Y-42064419D01*
X158298152Y-42064419D02*
X158393390Y-42064419D01*
X158393390Y-42064419D02*
X158488628Y-42016800D01*
X158488628Y-42016800D02*
X158536247Y-41969180D01*
X158536247Y-41969180D02*
X158583866Y-41873942D01*
X158583866Y-41873942D02*
X158631485Y-41683466D01*
X158631485Y-41683466D02*
X158631485Y-41445371D01*
X158631485Y-41445371D02*
X158583866Y-41254895D01*
X158583866Y-41254895D02*
X158536247Y-41159657D01*
X158536247Y-41159657D02*
X158488628Y-41112038D01*
X158488628Y-41112038D02*
X158393390Y-41064419D01*
X157631485Y-42064419D02*
X157631485Y-41064419D01*
X157536247Y-41683466D02*
X157250533Y-42064419D01*
X157250533Y-41397752D02*
X157631485Y-41778704D01*
X166153066Y-38406819D02*
X166486399Y-37930628D01*
X166724494Y-38406819D02*
X166724494Y-37406819D01*
X166724494Y-37406819D02*
X166343542Y-37406819D01*
X166343542Y-37406819D02*
X166248304Y-37454438D01*
X166248304Y-37454438D02*
X166200685Y-37502057D01*
X166200685Y-37502057D02*
X166153066Y-37597295D01*
X166153066Y-37597295D02*
X166153066Y-37740152D01*
X166153066Y-37740152D02*
X166200685Y-37835390D01*
X166200685Y-37835390D02*
X166248304Y-37883009D01*
X166248304Y-37883009D02*
X166343542Y-37930628D01*
X166343542Y-37930628D02*
X166724494Y-37930628D01*
X165200685Y-38406819D02*
X165772113Y-38406819D01*
X165486399Y-38406819D02*
X165486399Y-37406819D01*
X165486399Y-37406819D02*
X165581637Y-37549676D01*
X165581637Y-37549676D02*
X165676875Y-37644914D01*
X165676875Y-37644914D02*
X165772113Y-37692533D01*
X159009257Y-37406819D02*
X159485447Y-37406819D01*
X159485447Y-37406819D02*
X159533066Y-37883009D01*
X159533066Y-37883009D02*
X159485447Y-37835390D01*
X159485447Y-37835390D02*
X159390209Y-37787771D01*
X159390209Y-37787771D02*
X159152114Y-37787771D01*
X159152114Y-37787771D02*
X159056876Y-37835390D01*
X159056876Y-37835390D02*
X159009257Y-37883009D01*
X159009257Y-37883009D02*
X158961638Y-37978247D01*
X158961638Y-37978247D02*
X158961638Y-38216342D01*
X158961638Y-38216342D02*
X159009257Y-38311580D01*
X159009257Y-38311580D02*
X159056876Y-38359200D01*
X159056876Y-38359200D02*
X159152114Y-38406819D01*
X159152114Y-38406819D02*
X159390209Y-38406819D01*
X159390209Y-38406819D02*
X159485447Y-38359200D01*
X159485447Y-38359200D02*
X159533066Y-38311580D01*
X158533066Y-38406819D02*
X158533066Y-37406819D01*
X158437828Y-38025866D02*
X158152114Y-38406819D01*
X158152114Y-37740152D02*
X158533066Y-38121104D01*
X157294971Y-37406819D02*
X157485447Y-37406819D01*
X157485447Y-37406819D02*
X157580685Y-37454438D01*
X157580685Y-37454438D02*
X157628304Y-37502057D01*
X157628304Y-37502057D02*
X157723542Y-37644914D01*
X157723542Y-37644914D02*
X157771161Y-37835390D01*
X157771161Y-37835390D02*
X157771161Y-38216342D01*
X157771161Y-38216342D02*
X157723542Y-38311580D01*
X157723542Y-38311580D02*
X157675923Y-38359200D01*
X157675923Y-38359200D02*
X157580685Y-38406819D01*
X157580685Y-38406819D02*
X157390209Y-38406819D01*
X157390209Y-38406819D02*
X157294971Y-38359200D01*
X157294971Y-38359200D02*
X157247352Y-38311580D01*
X157247352Y-38311580D02*
X157199733Y-38216342D01*
X157199733Y-38216342D02*
X157199733Y-37978247D01*
X157199733Y-37978247D02*
X157247352Y-37883009D01*
X157247352Y-37883009D02*
X157294971Y-37835390D01*
X157294971Y-37835390D02*
X157390209Y-37787771D01*
X157390209Y-37787771D02*
X157580685Y-37787771D01*
X157580685Y-37787771D02*
X157675923Y-37835390D01*
X157675923Y-37835390D02*
X157723542Y-37883009D01*
X157723542Y-37883009D02*
X157771161Y-37978247D01*
D11*
%TO.C,R1*%
X161263336Y-135331200D02*
X162717464Y-135331200D01*
X161263336Y-137151200D02*
X162717464Y-137151200D01*
%TO.C,R2*%
X162717464Y-139039600D02*
X161263336Y-139039600D01*
X162717464Y-140859600D02*
X161263336Y-140859600D01*
D10*
%TO.C,K31*%
X125359436Y-195663101D02*
X125425596Y-195287889D01*
X125954876Y-192286195D02*
X126131302Y-191285631D01*
X126131302Y-191285631D02*
X131134126Y-192167764D01*
X133891651Y-190719602D02*
X135592255Y-191019464D01*
X134114377Y-197206835D02*
X125359436Y-195663101D01*
X137056855Y-195146488D02*
X137123015Y-194771276D01*
X137343243Y-191328211D02*
X137718455Y-191394371D01*
X137652295Y-191769582D02*
X137718455Y-191394371D01*
X133894944Y-190700930D02*
G75*
G02*
X131134126Y-192167765I-2319752J1034577D01*
G01*
X137056855Y-195146488D02*
G75*
G02*
X134114377Y-197206833I-2501411J441066D01*
G01*
%TO.C,K00*%
X37710000Y-141395000D02*
X37710000Y-141776000D01*
X37710000Y-144824000D02*
X37710000Y-145205000D01*
X38091000Y-145205000D02*
X37710000Y-145205000D01*
X40250000Y-138855000D02*
X49140000Y-138855000D01*
X41595838Y-145205000D02*
X39869000Y-145205000D01*
X49140000Y-138855000D02*
X49140000Y-139236000D01*
X49140000Y-142284000D02*
X49140000Y-143300000D01*
X49140000Y-143300000D02*
X44060000Y-143300000D01*
X37710000Y-141395000D02*
G75*
G02*
X40250000Y-138855000I2540000J0D01*
G01*
X41595838Y-145223960D02*
G75*
G02*
X44060000Y-143299999I2464162J-616039D01*
G01*
%TO.C,K13*%
X91480000Y-148380000D02*
X96560000Y-148380000D01*
X91480000Y-149396000D02*
X91480000Y-148380000D01*
X91480000Y-152825000D02*
X91480000Y-152444000D01*
X99024162Y-146475000D02*
X100751000Y-146475000D01*
X100370000Y-152825000D02*
X91480000Y-152825000D01*
X102529000Y-146475000D02*
X102910000Y-146475000D01*
X102910000Y-146856000D02*
X102910000Y-146475000D01*
X102910000Y-150285000D02*
X102910000Y-149904000D01*
X99024162Y-146456040D02*
G75*
G02*
X96560000Y-148380001I-2464162J616039D01*
G01*
X102910000Y-150285000D02*
G75*
G02*
X100370000Y-152825000I-2540000J0D01*
G01*
%TO.C,K20*%
X37710000Y-175395000D02*
X37710000Y-175776000D01*
X37710000Y-178824000D02*
X37710000Y-179205000D01*
X38091000Y-179205000D02*
X37710000Y-179205000D01*
X40250000Y-172855000D02*
X49140000Y-172855000D01*
X41595838Y-179205000D02*
X39869000Y-179205000D01*
X49140000Y-172855000D02*
X49140000Y-173236000D01*
X49140000Y-176284000D02*
X49140000Y-177300000D01*
X49140000Y-177300000D02*
X44060000Y-177300000D01*
X37710000Y-175395000D02*
G75*
G02*
X40250000Y-172855000I2540000J0D01*
G01*
X41595838Y-179223960D02*
G75*
G02*
X44060000Y-177299999I2464162J-616039D01*
G01*
%TO.C,K05*%
X127480000Y-138380000D02*
X132560000Y-138380000D01*
X127480000Y-139396000D02*
X127480000Y-138380000D01*
X127480000Y-142825000D02*
X127480000Y-142444000D01*
X135024162Y-136475000D02*
X136751000Y-136475000D01*
X136370000Y-142825000D02*
X127480000Y-142825000D01*
X138529000Y-136475000D02*
X138910000Y-136475000D01*
X138910000Y-136856000D02*
X138910000Y-136475000D01*
X138910000Y-140285000D02*
X138910000Y-139904000D01*
X135024162Y-136456040D02*
G75*
G02*
X132560000Y-138380001I-2464162J616039D01*
G01*
X138910000Y-140285000D02*
G75*
G02*
X136370000Y-142825000I-2540000J0D01*
G01*
%TO.C,K11*%
X55980000Y-165380000D02*
X61060000Y-165380000D01*
X55980000Y-166396000D02*
X55980000Y-165380000D01*
X55980000Y-169825000D02*
X55980000Y-169444000D01*
X63524162Y-163475000D02*
X65251000Y-163475000D01*
X64870000Y-169825000D02*
X55980000Y-169825000D01*
X67029000Y-163475000D02*
X67410000Y-163475000D01*
X67410000Y-163856000D02*
X67410000Y-163475000D01*
X67410000Y-167285000D02*
X67410000Y-166904000D01*
X63524162Y-163456040D02*
G75*
G02*
X61060000Y-165380001I-2464162J616039D01*
G01*
X67410000Y-167285000D02*
G75*
G02*
X64870000Y-169825000I-2540000J0D01*
G01*
%TO.C,K32*%
X145097660Y-200601041D02*
X145258678Y-200255738D01*
X146546818Y-197493311D02*
X146976198Y-196572503D01*
X146976198Y-196572503D02*
X151580242Y-198719404D01*
X153154736Y-204358117D02*
X145097660Y-200601041D01*
X154618619Y-198034287D02*
X156183666Y-198764080D01*
X156530208Y-203129546D02*
X156691226Y-202784243D01*
X157795081Y-199515496D02*
X158140384Y-199676513D01*
X157979367Y-200021816D02*
X158140384Y-199676513D01*
X154626632Y-198017103D02*
G75*
G02*
X151580242Y-198719403I-1972937J1599710D01*
G01*
X156530208Y-203129546D02*
G75*
G02*
X153154736Y-204358117I-2302022J1073453D01*
G01*
%TO.C,K15*%
X127480000Y-155380000D02*
X132560000Y-155380000D01*
X127480000Y-156396000D02*
X127480000Y-155380000D01*
X127480000Y-159825000D02*
X127480000Y-159444000D01*
X135024162Y-153475000D02*
X136751000Y-153475000D01*
X136370000Y-159825000D02*
X127480000Y-159825000D01*
X138529000Y-153475000D02*
X138910000Y-153475000D01*
X138910000Y-153856000D02*
X138910000Y-153475000D01*
X138910000Y-157285000D02*
X138910000Y-156904000D01*
X135024162Y-153456040D02*
G75*
G02*
X132560000Y-155380001I-2464162J616039D01*
G01*
X138910000Y-157285000D02*
G75*
G02*
X136370000Y-159825000I-2540000J0D01*
G01*
%TO.C,K22*%
X73480000Y-170380000D02*
X78560000Y-170380000D01*
X73480000Y-171396000D02*
X73480000Y-170380000D01*
X73480000Y-174825000D02*
X73480000Y-174444000D01*
X81024162Y-168475000D02*
X82751000Y-168475000D01*
X82370000Y-174825000D02*
X73480000Y-174825000D01*
X84529000Y-168475000D02*
X84910000Y-168475000D01*
X84910000Y-168856000D02*
X84910000Y-168475000D01*
X84910000Y-172285000D02*
X84910000Y-171904000D01*
X81024162Y-168456040D02*
G75*
G02*
X78560000Y-170380001I-2464162J616039D01*
G01*
X84910000Y-172285000D02*
G75*
G02*
X82370000Y-174825000I-2540000J0D01*
G01*
%TO.C,K03*%
X91480000Y-131380000D02*
X96560000Y-131380000D01*
X91480000Y-132396000D02*
X91480000Y-131380000D01*
X91480000Y-135825000D02*
X91480000Y-135444000D01*
X99024162Y-129475000D02*
X100751000Y-129475000D01*
X100370000Y-135825000D02*
X91480000Y-135825000D01*
X102529000Y-129475000D02*
X102910000Y-129475000D01*
X102910000Y-129856000D02*
X102910000Y-129475000D01*
X102910000Y-133285000D02*
X102910000Y-132904000D01*
X99024162Y-129456040D02*
G75*
G02*
X96560000Y-131380001I-2464162J616039D01*
G01*
X102910000Y-133285000D02*
G75*
G02*
X100370000Y-135825000I-2540000J0D01*
G01*
%TO.C,K23*%
X91480000Y-165380000D02*
X96560000Y-165380000D01*
X91480000Y-166396000D02*
X91480000Y-165380000D01*
X91480000Y-169825000D02*
X91480000Y-169444000D01*
X99024162Y-163475000D02*
X100751000Y-163475000D01*
X100370000Y-169825000D02*
X91480000Y-169825000D01*
X102529000Y-163475000D02*
X102910000Y-163475000D01*
X102910000Y-163856000D02*
X102910000Y-163475000D01*
X102910000Y-167285000D02*
X102910000Y-166904000D01*
X99024162Y-163456040D02*
G75*
G02*
X96560000Y-165380001I-2464162J616039D01*
G01*
X102910000Y-167285000D02*
G75*
G02*
X100370000Y-169825000I-2540000J0D01*
G01*
%TO.C,K14*%
X109480000Y-153380000D02*
X114560000Y-153380000D01*
X109480000Y-154396000D02*
X109480000Y-153380000D01*
X109480000Y-157825000D02*
X109480000Y-157444000D01*
X117024162Y-151475000D02*
X118751000Y-151475000D01*
X118370000Y-157825000D02*
X109480000Y-157825000D01*
X120529000Y-151475000D02*
X120910000Y-151475000D01*
X120910000Y-151856000D02*
X120910000Y-151475000D01*
X120910000Y-155285000D02*
X120910000Y-154904000D01*
X117024162Y-151456040D02*
G75*
G02*
X114560000Y-153380001I-2464162J616039D01*
G01*
X120910000Y-155285000D02*
G75*
G02*
X118370000Y-157825000I-2540000J0D01*
G01*
%TO.C,K01*%
X55980000Y-148380000D02*
X61060000Y-148380000D01*
X55980000Y-149396000D02*
X55980000Y-148380000D01*
X55980000Y-152825000D02*
X55980000Y-152444000D01*
X63524162Y-146475000D02*
X65251000Y-146475000D01*
X64870000Y-152825000D02*
X55980000Y-152825000D01*
X67029000Y-146475000D02*
X67410000Y-146475000D01*
X67410000Y-146856000D02*
X67410000Y-146475000D01*
X67410000Y-150285000D02*
X67410000Y-149904000D01*
X63524162Y-146456040D02*
G75*
G02*
X61060000Y-148380001I-2464162J616039D01*
G01*
X67410000Y-150285000D02*
G75*
G02*
X64870000Y-152825000I-2540000J0D01*
G01*
%TO.C,K30*%
X104724512Y-191900241D02*
X109785181Y-191457490D01*
X104813062Y-192912375D02*
X104724512Y-191900241D01*
X105111919Y-196328327D02*
X105078713Y-195948777D01*
X112073934Y-189344974D02*
X113794201Y-189194470D01*
X113968090Y-195553512D02*
X105111919Y-196328327D01*
X115565435Y-189039507D02*
X115944987Y-189006300D01*
X115978192Y-189385851D02*
X115944987Y-189006300D01*
X116277049Y-192801802D02*
X116243843Y-192422252D01*
X112072282Y-189326086D02*
G75*
G02*
X109785181Y-191457492I-2508477J398929D01*
G01*
X116277049Y-192801802D02*
G75*
G02*
X113968090Y-195553512I-2530330J-221379D01*
G01*
%TO.C,K12*%
X73480000Y-153380000D02*
X78560000Y-153380000D01*
X73480000Y-154396000D02*
X73480000Y-153380000D01*
X73480000Y-157825000D02*
X73480000Y-157444000D01*
X81024162Y-151475000D02*
X82751000Y-151475000D01*
X82370000Y-157825000D02*
X73480000Y-157825000D01*
X84529000Y-151475000D02*
X84910000Y-151475000D01*
X84910000Y-151856000D02*
X84910000Y-151475000D01*
X84910000Y-155285000D02*
X84910000Y-154904000D01*
X81024162Y-151456040D02*
G75*
G02*
X78560000Y-153380001I-2464162J616039D01*
G01*
X84910000Y-155285000D02*
G75*
G02*
X82370000Y-157825000I-2540000J0D01*
G01*
%TO.C,K04*%
X109480000Y-136380000D02*
X114560000Y-136380000D01*
X109480000Y-137396000D02*
X109480000Y-136380000D01*
X109480000Y-140825000D02*
X109480000Y-140444000D01*
X117024162Y-134475000D02*
X118751000Y-134475000D01*
X118370000Y-140825000D02*
X109480000Y-140825000D01*
X120529000Y-134475000D02*
X120910000Y-134475000D01*
X120910000Y-134856000D02*
X120910000Y-134475000D01*
X120910000Y-138285000D02*
X120910000Y-137904000D01*
X117024162Y-134456040D02*
G75*
G02*
X114560000Y-136380001I-2464162J616039D01*
G01*
X120910000Y-138285000D02*
G75*
G02*
X118370000Y-140825000I-2540000J0D01*
G01*
%TO.C,K10*%
X37710000Y-158395000D02*
X37710000Y-158776000D01*
X37710000Y-161824000D02*
X37710000Y-162205000D01*
X38091000Y-162205000D02*
X37710000Y-162205000D01*
X40250000Y-155855000D02*
X49140000Y-155855000D01*
X41595838Y-162205000D02*
X39869000Y-162205000D01*
X49140000Y-155855000D02*
X49140000Y-156236000D01*
X49140000Y-159284000D02*
X49140000Y-160300000D01*
X49140000Y-160300000D02*
X44060000Y-160300000D01*
X37710000Y-158395000D02*
G75*
G02*
X40250000Y-155855000I2540000J0D01*
G01*
X41595838Y-162223960D02*
G75*
G02*
X44060000Y-160299999I2464162J-616039D01*
G01*
%TO.C,K02*%
X73480000Y-136380000D02*
X78560000Y-136380000D01*
X73480000Y-137396000D02*
X73480000Y-136380000D01*
X73480000Y-140825000D02*
X73480000Y-140444000D01*
X81024162Y-134475000D02*
X82751000Y-134475000D01*
X82370000Y-140825000D02*
X73480000Y-140825000D01*
X84529000Y-134475000D02*
X84910000Y-134475000D01*
X84910000Y-134856000D02*
X84910000Y-134475000D01*
X84910000Y-138285000D02*
X84910000Y-137904000D01*
X81024162Y-134456040D02*
G75*
G02*
X78560000Y-136380001I-2464162J616039D01*
G01*
X84910000Y-138285000D02*
G75*
G02*
X82370000Y-140825000I-2540000J0D01*
G01*
%TO.C,K21*%
X55980000Y-182380000D02*
X61060000Y-182380000D01*
X55980000Y-183396000D02*
X55980000Y-182380000D01*
X55980000Y-186825000D02*
X55980000Y-186444000D01*
X63524162Y-180475000D02*
X65251000Y-180475000D01*
X64870000Y-186825000D02*
X55980000Y-186825000D01*
X67029000Y-180475000D02*
X67410000Y-180475000D01*
X67410000Y-180856000D02*
X67410000Y-180475000D01*
X67410000Y-184285000D02*
X67410000Y-183904000D01*
X63524162Y-180456040D02*
G75*
G02*
X61060000Y-182380001I-2464162J616039D01*
G01*
X67410000Y-184285000D02*
G75*
G02*
X64870000Y-186825000I-2540000J0D01*
G01*
%TO.C,K24*%
X109480000Y-170380000D02*
X114560000Y-170380000D01*
X109480000Y-171396000D02*
X109480000Y-170380000D01*
X109480000Y-174825000D02*
X109480000Y-174444000D01*
X117024162Y-168475000D02*
X118751000Y-168475000D01*
X118370000Y-174825000D02*
X109480000Y-174825000D01*
X120529000Y-168475000D02*
X120910000Y-168475000D01*
X120910000Y-168856000D02*
X120910000Y-168475000D01*
X120910000Y-172285000D02*
X120910000Y-171904000D01*
X117024162Y-168456040D02*
G75*
G02*
X114560000Y-170380001I-2464162J616039D01*
G01*
X120910000Y-172285000D02*
G75*
G02*
X118370000Y-174825000I-2540000J0D01*
G01*
%TO.C,K25*%
X127480000Y-172380000D02*
X132560000Y-172380000D01*
X127480000Y-173396000D02*
X127480000Y-172380000D01*
X127480000Y-176825000D02*
X127480000Y-176444000D01*
X135024162Y-170475000D02*
X136751000Y-170475000D01*
X136370000Y-176825000D02*
X127480000Y-176825000D01*
X138529000Y-170475000D02*
X138910000Y-170475000D01*
X138910000Y-170856000D02*
X138910000Y-170475000D01*
X138910000Y-174285000D02*
X138910000Y-173904000D01*
X135024162Y-170456040D02*
G75*
G02*
X132560000Y-172380001I-2464162J616039D01*
G01*
X138910000Y-174285000D02*
G75*
G02*
X136370000Y-176825000I-2540000J0D01*
G01*
X127920000Y-74040000D02*
X133000000Y-74040000D01*
X127920000Y-75056000D02*
X127920000Y-74040000D01*
X127920000Y-78485000D02*
X127920000Y-78104000D01*
X135464162Y-72135000D02*
X137191000Y-72135000D01*
X136810000Y-78485000D02*
X127920000Y-78485000D01*
X138969000Y-72135000D02*
X139350000Y-72135000D01*
X139350000Y-72516000D02*
X139350000Y-72135000D01*
X139350000Y-75945000D02*
X139350000Y-75564000D01*
X135464162Y-72116040D02*
G75*
G02*
X133000000Y-74040001I-2464162J616039D01*
G01*
X139350000Y-75945000D02*
G75*
G02*
X136810000Y-78485000I-2540000J0D01*
G01*
%TO.C,K24*%
X109920000Y-72040000D02*
X115000000Y-72040000D01*
X109920000Y-73056000D02*
X109920000Y-72040000D01*
X109920000Y-76485000D02*
X109920000Y-76104000D01*
X117464162Y-70135000D02*
X119191000Y-70135000D01*
X118810000Y-76485000D02*
X109920000Y-76485000D01*
X120969000Y-70135000D02*
X121350000Y-70135000D01*
X121350000Y-70516000D02*
X121350000Y-70135000D01*
X121350000Y-73945000D02*
X121350000Y-73564000D01*
X117464162Y-70116040D02*
G75*
G02*
X115000000Y-72040001I-2464162J616039D01*
G01*
X121350000Y-73945000D02*
G75*
G02*
X118810000Y-76485000I-2540000J0D01*
G01*
%TO.C,K21*%
X56420000Y-84040000D02*
X61500000Y-84040000D01*
X56420000Y-85056000D02*
X56420000Y-84040000D01*
X56420000Y-88485000D02*
X56420000Y-88104000D01*
X63964162Y-82135000D02*
X65691000Y-82135000D01*
X65310000Y-88485000D02*
X56420000Y-88485000D01*
X67469000Y-82135000D02*
X67850000Y-82135000D01*
X67850000Y-82516000D02*
X67850000Y-82135000D01*
X67850000Y-85945000D02*
X67850000Y-85564000D01*
X63964162Y-82116040D02*
G75*
G02*
X61500000Y-84040001I-2464162J616039D01*
G01*
X67850000Y-85945000D02*
G75*
G02*
X65310000Y-88485000I-2540000J0D01*
G01*
%TO.C,K02*%
X73920000Y-38040000D02*
X79000000Y-38040000D01*
X73920000Y-39056000D02*
X73920000Y-38040000D01*
X73920000Y-42485000D02*
X73920000Y-42104000D01*
X81464162Y-36135000D02*
X83191000Y-36135000D01*
X82810000Y-42485000D02*
X73920000Y-42485000D01*
X84969000Y-36135000D02*
X85350000Y-36135000D01*
X85350000Y-36516000D02*
X85350000Y-36135000D01*
X85350000Y-39945000D02*
X85350000Y-39564000D01*
X81464162Y-36116040D02*
G75*
G02*
X79000000Y-38040001I-2464162J616039D01*
G01*
X85350000Y-39945000D02*
G75*
G02*
X82810000Y-42485000I-2540000J0D01*
G01*
%TO.C,K10*%
X38150000Y-60055000D02*
X38150000Y-60436000D01*
X38150000Y-63484000D02*
X38150000Y-63865000D01*
X38531000Y-63865000D02*
X38150000Y-63865000D01*
X40690000Y-57515000D02*
X49580000Y-57515000D01*
X42035838Y-63865000D02*
X40309000Y-63865000D01*
X49580000Y-57515000D02*
X49580000Y-57896000D01*
X49580000Y-60944000D02*
X49580000Y-61960000D01*
X49580000Y-61960000D02*
X44500000Y-61960000D01*
X38150000Y-60055000D02*
G75*
G02*
X40690000Y-57515000I2540000J0D01*
G01*
X42035838Y-63883960D02*
G75*
G02*
X44500000Y-61959999I2464162J-616039D01*
G01*
%TO.C,K04*%
X109920000Y-38040000D02*
X115000000Y-38040000D01*
X109920000Y-39056000D02*
X109920000Y-38040000D01*
X109920000Y-42485000D02*
X109920000Y-42104000D01*
X117464162Y-36135000D02*
X119191000Y-36135000D01*
X118810000Y-42485000D02*
X109920000Y-42485000D01*
X120969000Y-36135000D02*
X121350000Y-36135000D01*
X121350000Y-36516000D02*
X121350000Y-36135000D01*
X121350000Y-39945000D02*
X121350000Y-39564000D01*
X117464162Y-36116040D02*
G75*
G02*
X115000000Y-38040001I-2464162J616039D01*
G01*
X121350000Y-39945000D02*
G75*
G02*
X118810000Y-42485000I-2540000J0D01*
G01*
%TO.C,K12*%
X73920000Y-55040000D02*
X79000000Y-55040000D01*
X73920000Y-56056000D02*
X73920000Y-55040000D01*
X73920000Y-59485000D02*
X73920000Y-59104000D01*
X81464162Y-53135000D02*
X83191000Y-53135000D01*
X82810000Y-59485000D02*
X73920000Y-59485000D01*
X84969000Y-53135000D02*
X85350000Y-53135000D01*
X85350000Y-53516000D02*
X85350000Y-53135000D01*
X85350000Y-56945000D02*
X85350000Y-56564000D01*
X81464162Y-53116040D02*
G75*
G02*
X79000000Y-55040001I-2464162J616039D01*
G01*
X85350000Y-56945000D02*
G75*
G02*
X82810000Y-59485000I-2540000J0D01*
G01*
%TO.C,K30*%
X105164512Y-93560241D02*
X110225181Y-93117490D01*
X105253062Y-94572375D02*
X105164512Y-93560241D01*
X105551919Y-97988327D02*
X105518713Y-97608777D01*
X112513934Y-91004974D02*
X114234201Y-90854470D01*
X114408090Y-97213512D02*
X105551919Y-97988327D01*
X116005435Y-90699507D02*
X116384987Y-90666300D01*
X116418192Y-91045851D02*
X116384987Y-90666300D01*
X116717049Y-94461802D02*
X116683843Y-94082252D01*
X112512282Y-90986086D02*
G75*
G02*
X110225181Y-93117492I-2508477J398929D01*
G01*
X116717049Y-94461802D02*
G75*
G02*
X114408090Y-97213512I-2530330J-221379D01*
G01*
%TO.C,K01*%
X56420000Y-50040000D02*
X61500000Y-50040000D01*
X56420000Y-51056000D02*
X56420000Y-50040000D01*
X56420000Y-54485000D02*
X56420000Y-54104000D01*
X63964162Y-48135000D02*
X65691000Y-48135000D01*
X65310000Y-54485000D02*
X56420000Y-54485000D01*
X67469000Y-48135000D02*
X67850000Y-48135000D01*
X67850000Y-48516000D02*
X67850000Y-48135000D01*
X67850000Y-51945000D02*
X67850000Y-51564000D01*
X63964162Y-48116040D02*
G75*
G02*
X61500000Y-50040001I-2464162J616039D01*
G01*
X67850000Y-51945000D02*
G75*
G02*
X65310000Y-54485000I-2540000J0D01*
G01*
%TO.C,K14*%
X109920000Y-55040000D02*
X115000000Y-55040000D01*
X109920000Y-56056000D02*
X109920000Y-55040000D01*
X109920000Y-59485000D02*
X109920000Y-59104000D01*
X117464162Y-53135000D02*
X119191000Y-53135000D01*
X118810000Y-59485000D02*
X109920000Y-59485000D01*
X120969000Y-53135000D02*
X121350000Y-53135000D01*
X121350000Y-53516000D02*
X121350000Y-53135000D01*
X121350000Y-56945000D02*
X121350000Y-56564000D01*
X117464162Y-53116040D02*
G75*
G02*
X115000000Y-55040001I-2464162J616039D01*
G01*
X121350000Y-56945000D02*
G75*
G02*
X118810000Y-59485000I-2540000J0D01*
G01*
%TO.C,K23*%
X91920000Y-67040000D02*
X97000000Y-67040000D01*
X91920000Y-68056000D02*
X91920000Y-67040000D01*
X91920000Y-71485000D02*
X91920000Y-71104000D01*
X99464162Y-65135000D02*
X101191000Y-65135000D01*
X100810000Y-71485000D02*
X91920000Y-71485000D01*
X102969000Y-65135000D02*
X103350000Y-65135000D01*
X103350000Y-65516000D02*
X103350000Y-65135000D01*
X103350000Y-68945000D02*
X103350000Y-68564000D01*
X99464162Y-65116040D02*
G75*
G02*
X97000000Y-67040001I-2464162J616039D01*
G01*
X103350000Y-68945000D02*
G75*
G02*
X100810000Y-71485000I-2540000J0D01*
G01*
%TO.C,K03*%
X91920000Y-33040000D02*
X97000000Y-33040000D01*
X91920000Y-34056000D02*
X91920000Y-33040000D01*
X91920000Y-37485000D02*
X91920000Y-37104000D01*
X99464162Y-31135000D02*
X101191000Y-31135000D01*
X100810000Y-37485000D02*
X91920000Y-37485000D01*
X102969000Y-31135000D02*
X103350000Y-31135000D01*
X103350000Y-31516000D02*
X103350000Y-31135000D01*
X103350000Y-34945000D02*
X103350000Y-34564000D01*
X99464162Y-31116040D02*
G75*
G02*
X97000000Y-33040001I-2464162J616039D01*
G01*
X103350000Y-34945000D02*
G75*
G02*
X100810000Y-37485000I-2540000J0D01*
G01*
%TO.C,K22*%
X73920000Y-72040000D02*
X79000000Y-72040000D01*
X73920000Y-73056000D02*
X73920000Y-72040000D01*
X73920000Y-76485000D02*
X73920000Y-76104000D01*
X81464162Y-70135000D02*
X83191000Y-70135000D01*
X82810000Y-76485000D02*
X73920000Y-76485000D01*
X84969000Y-70135000D02*
X85350000Y-70135000D01*
X85350000Y-70516000D02*
X85350000Y-70135000D01*
X85350000Y-73945000D02*
X85350000Y-73564000D01*
X81464162Y-70116040D02*
G75*
G02*
X79000000Y-72040001I-2464162J616039D01*
G01*
X85350000Y-73945000D02*
G75*
G02*
X82810000Y-76485000I-2540000J0D01*
G01*
%TO.C,K15*%
X127920000Y-57040000D02*
X133000000Y-57040000D01*
X127920000Y-58056000D02*
X127920000Y-57040000D01*
X127920000Y-61485000D02*
X127920000Y-61104000D01*
X135464162Y-55135000D02*
X137191000Y-55135000D01*
X136810000Y-61485000D02*
X127920000Y-61485000D01*
X138969000Y-55135000D02*
X139350000Y-55135000D01*
X139350000Y-55516000D02*
X139350000Y-55135000D01*
X139350000Y-58945000D02*
X139350000Y-58564000D01*
X135464162Y-55116040D02*
G75*
G02*
X133000000Y-57040001I-2464162J616039D01*
G01*
X139350000Y-58945000D02*
G75*
G02*
X136810000Y-61485000I-2540000J0D01*
G01*
%TO.C,K32*%
X145537660Y-102261041D02*
X145698678Y-101915738D01*
X146986818Y-99153311D02*
X147416198Y-98232503D01*
X147416198Y-98232503D02*
X152020242Y-100379404D01*
X153594736Y-106018117D02*
X145537660Y-102261041D01*
X155058619Y-99694287D02*
X156623666Y-100424080D01*
X156970208Y-104789546D02*
X157131226Y-104444243D01*
X158235081Y-101175496D02*
X158580384Y-101336513D01*
X158419367Y-101681816D02*
X158580384Y-101336513D01*
X155066632Y-99677103D02*
G75*
G02*
X152020242Y-100379403I-1972937J1599710D01*
G01*
X156970208Y-104789546D02*
G75*
G02*
X153594736Y-106018117I-2302022J1073453D01*
G01*
%TO.C,K11*%
X56420000Y-67040000D02*
X61500000Y-67040000D01*
X56420000Y-68056000D02*
X56420000Y-67040000D01*
X56420000Y-71485000D02*
X56420000Y-71104000D01*
X63964162Y-65135000D02*
X65691000Y-65135000D01*
X65310000Y-71485000D02*
X56420000Y-71485000D01*
X67469000Y-65135000D02*
X67850000Y-65135000D01*
X67850000Y-65516000D02*
X67850000Y-65135000D01*
X67850000Y-68945000D02*
X67850000Y-68564000D01*
X63964162Y-65116040D02*
G75*
G02*
X61500000Y-67040001I-2464162J616039D01*
G01*
X67850000Y-68945000D02*
G75*
G02*
X65310000Y-71485000I-2540000J0D01*
G01*
%TO.C,K05*%
X127920000Y-40040000D02*
X133000000Y-40040000D01*
X127920000Y-41056000D02*
X127920000Y-40040000D01*
X127920000Y-44485000D02*
X127920000Y-44104000D01*
X135464162Y-38135000D02*
X137191000Y-38135000D01*
X136810000Y-44485000D02*
X127920000Y-44485000D01*
X138969000Y-38135000D02*
X139350000Y-38135000D01*
X139350000Y-38516000D02*
X139350000Y-38135000D01*
X139350000Y-41945000D02*
X139350000Y-41564000D01*
X135464162Y-38116040D02*
G75*
G02*
X133000000Y-40040001I-2464162J616039D01*
G01*
X139350000Y-41945000D02*
G75*
G02*
X136810000Y-44485000I-2540000J0D01*
G01*
%TO.C,K20*%
X38150000Y-77055000D02*
X38150000Y-77436000D01*
X38150000Y-80484000D02*
X38150000Y-80865000D01*
X38531000Y-80865000D02*
X38150000Y-80865000D01*
X40690000Y-74515000D02*
X49580000Y-74515000D01*
X42035838Y-80865000D02*
X40309000Y-80865000D01*
X49580000Y-74515000D02*
X49580000Y-74896000D01*
X49580000Y-77944000D02*
X49580000Y-78960000D01*
X49580000Y-78960000D02*
X44500000Y-78960000D01*
X38150000Y-77055000D02*
G75*
G02*
X40690000Y-74515000I2540000J0D01*
G01*
X42035838Y-80883960D02*
G75*
G02*
X44500000Y-78959999I2464162J-616039D01*
G01*
%TO.C,K13*%
X91920000Y-50040000D02*
X97000000Y-50040000D01*
X91920000Y-51056000D02*
X91920000Y-50040000D01*
X91920000Y-54485000D02*
X91920000Y-54104000D01*
X99464162Y-48135000D02*
X101191000Y-48135000D01*
X100810000Y-54485000D02*
X91920000Y-54485000D01*
X102969000Y-48135000D02*
X103350000Y-48135000D01*
X103350000Y-48516000D02*
X103350000Y-48135000D01*
X103350000Y-51945000D02*
X103350000Y-51564000D01*
X99464162Y-48116040D02*
G75*
G02*
X97000000Y-50040001I-2464162J616039D01*
G01*
X103350000Y-51945000D02*
G75*
G02*
X100810000Y-54485000I-2540000J0D01*
G01*
%TO.C,K00*%
X38150000Y-43055000D02*
X38150000Y-43436000D01*
X38150000Y-46484000D02*
X38150000Y-46865000D01*
X38531000Y-46865000D02*
X38150000Y-46865000D01*
X40690000Y-40515000D02*
X49580000Y-40515000D01*
X42035838Y-46865000D02*
X40309000Y-46865000D01*
X49580000Y-40515000D02*
X49580000Y-40896000D01*
X49580000Y-43944000D02*
X49580000Y-44960000D01*
X49580000Y-44960000D02*
X44500000Y-44960000D01*
X38150000Y-43055000D02*
G75*
G02*
X40690000Y-40515000I2540000J0D01*
G01*
X42035838Y-46883960D02*
G75*
G02*
X44500000Y-44959999I2464162J-616039D01*
G01*
%TO.C,K31*%
X125799436Y-97323101D02*
X125865596Y-96947889D01*
X126394876Y-93946195D02*
X126571302Y-92945631D01*
X126571302Y-92945631D02*
X131574126Y-93827764D01*
X134331651Y-92379602D02*
X136032255Y-92679464D01*
X134554377Y-98866835D02*
X125799436Y-97323101D01*
X137496855Y-96806488D02*
X137563015Y-96431276D01*
X137783243Y-92988211D02*
X138158455Y-93054371D01*
X138092295Y-93429582D02*
X138158455Y-93054371D01*
X134334944Y-92360930D02*
G75*
G02*
X131574126Y-93827765I-2319752J1034577D01*
G01*
X137496855Y-96806488D02*
G75*
G02*
X134554377Y-98866833I-2501411J441066D01*
G01*
D11*
%TO.C,R2*%
X163157464Y-40699600D02*
X161703336Y-40699600D01*
X163157464Y-42519600D02*
X161703336Y-42519600D01*
%TO.C,R1*%
X161703336Y-36991200D02*
X163157464Y-36991200D01*
X161703336Y-38811200D02*
X163157464Y-38811200D01*
%TD*%
M02*
