%TF.GenerationSoftware,KiCad,Pcbnew,8.0.3*%
%TF.CreationDate,2024-06-12T13:30:28-03:00*%
%TF.ProjectId,keyboard_pcb,6b657962-6f61-4726-945f-7063622e6b69,rev1.0*%
%TF.SameCoordinates,Original*%
%TF.FileFunction,Soldermask,Top*%
%TF.FilePolarity,Negative*%
%FSLAX46Y46*%
G04 Gerber Fmt 4.6, Leading zero omitted, Abs format (unit mm)*
G04 Created by KiCad (PCBNEW 8.0.3) date 2024-06-12 13:30:28*
%MOMM*%
%LPD*%
G01*
G04 APERTURE LIST*
%ADD10C,3.000000*%
%ADD11C,3.987800*%
%ADD12O,2.000000X1.600000*%
%ADD13O,1.700000X1.700000*%
%ADD14R,3.500000X1.700000*%
%ADD15R,1.700000X1.700000*%
G04 APERTURE END LIST*
D10*
%TO.C,K31*%
X128191648Y-194228109D03*
D11*
X131575192Y-189666352D03*
D10*
X134886243Y-192829363D03*
%TD*%
%TO.C,K00*%
X46600000Y-140760000D03*
D11*
X44060000Y-145840000D03*
D10*
X40250000Y-143300000D03*
%TD*%
%TO.C,K13*%
X94020000Y-150920000D03*
D11*
X96560000Y-145840000D03*
D10*
X100370000Y-148380000D03*
%TD*%
%TO.C,K20*%
X46600000Y-174760000D03*
D11*
X44060000Y-179840000D03*
D10*
X40250000Y-177300000D03*
%TD*%
%TO.C,K05*%
X130020000Y-140920000D03*
D11*
X132560000Y-135840000D03*
D10*
X136370000Y-138380000D03*
%TD*%
%TO.C,K11*%
X58520000Y-167920000D03*
D11*
X61060000Y-162840000D03*
D10*
X64870000Y-165380000D03*
%TD*%
%TO.C,K32*%
X148204770Y-199947975D03*
D11*
X152653692Y-196417382D03*
D10*
X155033274Y-200329579D03*
%TD*%
%TO.C,K15*%
X130020000Y-157920000D03*
D11*
X132560000Y-152840000D03*
D10*
X136370000Y-155380000D03*
%TD*%
D12*
%TO.C,J1*%
X161110000Y-182540000D03*
X162210000Y-187140000D03*
X166210000Y-187140000D03*
X169210000Y-187140000D03*
%TD*%
D10*
%TO.C,K22*%
X76020000Y-172920000D03*
D11*
X78560000Y-167840000D03*
D10*
X82370000Y-170380000D03*
%TD*%
%TO.C,K03*%
X94020000Y-133920000D03*
D11*
X96560000Y-128840000D03*
D10*
X100370000Y-131380000D03*
%TD*%
%TO.C,K23*%
X94020000Y-167920000D03*
D11*
X96560000Y-162840000D03*
D10*
X100370000Y-165380000D03*
%TD*%
%TO.C,K14*%
X112020000Y-155920000D03*
D11*
X114560000Y-150840000D03*
D10*
X118370000Y-153380000D03*
%TD*%
%TO.C,K01*%
X58520000Y-150920000D03*
D11*
X61060000Y-145840000D03*
D10*
X64870000Y-148380000D03*
%TD*%
%TO.C,K30*%
X107476222Y-194209200D03*
D11*
X109563805Y-188927156D03*
D10*
X113580683Y-191125427D03*
%TD*%
%TO.C,K12*%
X76020000Y-155920000D03*
D11*
X78560000Y-150840000D03*
D10*
X82370000Y-153380000D03*
%TD*%
%TO.C,K04*%
X112020000Y-138920000D03*
D11*
X114560000Y-133840000D03*
D10*
X118370000Y-136380000D03*
%TD*%
D13*
%TO.C,U2*%
X151373200Y-128418000D03*
D14*
X150473200Y-128418000D03*
D13*
X151373200Y-130958000D03*
D14*
X150473200Y-130958000D03*
D15*
X151373200Y-133498000D03*
D14*
X150473200Y-133498000D03*
D13*
X151373200Y-136038000D03*
D14*
X150473200Y-136038000D03*
D13*
X151373200Y-138578000D03*
D14*
X150473200Y-138578000D03*
D13*
X151373200Y-141118000D03*
D14*
X150473200Y-141118000D03*
D13*
X151373200Y-143658000D03*
D14*
X150473200Y-143658000D03*
D15*
X151373200Y-146198000D03*
D14*
X150473200Y-146198000D03*
D13*
X151373200Y-148738000D03*
D14*
X150473200Y-148738000D03*
D13*
X151373200Y-151278000D03*
D14*
X150473200Y-151278000D03*
D13*
X151373200Y-153818000D03*
D14*
X150473200Y-153818000D03*
D13*
X151373200Y-156358000D03*
D14*
X150473200Y-156358000D03*
D15*
X151373200Y-158898000D03*
D14*
X150473200Y-158898000D03*
D13*
X151373200Y-161438000D03*
D14*
X150473200Y-161438000D03*
D13*
X151373200Y-163978000D03*
D14*
X150473200Y-163978000D03*
D13*
X151373200Y-166518000D03*
D14*
X150473200Y-166518000D03*
D13*
X151373200Y-169058000D03*
D14*
X150473200Y-169058000D03*
D15*
X151373200Y-171598000D03*
D14*
X150473200Y-171598000D03*
D13*
X151373200Y-174138000D03*
D14*
X150473200Y-174138000D03*
D13*
X151373200Y-176678000D03*
D14*
X150473200Y-176678000D03*
D13*
X169153200Y-176678000D03*
D14*
X170053200Y-176678000D03*
D13*
X169153200Y-174138000D03*
D14*
X170053200Y-174138000D03*
D15*
X169153200Y-171598000D03*
D14*
X170053200Y-171598000D03*
D13*
X169153200Y-169058000D03*
D14*
X170053200Y-169058000D03*
D13*
X169153200Y-166518000D03*
D14*
X170053200Y-166518000D03*
D13*
X169153200Y-163978000D03*
D14*
X170053200Y-163978000D03*
D13*
X169153200Y-161438000D03*
D14*
X170053200Y-161438000D03*
D15*
X169153200Y-158898000D03*
D14*
X170053200Y-158898000D03*
D13*
X169153200Y-156358000D03*
D14*
X170053200Y-156358000D03*
D13*
X169153200Y-153818000D03*
D14*
X170053200Y-153818000D03*
D13*
X169153200Y-151278000D03*
D14*
X170053200Y-151278000D03*
D13*
X169153200Y-148738000D03*
D14*
X170053200Y-148738000D03*
D15*
X169153200Y-146198000D03*
D14*
X170053200Y-146198000D03*
D13*
X169153200Y-143658000D03*
D14*
X170053200Y-143658000D03*
D13*
X169153200Y-141118000D03*
D14*
X170053200Y-141118000D03*
D13*
X169153200Y-138578000D03*
D14*
X170053200Y-138578000D03*
D13*
X169153200Y-136038000D03*
D14*
X170053200Y-136038000D03*
D15*
X169153200Y-133498000D03*
D14*
X170053200Y-133498000D03*
D13*
X169153200Y-130958000D03*
D14*
X170053200Y-130958000D03*
D13*
X169153200Y-128418000D03*
D14*
X170053200Y-128418000D03*
%TD*%
D10*
%TO.C,K10*%
X46600000Y-157760000D03*
D11*
X44060000Y-162840000D03*
D10*
X40250000Y-160300000D03*
%TD*%
%TO.C,K02*%
X76020000Y-138920000D03*
D11*
X78560000Y-133840000D03*
D10*
X82370000Y-136380000D03*
%TD*%
%TO.C,K21*%
X58520000Y-184920000D03*
D11*
X61060000Y-179840000D03*
D10*
X64870000Y-182380000D03*
%TD*%
%TO.C,K24*%
X112020000Y-172920000D03*
D11*
X114560000Y-167840000D03*
D10*
X118370000Y-170380000D03*
%TD*%
%TO.C,K25*%
X130020000Y-174920000D03*
D11*
X132560000Y-169840000D03*
D10*
X136370000Y-172380000D03*
%TD*%
%TO.C,K25*%
X130460000Y-76580000D03*
D11*
X133000000Y-71500000D03*
D10*
X136810000Y-74040000D03*
%TD*%
%TO.C,K24*%
X112460000Y-74580000D03*
D11*
X115000000Y-69500000D03*
D10*
X118810000Y-72040000D03*
%TD*%
%TO.C,K21*%
X58960000Y-86580000D03*
D11*
X61500000Y-81500000D03*
D10*
X65310000Y-84040000D03*
%TD*%
%TO.C,K02*%
X76460000Y-40580000D03*
D11*
X79000000Y-35500000D03*
D10*
X82810000Y-38040000D03*
%TD*%
%TO.C,K10*%
X47040000Y-59420000D03*
D11*
X44500000Y-64500000D03*
D10*
X40690000Y-61960000D03*
%TD*%
D13*
%TO.C,U2*%
X151813200Y-30078000D03*
D14*
X150913200Y-30078000D03*
D13*
X151813200Y-32618000D03*
D14*
X150913200Y-32618000D03*
D15*
X151813200Y-35158000D03*
D14*
X150913200Y-35158000D03*
D13*
X151813200Y-37698000D03*
D14*
X150913200Y-37698000D03*
D13*
X151813200Y-40238000D03*
D14*
X150913200Y-40238000D03*
D13*
X151813200Y-42778000D03*
D14*
X150913200Y-42778000D03*
D13*
X151813200Y-45318000D03*
D14*
X150913200Y-45318000D03*
D15*
X151813200Y-47858000D03*
D14*
X150913200Y-47858000D03*
D13*
X151813200Y-50398000D03*
D14*
X150913200Y-50398000D03*
D13*
X151813200Y-52938000D03*
D14*
X150913200Y-52938000D03*
D13*
X151813200Y-55478000D03*
D14*
X150913200Y-55478000D03*
D13*
X151813200Y-58018000D03*
D14*
X150913200Y-58018000D03*
D15*
X151813200Y-60558000D03*
D14*
X150913200Y-60558000D03*
D13*
X151813200Y-63098000D03*
D14*
X150913200Y-63098000D03*
D13*
X151813200Y-65638000D03*
D14*
X150913200Y-65638000D03*
D13*
X151813200Y-68178000D03*
D14*
X150913200Y-68178000D03*
D13*
X151813200Y-70718000D03*
D14*
X150913200Y-70718000D03*
D15*
X151813200Y-73258000D03*
D14*
X150913200Y-73258000D03*
D13*
X151813200Y-75798000D03*
D14*
X150913200Y-75798000D03*
D13*
X151813200Y-78338000D03*
D14*
X150913200Y-78338000D03*
D13*
X169593200Y-78338000D03*
D14*
X170493200Y-78338000D03*
D13*
X169593200Y-75798000D03*
D14*
X170493200Y-75798000D03*
D15*
X169593200Y-73258000D03*
D14*
X170493200Y-73258000D03*
D13*
X169593200Y-70718000D03*
D14*
X170493200Y-70718000D03*
D13*
X169593200Y-68178000D03*
D14*
X170493200Y-68178000D03*
D13*
X169593200Y-65638000D03*
D14*
X170493200Y-65638000D03*
D13*
X169593200Y-63098000D03*
D14*
X170493200Y-63098000D03*
D15*
X169593200Y-60558000D03*
D14*
X170493200Y-60558000D03*
D13*
X169593200Y-58018000D03*
D14*
X170493200Y-58018000D03*
D13*
X169593200Y-55478000D03*
D14*
X170493200Y-55478000D03*
D13*
X169593200Y-52938000D03*
D14*
X170493200Y-52938000D03*
D13*
X169593200Y-50398000D03*
D14*
X170493200Y-50398000D03*
D15*
X169593200Y-47858000D03*
D14*
X170493200Y-47858000D03*
D13*
X169593200Y-45318000D03*
D14*
X170493200Y-45318000D03*
D13*
X169593200Y-42778000D03*
D14*
X170493200Y-42778000D03*
D13*
X169593200Y-40238000D03*
D14*
X170493200Y-40238000D03*
D13*
X169593200Y-37698000D03*
D14*
X170493200Y-37698000D03*
D15*
X169593200Y-35158000D03*
D14*
X170493200Y-35158000D03*
D13*
X169593200Y-32618000D03*
D14*
X170493200Y-32618000D03*
D13*
X169593200Y-30078000D03*
D14*
X170493200Y-30078000D03*
%TD*%
D10*
%TO.C,K04*%
X112460000Y-40580000D03*
D11*
X115000000Y-35500000D03*
D10*
X118810000Y-38040000D03*
%TD*%
%TO.C,K12*%
X76460000Y-57580000D03*
D11*
X79000000Y-52500000D03*
D10*
X82810000Y-55040000D03*
%TD*%
%TO.C,K30*%
X107916222Y-95869200D03*
D11*
X110003805Y-90587156D03*
D10*
X114020683Y-92785427D03*
%TD*%
%TO.C,K01*%
X58960000Y-52580000D03*
D11*
X61500000Y-47500000D03*
D10*
X65310000Y-50040000D03*
%TD*%
%TO.C,K14*%
X112460000Y-57580000D03*
D11*
X115000000Y-52500000D03*
D10*
X118810000Y-55040000D03*
%TD*%
%TO.C,K23*%
X94460000Y-69580000D03*
D11*
X97000000Y-64500000D03*
D10*
X100810000Y-67040000D03*
%TD*%
%TO.C,K03*%
X94460000Y-35580000D03*
D11*
X97000000Y-30500000D03*
D10*
X100810000Y-33040000D03*
%TD*%
%TO.C,K22*%
X76460000Y-74580000D03*
D11*
X79000000Y-69500000D03*
D10*
X82810000Y-72040000D03*
%TD*%
D12*
%TO.C,J1*%
X161550000Y-84200000D03*
X162650000Y-88800000D03*
X166650000Y-88800000D03*
X169650000Y-88800000D03*
%TD*%
D10*
%TO.C,K15*%
X130460000Y-59580000D03*
D11*
X133000000Y-54500000D03*
D10*
X136810000Y-57040000D03*
%TD*%
%TO.C,K32*%
X148644770Y-101607975D03*
D11*
X153093692Y-98077382D03*
D10*
X155473274Y-101989579D03*
%TD*%
%TO.C,K11*%
X58960000Y-69580000D03*
D11*
X61500000Y-64500000D03*
D10*
X65310000Y-67040000D03*
%TD*%
%TO.C,K05*%
X130460000Y-42580000D03*
D11*
X133000000Y-37500000D03*
D10*
X136810000Y-40040000D03*
%TD*%
%TO.C,K20*%
X47040000Y-76420000D03*
D11*
X44500000Y-81500000D03*
D10*
X40690000Y-78960000D03*
%TD*%
%TO.C,K13*%
X94460000Y-52580000D03*
D11*
X97000000Y-47500000D03*
D10*
X100810000Y-50040000D03*
%TD*%
%TO.C,K00*%
X47040000Y-42420000D03*
D11*
X44500000Y-47500000D03*
D10*
X40690000Y-44960000D03*
%TD*%
%TO.C,K31*%
X128631648Y-95888109D03*
D11*
X132015192Y-91326352D03*
D10*
X135326243Y-94489363D03*
%TD*%
M02*
