%TF.GenerationSoftware,KiCad,Pcbnew,8.0.3*%
%TF.CreationDate,2024-06-11T01:45:41-03:00*%
%TF.ProjectId,keyboard_pcb,6b657962-6f61-4726-945f-7063622e6b69,rev1.0*%
%TF.SameCoordinates,Original*%
%TF.FileFunction,Legend,Bot*%
%TF.FilePolarity,Positive*%
%FSLAX46Y46*%
G04 Gerber Fmt 4.6, Leading zero omitted, Abs format (unit mm)*
G04 Created by KiCad (PCBNEW 8.0.3) date 2024-06-11 01:45:41*
%MOMM*%
%LPD*%
G01*
G04 APERTURE LIST*
%ADD10C,0.150000*%
%ADD11C,0.120000*%
G04 APERTURE END LIST*
D10*
X164214285Y-102709819D02*
X164214285Y-101709819D01*
X163642857Y-102709819D02*
X164071428Y-102138390D01*
X163642857Y-101709819D02*
X164214285Y-102281247D01*
X163261904Y-101805057D02*
X163214285Y-101757438D01*
X163214285Y-101757438D02*
X163119047Y-101709819D01*
X163119047Y-101709819D02*
X162880952Y-101709819D01*
X162880952Y-101709819D02*
X162785714Y-101757438D01*
X162785714Y-101757438D02*
X162738095Y-101805057D01*
X162738095Y-101805057D02*
X162690476Y-101900295D01*
X162690476Y-101900295D02*
X162690476Y-101995533D01*
X162690476Y-101995533D02*
X162738095Y-102138390D01*
X162738095Y-102138390D02*
X163309523Y-102709819D01*
X163309523Y-102709819D02*
X162690476Y-102709819D01*
X161785714Y-101709819D02*
X162261904Y-101709819D01*
X162261904Y-101709819D02*
X162309523Y-102186009D01*
X162309523Y-102186009D02*
X162261904Y-102138390D01*
X162261904Y-102138390D02*
X162166666Y-102090771D01*
X162166666Y-102090771D02*
X161928571Y-102090771D01*
X161928571Y-102090771D02*
X161833333Y-102138390D01*
X161833333Y-102138390D02*
X161785714Y-102186009D01*
X161785714Y-102186009D02*
X161738095Y-102281247D01*
X161738095Y-102281247D02*
X161738095Y-102519342D01*
X161738095Y-102519342D02*
X161785714Y-102614580D01*
X161785714Y-102614580D02*
X161833333Y-102662200D01*
X161833333Y-102662200D02*
X161928571Y-102709819D01*
X161928571Y-102709819D02*
X162166666Y-102709819D01*
X162166666Y-102709819D02*
X162261904Y-102662200D01*
X162261904Y-102662200D02*
X162309523Y-102614580D01*
X146214285Y-100709819D02*
X146214285Y-99709819D01*
X145642857Y-100709819D02*
X146071428Y-100138390D01*
X145642857Y-99709819D02*
X146214285Y-100281247D01*
X145261904Y-99805057D02*
X145214285Y-99757438D01*
X145214285Y-99757438D02*
X145119047Y-99709819D01*
X145119047Y-99709819D02*
X144880952Y-99709819D01*
X144880952Y-99709819D02*
X144785714Y-99757438D01*
X144785714Y-99757438D02*
X144738095Y-99805057D01*
X144738095Y-99805057D02*
X144690476Y-99900295D01*
X144690476Y-99900295D02*
X144690476Y-99995533D01*
X144690476Y-99995533D02*
X144738095Y-100138390D01*
X144738095Y-100138390D02*
X145309523Y-100709819D01*
X145309523Y-100709819D02*
X144690476Y-100709819D01*
X143833333Y-100043152D02*
X143833333Y-100709819D01*
X144071428Y-99662200D02*
X144309523Y-100376485D01*
X144309523Y-100376485D02*
X143690476Y-100376485D01*
X92714285Y-112709819D02*
X92714285Y-111709819D01*
X92142857Y-112709819D02*
X92571428Y-112138390D01*
X92142857Y-111709819D02*
X92714285Y-112281247D01*
X91761904Y-111805057D02*
X91714285Y-111757438D01*
X91714285Y-111757438D02*
X91619047Y-111709819D01*
X91619047Y-111709819D02*
X91380952Y-111709819D01*
X91380952Y-111709819D02*
X91285714Y-111757438D01*
X91285714Y-111757438D02*
X91238095Y-111805057D01*
X91238095Y-111805057D02*
X91190476Y-111900295D01*
X91190476Y-111900295D02*
X91190476Y-111995533D01*
X91190476Y-111995533D02*
X91238095Y-112138390D01*
X91238095Y-112138390D02*
X91809523Y-112709819D01*
X91809523Y-112709819D02*
X91190476Y-112709819D01*
X90238095Y-112709819D02*
X90809523Y-112709819D01*
X90523809Y-112709819D02*
X90523809Y-111709819D01*
X90523809Y-111709819D02*
X90619047Y-111852676D01*
X90619047Y-111852676D02*
X90714285Y-111947914D01*
X90714285Y-111947914D02*
X90809523Y-111995533D01*
X110214285Y-66709819D02*
X110214285Y-65709819D01*
X109642857Y-66709819D02*
X110071428Y-66138390D01*
X109642857Y-65709819D02*
X110214285Y-66281247D01*
X109023809Y-65709819D02*
X108928571Y-65709819D01*
X108928571Y-65709819D02*
X108833333Y-65757438D01*
X108833333Y-65757438D02*
X108785714Y-65805057D01*
X108785714Y-65805057D02*
X108738095Y-65900295D01*
X108738095Y-65900295D02*
X108690476Y-66090771D01*
X108690476Y-66090771D02*
X108690476Y-66328866D01*
X108690476Y-66328866D02*
X108738095Y-66519342D01*
X108738095Y-66519342D02*
X108785714Y-66614580D01*
X108785714Y-66614580D02*
X108833333Y-66662200D01*
X108833333Y-66662200D02*
X108928571Y-66709819D01*
X108928571Y-66709819D02*
X109023809Y-66709819D01*
X109023809Y-66709819D02*
X109119047Y-66662200D01*
X109119047Y-66662200D02*
X109166666Y-66614580D01*
X109166666Y-66614580D02*
X109214285Y-66519342D01*
X109214285Y-66519342D02*
X109261904Y-66328866D01*
X109261904Y-66328866D02*
X109261904Y-66090771D01*
X109261904Y-66090771D02*
X109214285Y-65900295D01*
X109214285Y-65900295D02*
X109166666Y-65805057D01*
X109166666Y-65805057D02*
X109119047Y-65757438D01*
X109119047Y-65757438D02*
X109023809Y-65709819D01*
X108309523Y-65805057D02*
X108261904Y-65757438D01*
X108261904Y-65757438D02*
X108166666Y-65709819D01*
X108166666Y-65709819D02*
X107928571Y-65709819D01*
X107928571Y-65709819D02*
X107833333Y-65757438D01*
X107833333Y-65757438D02*
X107785714Y-65805057D01*
X107785714Y-65805057D02*
X107738095Y-65900295D01*
X107738095Y-65900295D02*
X107738095Y-65995533D01*
X107738095Y-65995533D02*
X107785714Y-66138390D01*
X107785714Y-66138390D02*
X108357142Y-66709819D01*
X108357142Y-66709819D02*
X107738095Y-66709819D01*
X75214285Y-95709819D02*
X75214285Y-94709819D01*
X74642857Y-95709819D02*
X75071428Y-95138390D01*
X74642857Y-94709819D02*
X75214285Y-95281247D01*
X73690476Y-95709819D02*
X74261904Y-95709819D01*
X73976190Y-95709819D02*
X73976190Y-94709819D01*
X73976190Y-94709819D02*
X74071428Y-94852676D01*
X74071428Y-94852676D02*
X74166666Y-94947914D01*
X74166666Y-94947914D02*
X74261904Y-94995533D01*
X73071428Y-94709819D02*
X72976190Y-94709819D01*
X72976190Y-94709819D02*
X72880952Y-94757438D01*
X72880952Y-94757438D02*
X72833333Y-94805057D01*
X72833333Y-94805057D02*
X72785714Y-94900295D01*
X72785714Y-94900295D02*
X72738095Y-95090771D01*
X72738095Y-95090771D02*
X72738095Y-95328866D01*
X72738095Y-95328866D02*
X72785714Y-95519342D01*
X72785714Y-95519342D02*
X72833333Y-95614580D01*
X72833333Y-95614580D02*
X72880952Y-95662200D01*
X72880952Y-95662200D02*
X72976190Y-95709819D01*
X72976190Y-95709819D02*
X73071428Y-95709819D01*
X73071428Y-95709819D02*
X73166666Y-95662200D01*
X73166666Y-95662200D02*
X73214285Y-95614580D01*
X73214285Y-95614580D02*
X73261904Y-95519342D01*
X73261904Y-95519342D02*
X73309523Y-95328866D01*
X73309523Y-95328866D02*
X73309523Y-95090771D01*
X73309523Y-95090771D02*
X73261904Y-94900295D01*
X73261904Y-94900295D02*
X73214285Y-94805057D01*
X73214285Y-94805057D02*
X73166666Y-94757438D01*
X73166666Y-94757438D02*
X73071428Y-94709819D01*
X146214285Y-66709819D02*
X146214285Y-65709819D01*
X145642857Y-66709819D02*
X146071428Y-66138390D01*
X145642857Y-65709819D02*
X146214285Y-66281247D01*
X145023809Y-65709819D02*
X144928571Y-65709819D01*
X144928571Y-65709819D02*
X144833333Y-65757438D01*
X144833333Y-65757438D02*
X144785714Y-65805057D01*
X144785714Y-65805057D02*
X144738095Y-65900295D01*
X144738095Y-65900295D02*
X144690476Y-66090771D01*
X144690476Y-66090771D02*
X144690476Y-66328866D01*
X144690476Y-66328866D02*
X144738095Y-66519342D01*
X144738095Y-66519342D02*
X144785714Y-66614580D01*
X144785714Y-66614580D02*
X144833333Y-66662200D01*
X144833333Y-66662200D02*
X144928571Y-66709819D01*
X144928571Y-66709819D02*
X145023809Y-66709819D01*
X145023809Y-66709819D02*
X145119047Y-66662200D01*
X145119047Y-66662200D02*
X145166666Y-66614580D01*
X145166666Y-66614580D02*
X145214285Y-66519342D01*
X145214285Y-66519342D02*
X145261904Y-66328866D01*
X145261904Y-66328866D02*
X145261904Y-66090771D01*
X145261904Y-66090771D02*
X145214285Y-65900295D01*
X145214285Y-65900295D02*
X145166666Y-65805057D01*
X145166666Y-65805057D02*
X145119047Y-65757438D01*
X145119047Y-65757438D02*
X145023809Y-65709819D01*
X143833333Y-66043152D02*
X143833333Y-66709819D01*
X144071428Y-65662200D02*
X144309523Y-66376485D01*
X144309523Y-66376485D02*
X143690476Y-66376485D01*
X110214285Y-83709819D02*
X110214285Y-82709819D01*
X109642857Y-83709819D02*
X110071428Y-83138390D01*
X109642857Y-82709819D02*
X110214285Y-83281247D01*
X108690476Y-83709819D02*
X109261904Y-83709819D01*
X108976190Y-83709819D02*
X108976190Y-82709819D01*
X108976190Y-82709819D02*
X109071428Y-82852676D01*
X109071428Y-82852676D02*
X109166666Y-82947914D01*
X109166666Y-82947914D02*
X109261904Y-82995533D01*
X108309523Y-82805057D02*
X108261904Y-82757438D01*
X108261904Y-82757438D02*
X108166666Y-82709819D01*
X108166666Y-82709819D02*
X107928571Y-82709819D01*
X107928571Y-82709819D02*
X107833333Y-82757438D01*
X107833333Y-82757438D02*
X107785714Y-82805057D01*
X107785714Y-82805057D02*
X107738095Y-82900295D01*
X107738095Y-82900295D02*
X107738095Y-82995533D01*
X107738095Y-82995533D02*
X107785714Y-83138390D01*
X107785714Y-83138390D02*
X108357142Y-83709819D01*
X108357142Y-83709819D02*
X107738095Y-83709819D01*
X141972581Y-121657999D02*
X141885425Y-120661804D01*
X141403327Y-121707802D02*
X141780464Y-121101196D01*
X141316171Y-120711607D02*
X141935228Y-121231058D01*
X140984106Y-120740659D02*
X140367414Y-120794613D01*
X140367414Y-120794613D02*
X140732681Y-121145064D01*
X140732681Y-121145064D02*
X140590367Y-121157515D01*
X140590367Y-121157515D02*
X140499642Y-121213253D01*
X140499642Y-121213253D02*
X140456354Y-121264841D01*
X140456354Y-121264841D02*
X140417217Y-121363867D01*
X140417217Y-121363867D02*
X140437969Y-121601056D01*
X140437969Y-121601056D02*
X140493707Y-121691782D01*
X140493707Y-121691782D02*
X140545295Y-121735069D01*
X140545295Y-121735069D02*
X140644321Y-121774207D01*
X140644321Y-121774207D02*
X140928948Y-121749305D01*
X140928948Y-121749305D02*
X141019674Y-121693566D01*
X141019674Y-121693566D02*
X141062961Y-121641978D01*
X139750722Y-120848566D02*
X139655846Y-120856867D01*
X139655846Y-120856867D02*
X139565121Y-120912605D01*
X139565121Y-120912605D02*
X139521833Y-120964194D01*
X139521833Y-120964194D02*
X139482696Y-121063219D01*
X139482696Y-121063219D02*
X139451859Y-121257121D01*
X139451859Y-121257121D02*
X139472611Y-121494310D01*
X139472611Y-121494310D02*
X139536650Y-121679911D01*
X139536650Y-121679911D02*
X139592388Y-121770637D01*
X139592388Y-121770637D02*
X139643976Y-121813924D01*
X139643976Y-121813924D02*
X139743002Y-121853062D01*
X139743002Y-121853062D02*
X139837878Y-121844761D01*
X139837878Y-121844761D02*
X139928603Y-121789023D01*
X139928603Y-121789023D02*
X139971891Y-121737435D01*
X139971891Y-121737435D02*
X140011028Y-121638409D01*
X140011028Y-121638409D02*
X140041865Y-121444507D01*
X140041865Y-121444507D02*
X140021113Y-121207318D01*
X140021113Y-121207318D02*
X139957074Y-121021717D01*
X139957074Y-121021717D02*
X139901336Y-120930991D01*
X139901336Y-120930991D02*
X139849748Y-120887704D01*
X139849748Y-120887704D02*
X139750722Y-120848566D01*
X92714285Y-78709819D02*
X92714285Y-77709819D01*
X92142857Y-78709819D02*
X92571428Y-78138390D01*
X92142857Y-77709819D02*
X92714285Y-78281247D01*
X91523809Y-77709819D02*
X91428571Y-77709819D01*
X91428571Y-77709819D02*
X91333333Y-77757438D01*
X91333333Y-77757438D02*
X91285714Y-77805057D01*
X91285714Y-77805057D02*
X91238095Y-77900295D01*
X91238095Y-77900295D02*
X91190476Y-78090771D01*
X91190476Y-78090771D02*
X91190476Y-78328866D01*
X91190476Y-78328866D02*
X91238095Y-78519342D01*
X91238095Y-78519342D02*
X91285714Y-78614580D01*
X91285714Y-78614580D02*
X91333333Y-78662200D01*
X91333333Y-78662200D02*
X91428571Y-78709819D01*
X91428571Y-78709819D02*
X91523809Y-78709819D01*
X91523809Y-78709819D02*
X91619047Y-78662200D01*
X91619047Y-78662200D02*
X91666666Y-78614580D01*
X91666666Y-78614580D02*
X91714285Y-78519342D01*
X91714285Y-78519342D02*
X91761904Y-78328866D01*
X91761904Y-78328866D02*
X91761904Y-78090771D01*
X91761904Y-78090771D02*
X91714285Y-77900295D01*
X91714285Y-77900295D02*
X91666666Y-77805057D01*
X91666666Y-77805057D02*
X91619047Y-77757438D01*
X91619047Y-77757438D02*
X91523809Y-77709819D01*
X90238095Y-78709819D02*
X90809523Y-78709819D01*
X90523809Y-78709819D02*
X90523809Y-77709819D01*
X90523809Y-77709819D02*
X90619047Y-77852676D01*
X90619047Y-77852676D02*
X90714285Y-77947914D01*
X90714285Y-77947914D02*
X90809523Y-77995533D01*
X146214285Y-83709819D02*
X146214285Y-82709819D01*
X145642857Y-83709819D02*
X146071428Y-83138390D01*
X145642857Y-82709819D02*
X146214285Y-83281247D01*
X144690476Y-83709819D02*
X145261904Y-83709819D01*
X144976190Y-83709819D02*
X144976190Y-82709819D01*
X144976190Y-82709819D02*
X145071428Y-82852676D01*
X145071428Y-82852676D02*
X145166666Y-82947914D01*
X145166666Y-82947914D02*
X145261904Y-82995533D01*
X143833333Y-83043152D02*
X143833333Y-83709819D01*
X144071428Y-82662200D02*
X144309523Y-83376485D01*
X144309523Y-83376485D02*
X143690476Y-83376485D01*
X128214285Y-95709819D02*
X128214285Y-94709819D01*
X127642857Y-95709819D02*
X128071428Y-95138390D01*
X127642857Y-94709819D02*
X128214285Y-95281247D01*
X127261904Y-94805057D02*
X127214285Y-94757438D01*
X127214285Y-94757438D02*
X127119047Y-94709819D01*
X127119047Y-94709819D02*
X126880952Y-94709819D01*
X126880952Y-94709819D02*
X126785714Y-94757438D01*
X126785714Y-94757438D02*
X126738095Y-94805057D01*
X126738095Y-94805057D02*
X126690476Y-94900295D01*
X126690476Y-94900295D02*
X126690476Y-94995533D01*
X126690476Y-94995533D02*
X126738095Y-95138390D01*
X126738095Y-95138390D02*
X127309523Y-95709819D01*
X127309523Y-95709819D02*
X126690476Y-95709819D01*
X126357142Y-94709819D02*
X125738095Y-94709819D01*
X125738095Y-94709819D02*
X126071428Y-95090771D01*
X126071428Y-95090771D02*
X125928571Y-95090771D01*
X125928571Y-95090771D02*
X125833333Y-95138390D01*
X125833333Y-95138390D02*
X125785714Y-95186009D01*
X125785714Y-95186009D02*
X125738095Y-95281247D01*
X125738095Y-95281247D02*
X125738095Y-95519342D01*
X125738095Y-95519342D02*
X125785714Y-95614580D01*
X125785714Y-95614580D02*
X125833333Y-95662200D01*
X125833333Y-95662200D02*
X125928571Y-95709819D01*
X125928571Y-95709819D02*
X126214285Y-95709819D01*
X126214285Y-95709819D02*
X126309523Y-95662200D01*
X126309523Y-95662200D02*
X126357142Y-95614580D01*
X128214285Y-61709819D02*
X128214285Y-60709819D01*
X127642857Y-61709819D02*
X128071428Y-61138390D01*
X127642857Y-60709819D02*
X128214285Y-61281247D01*
X127023809Y-60709819D02*
X126928571Y-60709819D01*
X126928571Y-60709819D02*
X126833333Y-60757438D01*
X126833333Y-60757438D02*
X126785714Y-60805057D01*
X126785714Y-60805057D02*
X126738095Y-60900295D01*
X126738095Y-60900295D02*
X126690476Y-61090771D01*
X126690476Y-61090771D02*
X126690476Y-61328866D01*
X126690476Y-61328866D02*
X126738095Y-61519342D01*
X126738095Y-61519342D02*
X126785714Y-61614580D01*
X126785714Y-61614580D02*
X126833333Y-61662200D01*
X126833333Y-61662200D02*
X126928571Y-61709819D01*
X126928571Y-61709819D02*
X127023809Y-61709819D01*
X127023809Y-61709819D02*
X127119047Y-61662200D01*
X127119047Y-61662200D02*
X127166666Y-61614580D01*
X127166666Y-61614580D02*
X127214285Y-61519342D01*
X127214285Y-61519342D02*
X127261904Y-61328866D01*
X127261904Y-61328866D02*
X127261904Y-61090771D01*
X127261904Y-61090771D02*
X127214285Y-60900295D01*
X127214285Y-60900295D02*
X127166666Y-60805057D01*
X127166666Y-60805057D02*
X127119047Y-60757438D01*
X127119047Y-60757438D02*
X127023809Y-60709819D01*
X126357142Y-60709819D02*
X125738095Y-60709819D01*
X125738095Y-60709819D02*
X126071428Y-61090771D01*
X126071428Y-61090771D02*
X125928571Y-61090771D01*
X125928571Y-61090771D02*
X125833333Y-61138390D01*
X125833333Y-61138390D02*
X125785714Y-61186009D01*
X125785714Y-61186009D02*
X125738095Y-61281247D01*
X125738095Y-61281247D02*
X125738095Y-61519342D01*
X125738095Y-61519342D02*
X125785714Y-61614580D01*
X125785714Y-61614580D02*
X125833333Y-61662200D01*
X125833333Y-61662200D02*
X125928571Y-61709819D01*
X125928571Y-61709819D02*
X126214285Y-61709819D01*
X126214285Y-61709819D02*
X126309523Y-61662200D01*
X126309523Y-61662200D02*
X126357142Y-61614580D01*
X110214285Y-100709819D02*
X110214285Y-99709819D01*
X109642857Y-100709819D02*
X110071428Y-100138390D01*
X109642857Y-99709819D02*
X110214285Y-100281247D01*
X109261904Y-99805057D02*
X109214285Y-99757438D01*
X109214285Y-99757438D02*
X109119047Y-99709819D01*
X109119047Y-99709819D02*
X108880952Y-99709819D01*
X108880952Y-99709819D02*
X108785714Y-99757438D01*
X108785714Y-99757438D02*
X108738095Y-99805057D01*
X108738095Y-99805057D02*
X108690476Y-99900295D01*
X108690476Y-99900295D02*
X108690476Y-99995533D01*
X108690476Y-99995533D02*
X108738095Y-100138390D01*
X108738095Y-100138390D02*
X109309523Y-100709819D01*
X109309523Y-100709819D02*
X108690476Y-100709819D01*
X108309523Y-99805057D02*
X108261904Y-99757438D01*
X108261904Y-99757438D02*
X108166666Y-99709819D01*
X108166666Y-99709819D02*
X107928571Y-99709819D01*
X107928571Y-99709819D02*
X107833333Y-99757438D01*
X107833333Y-99757438D02*
X107785714Y-99805057D01*
X107785714Y-99805057D02*
X107738095Y-99900295D01*
X107738095Y-99900295D02*
X107738095Y-99995533D01*
X107738095Y-99995533D02*
X107785714Y-100138390D01*
X107785714Y-100138390D02*
X108357142Y-100709819D01*
X108357142Y-100709819D02*
X107738095Y-100709819D01*
X164214285Y-85709819D02*
X164214285Y-84709819D01*
X163642857Y-85709819D02*
X164071428Y-85138390D01*
X163642857Y-84709819D02*
X164214285Y-85281247D01*
X162690476Y-85709819D02*
X163261904Y-85709819D01*
X162976190Y-85709819D02*
X162976190Y-84709819D01*
X162976190Y-84709819D02*
X163071428Y-84852676D01*
X163071428Y-84852676D02*
X163166666Y-84947914D01*
X163166666Y-84947914D02*
X163261904Y-84995533D01*
X161785714Y-84709819D02*
X162261904Y-84709819D01*
X162261904Y-84709819D02*
X162309523Y-85186009D01*
X162309523Y-85186009D02*
X162261904Y-85138390D01*
X162261904Y-85138390D02*
X162166666Y-85090771D01*
X162166666Y-85090771D02*
X161928571Y-85090771D01*
X161928571Y-85090771D02*
X161833333Y-85138390D01*
X161833333Y-85138390D02*
X161785714Y-85186009D01*
X161785714Y-85186009D02*
X161738095Y-85281247D01*
X161738095Y-85281247D02*
X161738095Y-85519342D01*
X161738095Y-85519342D02*
X161785714Y-85614580D01*
X161785714Y-85614580D02*
X161833333Y-85662200D01*
X161833333Y-85662200D02*
X161928571Y-85709819D01*
X161928571Y-85709819D02*
X162166666Y-85709819D01*
X162166666Y-85709819D02*
X162261904Y-85662200D01*
X162261904Y-85662200D02*
X162309523Y-85614580D01*
X180513279Y-128984338D02*
X180935898Y-128078030D01*
X179995389Y-128742842D02*
X180625303Y-128406074D01*
X180418007Y-127836534D02*
X180694401Y-128595920D01*
X180115905Y-127695661D02*
X179554857Y-127434040D01*
X179554857Y-127434040D02*
X179695962Y-127920173D01*
X179695962Y-127920173D02*
X179566490Y-127859799D01*
X179566490Y-127859799D02*
X179460050Y-127862707D01*
X179460050Y-127862707D02*
X179396768Y-127885740D01*
X179396768Y-127885740D02*
X179313361Y-127951931D01*
X179313361Y-127951931D02*
X179212738Y-128167718D01*
X179212738Y-128167718D02*
X179215646Y-128274158D01*
X179215646Y-128274158D02*
X179238679Y-128337440D01*
X179238679Y-128337440D02*
X179304869Y-128420847D01*
X179304869Y-128420847D02*
X179563814Y-128541595D01*
X179563814Y-128541595D02*
X179670254Y-128538687D01*
X179670254Y-128538687D02*
X179733536Y-128515654D01*
X179169348Y-127359358D02*
X179146315Y-127296076D01*
X179146315Y-127296076D02*
X179080124Y-127212669D01*
X179080124Y-127212669D02*
X178864337Y-127112045D01*
X178864337Y-127112045D02*
X178757897Y-127114954D01*
X178757897Y-127114954D02*
X178694615Y-127137986D01*
X178694615Y-127137986D02*
X178611208Y-127204177D01*
X178611208Y-127204177D02*
X178570959Y-127290492D01*
X178570959Y-127290492D02*
X178553742Y-127440089D01*
X178553742Y-127440089D02*
X178830136Y-128199475D01*
X178830136Y-128199475D02*
X178269089Y-127937855D01*
X92714285Y-95709819D02*
X92714285Y-94709819D01*
X92142857Y-95709819D02*
X92571428Y-95138390D01*
X92142857Y-94709819D02*
X92714285Y-95281247D01*
X91190476Y-95709819D02*
X91761904Y-95709819D01*
X91476190Y-95709819D02*
X91476190Y-94709819D01*
X91476190Y-94709819D02*
X91571428Y-94852676D01*
X91571428Y-94852676D02*
X91666666Y-94947914D01*
X91666666Y-94947914D02*
X91761904Y-94995533D01*
X90238095Y-95709819D02*
X90809523Y-95709819D01*
X90523809Y-95709819D02*
X90523809Y-94709819D01*
X90523809Y-94709819D02*
X90619047Y-94852676D01*
X90619047Y-94852676D02*
X90714285Y-94947914D01*
X90714285Y-94947914D02*
X90809523Y-94995533D01*
X164214285Y-68709819D02*
X164214285Y-67709819D01*
X163642857Y-68709819D02*
X164071428Y-68138390D01*
X163642857Y-67709819D02*
X164214285Y-68281247D01*
X163023809Y-67709819D02*
X162928571Y-67709819D01*
X162928571Y-67709819D02*
X162833333Y-67757438D01*
X162833333Y-67757438D02*
X162785714Y-67805057D01*
X162785714Y-67805057D02*
X162738095Y-67900295D01*
X162738095Y-67900295D02*
X162690476Y-68090771D01*
X162690476Y-68090771D02*
X162690476Y-68328866D01*
X162690476Y-68328866D02*
X162738095Y-68519342D01*
X162738095Y-68519342D02*
X162785714Y-68614580D01*
X162785714Y-68614580D02*
X162833333Y-68662200D01*
X162833333Y-68662200D02*
X162928571Y-68709819D01*
X162928571Y-68709819D02*
X163023809Y-68709819D01*
X163023809Y-68709819D02*
X163119047Y-68662200D01*
X163119047Y-68662200D02*
X163166666Y-68614580D01*
X163166666Y-68614580D02*
X163214285Y-68519342D01*
X163214285Y-68519342D02*
X163261904Y-68328866D01*
X163261904Y-68328866D02*
X163261904Y-68090771D01*
X163261904Y-68090771D02*
X163214285Y-67900295D01*
X163214285Y-67900295D02*
X163166666Y-67805057D01*
X163166666Y-67805057D02*
X163119047Y-67757438D01*
X163119047Y-67757438D02*
X163023809Y-67709819D01*
X161785714Y-67709819D02*
X162261904Y-67709819D01*
X162261904Y-67709819D02*
X162309523Y-68186009D01*
X162309523Y-68186009D02*
X162261904Y-68138390D01*
X162261904Y-68138390D02*
X162166666Y-68090771D01*
X162166666Y-68090771D02*
X161928571Y-68090771D01*
X161928571Y-68090771D02*
X161833333Y-68138390D01*
X161833333Y-68138390D02*
X161785714Y-68186009D01*
X161785714Y-68186009D02*
X161738095Y-68281247D01*
X161738095Y-68281247D02*
X161738095Y-68519342D01*
X161738095Y-68519342D02*
X161785714Y-68614580D01*
X161785714Y-68614580D02*
X161833333Y-68662200D01*
X161833333Y-68662200D02*
X161928571Y-68709819D01*
X161928571Y-68709819D02*
X162166666Y-68709819D01*
X162166666Y-68709819D02*
X162261904Y-68662200D01*
X162261904Y-68662200D02*
X162309523Y-68614580D01*
X75214285Y-112709819D02*
X75214285Y-111709819D01*
X74642857Y-112709819D02*
X75071428Y-112138390D01*
X74642857Y-111709819D02*
X75214285Y-112281247D01*
X74261904Y-111805057D02*
X74214285Y-111757438D01*
X74214285Y-111757438D02*
X74119047Y-111709819D01*
X74119047Y-111709819D02*
X73880952Y-111709819D01*
X73880952Y-111709819D02*
X73785714Y-111757438D01*
X73785714Y-111757438D02*
X73738095Y-111805057D01*
X73738095Y-111805057D02*
X73690476Y-111900295D01*
X73690476Y-111900295D02*
X73690476Y-111995533D01*
X73690476Y-111995533D02*
X73738095Y-112138390D01*
X73738095Y-112138390D02*
X74309523Y-112709819D01*
X74309523Y-112709819D02*
X73690476Y-112709819D01*
X73071428Y-111709819D02*
X72976190Y-111709819D01*
X72976190Y-111709819D02*
X72880952Y-111757438D01*
X72880952Y-111757438D02*
X72833333Y-111805057D01*
X72833333Y-111805057D02*
X72785714Y-111900295D01*
X72785714Y-111900295D02*
X72738095Y-112090771D01*
X72738095Y-112090771D02*
X72738095Y-112328866D01*
X72738095Y-112328866D02*
X72785714Y-112519342D01*
X72785714Y-112519342D02*
X72833333Y-112614580D01*
X72833333Y-112614580D02*
X72880952Y-112662200D01*
X72880952Y-112662200D02*
X72976190Y-112709819D01*
X72976190Y-112709819D02*
X73071428Y-112709819D01*
X73071428Y-112709819D02*
X73166666Y-112662200D01*
X73166666Y-112662200D02*
X73214285Y-112614580D01*
X73214285Y-112614580D02*
X73261904Y-112519342D01*
X73261904Y-112519342D02*
X73309523Y-112328866D01*
X73309523Y-112328866D02*
X73309523Y-112090771D01*
X73309523Y-112090771D02*
X73261904Y-111900295D01*
X73261904Y-111900295D02*
X73214285Y-111805057D01*
X73214285Y-111805057D02*
X73166666Y-111757438D01*
X73166666Y-111757438D02*
X73071428Y-111709819D01*
X128214285Y-78709819D02*
X128214285Y-77709819D01*
X127642857Y-78709819D02*
X128071428Y-78138390D01*
X127642857Y-77709819D02*
X128214285Y-78281247D01*
X126690476Y-78709819D02*
X127261904Y-78709819D01*
X126976190Y-78709819D02*
X126976190Y-77709819D01*
X126976190Y-77709819D02*
X127071428Y-77852676D01*
X127071428Y-77852676D02*
X127166666Y-77947914D01*
X127166666Y-77947914D02*
X127261904Y-77995533D01*
X126357142Y-77709819D02*
X125738095Y-77709819D01*
X125738095Y-77709819D02*
X126071428Y-78090771D01*
X126071428Y-78090771D02*
X125928571Y-78090771D01*
X125928571Y-78090771D02*
X125833333Y-78138390D01*
X125833333Y-78138390D02*
X125785714Y-78186009D01*
X125785714Y-78186009D02*
X125738095Y-78281247D01*
X125738095Y-78281247D02*
X125738095Y-78519342D01*
X125738095Y-78519342D02*
X125785714Y-78614580D01*
X125785714Y-78614580D02*
X125833333Y-78662200D01*
X125833333Y-78662200D02*
X125928571Y-78709819D01*
X125928571Y-78709819D02*
X126214285Y-78709819D01*
X126214285Y-78709819D02*
X126309523Y-78662200D01*
X126309523Y-78662200D02*
X126357142Y-78614580D01*
X75214285Y-78709819D02*
X75214285Y-77709819D01*
X74642857Y-78709819D02*
X75071428Y-78138390D01*
X74642857Y-77709819D02*
X75214285Y-78281247D01*
X74023809Y-77709819D02*
X73928571Y-77709819D01*
X73928571Y-77709819D02*
X73833333Y-77757438D01*
X73833333Y-77757438D02*
X73785714Y-77805057D01*
X73785714Y-77805057D02*
X73738095Y-77900295D01*
X73738095Y-77900295D02*
X73690476Y-78090771D01*
X73690476Y-78090771D02*
X73690476Y-78328866D01*
X73690476Y-78328866D02*
X73738095Y-78519342D01*
X73738095Y-78519342D02*
X73785714Y-78614580D01*
X73785714Y-78614580D02*
X73833333Y-78662200D01*
X73833333Y-78662200D02*
X73928571Y-78709819D01*
X73928571Y-78709819D02*
X74023809Y-78709819D01*
X74023809Y-78709819D02*
X74119047Y-78662200D01*
X74119047Y-78662200D02*
X74166666Y-78614580D01*
X74166666Y-78614580D02*
X74214285Y-78519342D01*
X74214285Y-78519342D02*
X74261904Y-78328866D01*
X74261904Y-78328866D02*
X74261904Y-78090771D01*
X74261904Y-78090771D02*
X74214285Y-77900295D01*
X74214285Y-77900295D02*
X74166666Y-77805057D01*
X74166666Y-77805057D02*
X74119047Y-77757438D01*
X74119047Y-77757438D02*
X74023809Y-77709819D01*
X73071428Y-77709819D02*
X72976190Y-77709819D01*
X72976190Y-77709819D02*
X72880952Y-77757438D01*
X72880952Y-77757438D02*
X72833333Y-77805057D01*
X72833333Y-77805057D02*
X72785714Y-77900295D01*
X72785714Y-77900295D02*
X72738095Y-78090771D01*
X72738095Y-78090771D02*
X72738095Y-78328866D01*
X72738095Y-78328866D02*
X72785714Y-78519342D01*
X72785714Y-78519342D02*
X72833333Y-78614580D01*
X72833333Y-78614580D02*
X72880952Y-78662200D01*
X72880952Y-78662200D02*
X72976190Y-78709819D01*
X72976190Y-78709819D02*
X73071428Y-78709819D01*
X73071428Y-78709819D02*
X73166666Y-78662200D01*
X73166666Y-78662200D02*
X73214285Y-78614580D01*
X73214285Y-78614580D02*
X73261904Y-78519342D01*
X73261904Y-78519342D02*
X73309523Y-78328866D01*
X73309523Y-78328866D02*
X73309523Y-78090771D01*
X73309523Y-78090771D02*
X73261904Y-77900295D01*
X73261904Y-77900295D02*
X73214285Y-77805057D01*
X73214285Y-77805057D02*
X73166666Y-77757438D01*
X73166666Y-77757438D02*
X73071428Y-77709819D01*
X161698586Y-122614707D02*
X161872234Y-121629900D01*
X161135839Y-122515480D02*
X161657127Y-122027153D01*
X161309487Y-121530672D02*
X161773007Y-122192647D01*
X160981218Y-121472789D02*
X160371575Y-121365293D01*
X160371575Y-121365293D02*
X160633692Y-121798340D01*
X160633692Y-121798340D02*
X160493006Y-121773534D01*
X160493006Y-121773534D02*
X160390945Y-121803891D01*
X160390945Y-121803891D02*
X160335781Y-121842518D01*
X160335781Y-121842518D02*
X160272347Y-121928040D01*
X160272347Y-121928040D02*
X160231002Y-122162518D01*
X160231002Y-122162518D02*
X160261360Y-122264578D01*
X160261360Y-122264578D02*
X160299987Y-122319743D01*
X160299987Y-122319743D02*
X160385509Y-122383176D01*
X160385509Y-122383176D02*
X160666883Y-122432790D01*
X160666883Y-122432790D02*
X160768943Y-122402433D01*
X160768943Y-122402433D02*
X160824107Y-122363806D01*
X159260014Y-122184721D02*
X159822762Y-122283949D01*
X159541388Y-122234335D02*
X159715036Y-121249527D01*
X159715036Y-121249527D02*
X159784021Y-121406752D01*
X159784021Y-121406752D02*
X159861274Y-121517081D01*
X159861274Y-121517081D02*
X159946796Y-121580515D01*
X196153066Y-64564419D02*
X196486399Y-64088228D01*
X196724494Y-64564419D02*
X196724494Y-63564419D01*
X196724494Y-63564419D02*
X196343542Y-63564419D01*
X196343542Y-63564419D02*
X196248304Y-63612038D01*
X196248304Y-63612038D02*
X196200685Y-63659657D01*
X196200685Y-63659657D02*
X196153066Y-63754895D01*
X196153066Y-63754895D02*
X196153066Y-63897752D01*
X196153066Y-63897752D02*
X196200685Y-63992990D01*
X196200685Y-63992990D02*
X196248304Y-64040609D01*
X196248304Y-64040609D02*
X196343542Y-64088228D01*
X196343542Y-64088228D02*
X196724494Y-64088228D01*
X195772113Y-63659657D02*
X195724494Y-63612038D01*
X195724494Y-63612038D02*
X195629256Y-63564419D01*
X195629256Y-63564419D02*
X195391161Y-63564419D01*
X195391161Y-63564419D02*
X195295923Y-63612038D01*
X195295923Y-63612038D02*
X195248304Y-63659657D01*
X195248304Y-63659657D02*
X195200685Y-63754895D01*
X195200685Y-63754895D02*
X195200685Y-63850133D01*
X195200685Y-63850133D02*
X195248304Y-63992990D01*
X195248304Y-63992990D02*
X195819732Y-64564419D01*
X195819732Y-64564419D02*
X195200685Y-64564419D01*
X189012438Y-64564419D02*
X189583866Y-64564419D01*
X189298152Y-64564419D02*
X189298152Y-63564419D01*
X189298152Y-63564419D02*
X189393390Y-63707276D01*
X189393390Y-63707276D02*
X189488628Y-63802514D01*
X189488628Y-63802514D02*
X189583866Y-63850133D01*
X188393390Y-63564419D02*
X188298152Y-63564419D01*
X188298152Y-63564419D02*
X188202914Y-63612038D01*
X188202914Y-63612038D02*
X188155295Y-63659657D01*
X188155295Y-63659657D02*
X188107676Y-63754895D01*
X188107676Y-63754895D02*
X188060057Y-63945371D01*
X188060057Y-63945371D02*
X188060057Y-64183466D01*
X188060057Y-64183466D02*
X188107676Y-64373942D01*
X188107676Y-64373942D02*
X188155295Y-64469180D01*
X188155295Y-64469180D02*
X188202914Y-64516800D01*
X188202914Y-64516800D02*
X188298152Y-64564419D01*
X188298152Y-64564419D02*
X188393390Y-64564419D01*
X188393390Y-64564419D02*
X188488628Y-64516800D01*
X188488628Y-64516800D02*
X188536247Y-64469180D01*
X188536247Y-64469180D02*
X188583866Y-64373942D01*
X188583866Y-64373942D02*
X188631485Y-64183466D01*
X188631485Y-64183466D02*
X188631485Y-63945371D01*
X188631485Y-63945371D02*
X188583866Y-63754895D01*
X188583866Y-63754895D02*
X188536247Y-63659657D01*
X188536247Y-63659657D02*
X188488628Y-63612038D01*
X188488628Y-63612038D02*
X188393390Y-63564419D01*
X187631485Y-64564419D02*
X187631485Y-63564419D01*
X187536247Y-64183466D02*
X187250533Y-64564419D01*
X187250533Y-63897752D02*
X187631485Y-64278704D01*
X196153066Y-60906819D02*
X196486399Y-60430628D01*
X196724494Y-60906819D02*
X196724494Y-59906819D01*
X196724494Y-59906819D02*
X196343542Y-59906819D01*
X196343542Y-59906819D02*
X196248304Y-59954438D01*
X196248304Y-59954438D02*
X196200685Y-60002057D01*
X196200685Y-60002057D02*
X196153066Y-60097295D01*
X196153066Y-60097295D02*
X196153066Y-60240152D01*
X196153066Y-60240152D02*
X196200685Y-60335390D01*
X196200685Y-60335390D02*
X196248304Y-60383009D01*
X196248304Y-60383009D02*
X196343542Y-60430628D01*
X196343542Y-60430628D02*
X196724494Y-60430628D01*
X195200685Y-60906819D02*
X195772113Y-60906819D01*
X195486399Y-60906819D02*
X195486399Y-59906819D01*
X195486399Y-59906819D02*
X195581637Y-60049676D01*
X195581637Y-60049676D02*
X195676875Y-60144914D01*
X195676875Y-60144914D02*
X195772113Y-60192533D01*
X189009257Y-59906819D02*
X189485447Y-59906819D01*
X189485447Y-59906819D02*
X189533066Y-60383009D01*
X189533066Y-60383009D02*
X189485447Y-60335390D01*
X189485447Y-60335390D02*
X189390209Y-60287771D01*
X189390209Y-60287771D02*
X189152114Y-60287771D01*
X189152114Y-60287771D02*
X189056876Y-60335390D01*
X189056876Y-60335390D02*
X189009257Y-60383009D01*
X189009257Y-60383009D02*
X188961638Y-60478247D01*
X188961638Y-60478247D02*
X188961638Y-60716342D01*
X188961638Y-60716342D02*
X189009257Y-60811580D01*
X189009257Y-60811580D02*
X189056876Y-60859200D01*
X189056876Y-60859200D02*
X189152114Y-60906819D01*
X189152114Y-60906819D02*
X189390209Y-60906819D01*
X189390209Y-60906819D02*
X189485447Y-60859200D01*
X189485447Y-60859200D02*
X189533066Y-60811580D01*
X188533066Y-60906819D02*
X188533066Y-59906819D01*
X188437828Y-60525866D02*
X188152114Y-60906819D01*
X188152114Y-60240152D02*
X188533066Y-60621104D01*
X187294971Y-59906819D02*
X187485447Y-59906819D01*
X187485447Y-59906819D02*
X187580685Y-59954438D01*
X187580685Y-59954438D02*
X187628304Y-60002057D01*
X187628304Y-60002057D02*
X187723542Y-60144914D01*
X187723542Y-60144914D02*
X187771161Y-60335390D01*
X187771161Y-60335390D02*
X187771161Y-60716342D01*
X187771161Y-60716342D02*
X187723542Y-60811580D01*
X187723542Y-60811580D02*
X187675923Y-60859200D01*
X187675923Y-60859200D02*
X187580685Y-60906819D01*
X187580685Y-60906819D02*
X187390209Y-60906819D01*
X187390209Y-60906819D02*
X187294971Y-60859200D01*
X187294971Y-60859200D02*
X187247352Y-60811580D01*
X187247352Y-60811580D02*
X187199733Y-60716342D01*
X187199733Y-60716342D02*
X187199733Y-60478247D01*
X187199733Y-60478247D02*
X187247352Y-60383009D01*
X187247352Y-60383009D02*
X187294971Y-60335390D01*
X187294971Y-60335390D02*
X187390209Y-60287771D01*
X187390209Y-60287771D02*
X187580685Y-60287771D01*
X187580685Y-60287771D02*
X187675923Y-60335390D01*
X187675923Y-60335390D02*
X187723542Y-60383009D01*
X187723542Y-60383009D02*
X187771161Y-60478247D01*
%TO.C,K25*%
X157920000Y-96540000D02*
X163000000Y-96540000D01*
X157920000Y-97556000D02*
X157920000Y-96540000D01*
X157920000Y-100985000D02*
X157920000Y-100604000D01*
X165464162Y-94635000D02*
X167191000Y-94635000D01*
X166810000Y-100985000D02*
X157920000Y-100985000D01*
X168969000Y-94635000D02*
X169350000Y-94635000D01*
X169350000Y-95016000D02*
X169350000Y-94635000D01*
X169350000Y-98445000D02*
X169350000Y-98064000D01*
X165464162Y-94616040D02*
G75*
G02*
X163000000Y-96540001I-2464162J616039D01*
G01*
X169350000Y-98445000D02*
G75*
G02*
X166810000Y-100985000I-2540000J0D01*
G01*
%TO.C,K24*%
X139920000Y-94540000D02*
X145000000Y-94540000D01*
X139920000Y-95556000D02*
X139920000Y-94540000D01*
X139920000Y-98985000D02*
X139920000Y-98604000D01*
X147464162Y-92635000D02*
X149191000Y-92635000D01*
X148810000Y-98985000D02*
X139920000Y-98985000D01*
X150969000Y-92635000D02*
X151350000Y-92635000D01*
X151350000Y-93016000D02*
X151350000Y-92635000D01*
X151350000Y-96445000D02*
X151350000Y-96064000D01*
X147464162Y-92616040D02*
G75*
G02*
X145000000Y-94540001I-2464162J616039D01*
G01*
X151350000Y-96445000D02*
G75*
G02*
X148810000Y-98985000I-2540000J0D01*
G01*
%TO.C,K21*%
X97850000Y-108445000D02*
G75*
G02*
X95310000Y-110985000I-2540000J0D01*
G01*
X93964162Y-104616040D02*
G75*
G02*
X91500000Y-106540001I-2464162J616039D01*
G01*
X97850000Y-108445000D02*
X97850000Y-108064000D01*
X97850000Y-105016000D02*
X97850000Y-104635000D01*
X97469000Y-104635000D02*
X97850000Y-104635000D01*
X95310000Y-110985000D02*
X86420000Y-110985000D01*
X93964162Y-104635000D02*
X95691000Y-104635000D01*
X86420000Y-110985000D02*
X86420000Y-110604000D01*
X86420000Y-107556000D02*
X86420000Y-106540000D01*
X86420000Y-106540000D02*
X91500000Y-106540000D01*
%TO.C,K02*%
X103920000Y-60540000D02*
X109000000Y-60540000D01*
X103920000Y-61556000D02*
X103920000Y-60540000D01*
X103920000Y-64985000D02*
X103920000Y-64604000D01*
X111464162Y-58635000D02*
X113191000Y-58635000D01*
X112810000Y-64985000D02*
X103920000Y-64985000D01*
X114969000Y-58635000D02*
X115350000Y-58635000D01*
X115350000Y-59016000D02*
X115350000Y-58635000D01*
X115350000Y-62445000D02*
X115350000Y-62064000D01*
X111464162Y-58616040D02*
G75*
G02*
X109000000Y-60540001I-2464162J616039D01*
G01*
X115350000Y-62445000D02*
G75*
G02*
X112810000Y-64985000I-2540000J0D01*
G01*
%TO.C,K10*%
X68920000Y-89540000D02*
X74000000Y-89540000D01*
X68920000Y-90556000D02*
X68920000Y-89540000D01*
X68920000Y-93985000D02*
X68920000Y-93604000D01*
X76464162Y-87635000D02*
X78191000Y-87635000D01*
X77810000Y-93985000D02*
X68920000Y-93985000D01*
X79969000Y-87635000D02*
X80350000Y-87635000D01*
X80350000Y-88016000D02*
X80350000Y-87635000D01*
X80350000Y-91445000D02*
X80350000Y-91064000D01*
X76464162Y-87616040D02*
G75*
G02*
X74000000Y-89540001I-2464162J616039D01*
G01*
X80350000Y-91445000D02*
G75*
G02*
X77810000Y-93985000I-2540000J0D01*
G01*
%TO.C,K04*%
X139920000Y-60540000D02*
X145000000Y-60540000D01*
X139920000Y-61556000D02*
X139920000Y-60540000D01*
X139920000Y-64985000D02*
X139920000Y-64604000D01*
X147464162Y-58635000D02*
X149191000Y-58635000D01*
X148810000Y-64985000D02*
X139920000Y-64985000D01*
X150969000Y-58635000D02*
X151350000Y-58635000D01*
X151350000Y-59016000D02*
X151350000Y-58635000D01*
X151350000Y-62445000D02*
X151350000Y-62064000D01*
X147464162Y-58616040D02*
G75*
G02*
X145000000Y-60540001I-2464162J616039D01*
G01*
X151350000Y-62445000D02*
G75*
G02*
X148810000Y-64985000I-2540000J0D01*
G01*
%TO.C,K12*%
X103920000Y-77540000D02*
X109000000Y-77540000D01*
X103920000Y-78556000D02*
X103920000Y-77540000D01*
X103920000Y-81985000D02*
X103920000Y-81604000D01*
X111464162Y-75635000D02*
X113191000Y-75635000D01*
X112810000Y-81985000D02*
X103920000Y-81985000D01*
X114969000Y-75635000D02*
X115350000Y-75635000D01*
X115350000Y-76016000D02*
X115350000Y-75635000D01*
X115350000Y-79445000D02*
X115350000Y-79064000D01*
X111464162Y-75616040D02*
G75*
G02*
X109000000Y-77540001I-2464162J616039D01*
G01*
X115350000Y-79445000D02*
G75*
G02*
X112810000Y-81985000I-2540000J0D01*
G01*
%TO.C,K30*%
X135164512Y-116060241D02*
X140225181Y-115617490D01*
X135253062Y-117072375D02*
X135164512Y-116060241D01*
X135551919Y-120488327D02*
X135518713Y-120108777D01*
X142513934Y-113504974D02*
X144234201Y-113354470D01*
X144408090Y-119713512D02*
X135551919Y-120488327D01*
X146005435Y-113199507D02*
X146384987Y-113166300D01*
X146418192Y-113545851D02*
X146384987Y-113166300D01*
X146717049Y-116961802D02*
X146683843Y-116582252D01*
X142512282Y-113486086D02*
G75*
G02*
X140225181Y-115617492I-2508477J398929D01*
G01*
X146717049Y-116961802D02*
G75*
G02*
X144408090Y-119713512I-2530330J-221379D01*
G01*
%TO.C,K01*%
X97850000Y-74445000D02*
G75*
G02*
X95310000Y-76985000I-2540000J0D01*
G01*
X93964162Y-70616040D02*
G75*
G02*
X91500000Y-72540001I-2464162J616039D01*
G01*
X97850000Y-74445000D02*
X97850000Y-74064000D01*
X97850000Y-71016000D02*
X97850000Y-70635000D01*
X97469000Y-70635000D02*
X97850000Y-70635000D01*
X95310000Y-76985000D02*
X86420000Y-76985000D01*
X93964162Y-70635000D02*
X95691000Y-70635000D01*
X86420000Y-76985000D02*
X86420000Y-76604000D01*
X86420000Y-73556000D02*
X86420000Y-72540000D01*
X86420000Y-72540000D02*
X91500000Y-72540000D01*
%TO.C,K14*%
X139920000Y-77540000D02*
X145000000Y-77540000D01*
X139920000Y-78556000D02*
X139920000Y-77540000D01*
X139920000Y-81985000D02*
X139920000Y-81604000D01*
X147464162Y-75635000D02*
X149191000Y-75635000D01*
X148810000Y-81985000D02*
X139920000Y-81985000D01*
X150969000Y-75635000D02*
X151350000Y-75635000D01*
X151350000Y-76016000D02*
X151350000Y-75635000D01*
X151350000Y-79445000D02*
X151350000Y-79064000D01*
X147464162Y-75616040D02*
G75*
G02*
X145000000Y-77540001I-2464162J616039D01*
G01*
X151350000Y-79445000D02*
G75*
G02*
X148810000Y-81985000I-2540000J0D01*
G01*
%TO.C,K23*%
X121920000Y-89540000D02*
X127000000Y-89540000D01*
X121920000Y-90556000D02*
X121920000Y-89540000D01*
X121920000Y-93985000D02*
X121920000Y-93604000D01*
X129464162Y-87635000D02*
X131191000Y-87635000D01*
X130810000Y-93985000D02*
X121920000Y-93985000D01*
X132969000Y-87635000D02*
X133350000Y-87635000D01*
X133350000Y-88016000D02*
X133350000Y-87635000D01*
X133350000Y-91445000D02*
X133350000Y-91064000D01*
X129464162Y-87616040D02*
G75*
G02*
X127000000Y-89540001I-2464162J616039D01*
G01*
X133350000Y-91445000D02*
G75*
G02*
X130810000Y-93985000I-2540000J0D01*
G01*
%TO.C,K03*%
X121920000Y-55540000D02*
X127000000Y-55540000D01*
X121920000Y-56556000D02*
X121920000Y-55540000D01*
X121920000Y-59985000D02*
X121920000Y-59604000D01*
X129464162Y-53635000D02*
X131191000Y-53635000D01*
X130810000Y-59985000D02*
X121920000Y-59985000D01*
X132969000Y-53635000D02*
X133350000Y-53635000D01*
X133350000Y-54016000D02*
X133350000Y-53635000D01*
X133350000Y-57445000D02*
X133350000Y-57064000D01*
X129464162Y-53616040D02*
G75*
G02*
X127000000Y-55540001I-2464162J616039D01*
G01*
X133350000Y-57445000D02*
G75*
G02*
X130810000Y-59985000I-2540000J0D01*
G01*
%TO.C,K22*%
X103920000Y-94540000D02*
X109000000Y-94540000D01*
X103920000Y-95556000D02*
X103920000Y-94540000D01*
X103920000Y-98985000D02*
X103920000Y-98604000D01*
X111464162Y-92635000D02*
X113191000Y-92635000D01*
X112810000Y-98985000D02*
X103920000Y-98985000D01*
X114969000Y-92635000D02*
X115350000Y-92635000D01*
X115350000Y-93016000D02*
X115350000Y-92635000D01*
X115350000Y-96445000D02*
X115350000Y-96064000D01*
X111464162Y-92616040D02*
G75*
G02*
X109000000Y-94540001I-2464162J616039D01*
G01*
X115350000Y-96445000D02*
G75*
G02*
X112810000Y-98985000I-2540000J0D01*
G01*
%TO.C,K15*%
X157920000Y-79540000D02*
X163000000Y-79540000D01*
X157920000Y-80556000D02*
X157920000Y-79540000D01*
X157920000Y-83985000D02*
X157920000Y-83604000D01*
X165464162Y-77635000D02*
X167191000Y-77635000D01*
X166810000Y-83985000D02*
X157920000Y-83985000D01*
X168969000Y-77635000D02*
X169350000Y-77635000D01*
X169350000Y-78016000D02*
X169350000Y-77635000D01*
X169350000Y-81445000D02*
X169350000Y-81064000D01*
X165464162Y-77616040D02*
G75*
G02*
X163000000Y-79540001I-2464162J616039D01*
G01*
X169350000Y-81445000D02*
G75*
G02*
X166810000Y-83985000I-2540000J0D01*
G01*
%TO.C,K32*%
X175537660Y-124761041D02*
X175698678Y-124415738D01*
X176986818Y-121653311D02*
X177416198Y-120732503D01*
X177416198Y-120732503D02*
X182020242Y-122879404D01*
X183594736Y-128518117D02*
X175537660Y-124761041D01*
X185058619Y-122194287D02*
X186623666Y-122924080D01*
X186970208Y-127289546D02*
X187131226Y-126944243D01*
X188235081Y-123675496D02*
X188580384Y-123836513D01*
X188419367Y-124181816D02*
X188580384Y-123836513D01*
X185066632Y-122177103D02*
G75*
G02*
X182020242Y-122879403I-1972937J1599710D01*
G01*
X186970208Y-127289546D02*
G75*
G02*
X183594736Y-128518117I-2302022J1073453D01*
G01*
%TO.C,K11*%
X97850000Y-91445000D02*
G75*
G02*
X95310000Y-93985000I-2540000J0D01*
G01*
X93964162Y-87616040D02*
G75*
G02*
X91500000Y-89540001I-2464162J616039D01*
G01*
X97850000Y-91445000D02*
X97850000Y-91064000D01*
X97850000Y-88016000D02*
X97850000Y-87635000D01*
X97469000Y-87635000D02*
X97850000Y-87635000D01*
X95310000Y-93985000D02*
X86420000Y-93985000D01*
X93964162Y-87635000D02*
X95691000Y-87635000D01*
X86420000Y-93985000D02*
X86420000Y-93604000D01*
X86420000Y-90556000D02*
X86420000Y-89540000D01*
X86420000Y-89540000D02*
X91500000Y-89540000D01*
%TO.C,K05*%
X157920000Y-62540000D02*
X163000000Y-62540000D01*
X157920000Y-63556000D02*
X157920000Y-62540000D01*
X157920000Y-66985000D02*
X157920000Y-66604000D01*
X165464162Y-60635000D02*
X167191000Y-60635000D01*
X166810000Y-66985000D02*
X157920000Y-66985000D01*
X168969000Y-60635000D02*
X169350000Y-60635000D01*
X169350000Y-61016000D02*
X169350000Y-60635000D01*
X169350000Y-64445000D02*
X169350000Y-64064000D01*
X165464162Y-60616040D02*
G75*
G02*
X163000000Y-62540001I-2464162J616039D01*
G01*
X169350000Y-64445000D02*
G75*
G02*
X166810000Y-66985000I-2540000J0D01*
G01*
%TO.C,K20*%
X68920000Y-106540000D02*
X74000000Y-106540000D01*
X68920000Y-107556000D02*
X68920000Y-106540000D01*
X68920000Y-110985000D02*
X68920000Y-110604000D01*
X76464162Y-104635000D02*
X78191000Y-104635000D01*
X77810000Y-110985000D02*
X68920000Y-110985000D01*
X79969000Y-104635000D02*
X80350000Y-104635000D01*
X80350000Y-105016000D02*
X80350000Y-104635000D01*
X80350000Y-108445000D02*
X80350000Y-108064000D01*
X76464162Y-104616040D02*
G75*
G02*
X74000000Y-106540001I-2464162J616039D01*
G01*
X80350000Y-108445000D02*
G75*
G02*
X77810000Y-110985000I-2540000J0D01*
G01*
%TO.C,K13*%
X121920000Y-72540000D02*
X127000000Y-72540000D01*
X121920000Y-73556000D02*
X121920000Y-72540000D01*
X121920000Y-76985000D02*
X121920000Y-76604000D01*
X129464162Y-70635000D02*
X131191000Y-70635000D01*
X130810000Y-76985000D02*
X121920000Y-76985000D01*
X132969000Y-70635000D02*
X133350000Y-70635000D01*
X133350000Y-71016000D02*
X133350000Y-70635000D01*
X133350000Y-74445000D02*
X133350000Y-74064000D01*
X129464162Y-70616040D02*
G75*
G02*
X127000000Y-72540001I-2464162J616039D01*
G01*
X133350000Y-74445000D02*
G75*
G02*
X130810000Y-76985000I-2540000J0D01*
G01*
%TO.C,K00*%
X68920000Y-72540000D02*
X74000000Y-72540000D01*
X68920000Y-73556000D02*
X68920000Y-72540000D01*
X68920000Y-76985000D02*
X68920000Y-76604000D01*
X76464162Y-70635000D02*
X78191000Y-70635000D01*
X77810000Y-76985000D02*
X68920000Y-76985000D01*
X79969000Y-70635000D02*
X80350000Y-70635000D01*
X80350000Y-71016000D02*
X80350000Y-70635000D01*
X80350000Y-74445000D02*
X80350000Y-74064000D01*
X76464162Y-70616040D02*
G75*
G02*
X74000000Y-72540001I-2464162J616039D01*
G01*
X80350000Y-74445000D02*
G75*
G02*
X77810000Y-76985000I-2540000J0D01*
G01*
%TO.C,K31*%
X155799436Y-119823101D02*
X155865596Y-119447889D01*
X156394876Y-116446195D02*
X156571302Y-115445631D01*
X156571302Y-115445631D02*
X161574126Y-116327764D01*
X164331651Y-114879602D02*
X166032255Y-115179464D01*
X164554377Y-121366835D02*
X155799436Y-119823101D01*
X167496855Y-119306488D02*
X167563015Y-118931276D01*
X167783243Y-115488211D02*
X168158455Y-115554371D01*
X168092295Y-115929582D02*
X168158455Y-115554371D01*
X164334944Y-114860930D02*
G75*
G02*
X161574126Y-116327765I-2319752J1034577D01*
G01*
X167496855Y-119306488D02*
G75*
G02*
X164554377Y-121366833I-2501411J441066D01*
G01*
D11*
%TO.C,R2*%
X193157464Y-63199600D02*
X191703336Y-63199600D01*
X193157464Y-65019600D02*
X191703336Y-65019600D01*
%TO.C,R1*%
X191703336Y-59491200D02*
X193157464Y-59491200D01*
X191703336Y-61311200D02*
X193157464Y-61311200D01*
%TD*%
M02*
