%TF.GenerationSoftware,KiCad,Pcbnew,8.0.3*%
%TF.CreationDate,2024-06-11T01:45:41-03:00*%
%TF.ProjectId,keyboard_pcb,6b657962-6f61-4726-945f-7063622e6b69,rev1.0*%
%TF.SameCoordinates,Original*%
%TF.FileFunction,Legend,Top*%
%TF.FilePolarity,Positive*%
%FSLAX46Y46*%
G04 Gerber Fmt 4.6, Leading zero omitted, Abs format (unit mm)*
G04 Created by KiCad (PCBNEW 8.0.3) date 2024-06-11 01:45:41*
%MOMM*%
%LPD*%
G01*
G04 APERTURE LIST*
%ADD10C,0.150000*%
%ADD11C,0.120000*%
G04 APERTURE END LIST*
D10*
X183928571Y-52141890D02*
X183852381Y-52103795D01*
X183852381Y-52103795D02*
X183738095Y-52103795D01*
X183738095Y-52103795D02*
X183623809Y-52141890D01*
X183623809Y-52141890D02*
X183547619Y-52218080D01*
X183547619Y-52218080D02*
X183509524Y-52294271D01*
X183509524Y-52294271D02*
X183471428Y-52446652D01*
X183471428Y-52446652D02*
X183471428Y-52560938D01*
X183471428Y-52560938D02*
X183509524Y-52713319D01*
X183509524Y-52713319D02*
X183547619Y-52789509D01*
X183547619Y-52789509D02*
X183623809Y-52865700D01*
X183623809Y-52865700D02*
X183738095Y-52903795D01*
X183738095Y-52903795D02*
X183814286Y-52903795D01*
X183814286Y-52903795D02*
X183928571Y-52865700D01*
X183928571Y-52865700D02*
X183966667Y-52827604D01*
X183966667Y-52827604D02*
X183966667Y-52560938D01*
X183966667Y-52560938D02*
X183814286Y-52560938D01*
X184309524Y-52903795D02*
X184309524Y-52103795D01*
X184309524Y-52103795D02*
X184614286Y-52103795D01*
X184614286Y-52103795D02*
X184690476Y-52141890D01*
X184690476Y-52141890D02*
X184728571Y-52179985D01*
X184728571Y-52179985D02*
X184766667Y-52256176D01*
X184766667Y-52256176D02*
X184766667Y-52370461D01*
X184766667Y-52370461D02*
X184728571Y-52446652D01*
X184728571Y-52446652D02*
X184690476Y-52484747D01*
X184690476Y-52484747D02*
X184614286Y-52522842D01*
X184614286Y-52522842D02*
X184309524Y-52522842D01*
X185261905Y-52103795D02*
X185338095Y-52103795D01*
X185338095Y-52103795D02*
X185414286Y-52141890D01*
X185414286Y-52141890D02*
X185452381Y-52179985D01*
X185452381Y-52179985D02*
X185490476Y-52256176D01*
X185490476Y-52256176D02*
X185528571Y-52408557D01*
X185528571Y-52408557D02*
X185528571Y-52599033D01*
X185528571Y-52599033D02*
X185490476Y-52751414D01*
X185490476Y-52751414D02*
X185452381Y-52827604D01*
X185452381Y-52827604D02*
X185414286Y-52865700D01*
X185414286Y-52865700D02*
X185338095Y-52903795D01*
X185338095Y-52903795D02*
X185261905Y-52903795D01*
X185261905Y-52903795D02*
X185185714Y-52865700D01*
X185185714Y-52865700D02*
X185147619Y-52827604D01*
X185147619Y-52827604D02*
X185109524Y-52751414D01*
X185109524Y-52751414D02*
X185071428Y-52599033D01*
X185071428Y-52599033D02*
X185071428Y-52408557D01*
X185071428Y-52408557D02*
X185109524Y-52256176D01*
X185109524Y-52256176D02*
X185147619Y-52179985D01*
X185147619Y-52179985D02*
X185185714Y-52141890D01*
X185185714Y-52141890D02*
X185261905Y-52103795D01*
D11*
%TO.C,U2*%
X180203200Y-51208000D02*
X180203200Y-51508000D01*
X180203200Y-51208000D02*
X201203200Y-51208000D01*
X180203200Y-53608000D02*
X180203200Y-54008000D01*
X180203200Y-53875000D02*
X183210200Y-53875000D01*
X180203200Y-56208000D02*
X180203200Y-56608000D01*
X180203200Y-58708000D02*
X180203200Y-59108000D01*
X180203200Y-61308000D02*
X180203200Y-61708000D01*
X180203200Y-63808000D02*
X180203200Y-64208000D01*
X180203200Y-66308000D02*
X180203200Y-66708000D01*
X180203200Y-68908000D02*
X180203200Y-69308000D01*
X180203200Y-71408000D02*
X180203200Y-71808000D01*
X180203200Y-74008000D02*
X180203200Y-74408000D01*
X180203200Y-76508000D02*
X180203200Y-76908000D01*
X180203200Y-79008000D02*
X180203200Y-79408000D01*
X180203200Y-81608000D02*
X180203200Y-82008000D01*
X180203200Y-84108000D02*
X180203200Y-84508000D01*
X180203200Y-86708000D02*
X180203200Y-87108000D01*
X180203200Y-89208000D02*
X180203200Y-89608000D01*
X180203200Y-91808000D02*
X180203200Y-92208000D01*
X180203200Y-94308000D02*
X180203200Y-94708000D01*
X180203200Y-96808000D02*
X180203200Y-97208000D01*
X180203200Y-99408000D02*
X180203200Y-99808000D01*
X183210200Y-53875000D02*
X183210200Y-51208000D01*
X187003200Y-102208000D02*
X180203200Y-102208000D01*
X201203200Y-51208000D02*
X201203200Y-51508000D01*
X201203200Y-53608000D02*
X201203200Y-54008000D01*
X201203200Y-56208000D02*
X201203200Y-56608000D01*
X201203200Y-58708000D02*
X201203200Y-59108000D01*
X201203200Y-61308000D02*
X201203200Y-61708000D01*
X201203200Y-63808000D02*
X201203200Y-64208000D01*
X201203200Y-66308000D02*
X201203200Y-66708000D01*
X201203200Y-68908000D02*
X201203200Y-69308000D01*
X201203200Y-71408000D02*
X201203200Y-71808000D01*
X201203200Y-74008000D02*
X201203200Y-74408000D01*
X201203200Y-76508000D02*
X201203200Y-76908000D01*
X201203200Y-79008000D02*
X201203200Y-79408000D01*
X201203200Y-81608000D02*
X201203200Y-82008000D01*
X201203200Y-84108000D02*
X201203200Y-84508000D01*
X201203200Y-86708000D02*
X201203200Y-87108000D01*
X201203200Y-89208000D02*
X201203200Y-89608000D01*
X201203200Y-91808000D02*
X201203200Y-92208000D01*
X201203200Y-94308000D02*
X201203200Y-94708000D01*
X201203200Y-96808000D02*
X201203200Y-97208000D01*
X201203200Y-99408000D02*
X201203200Y-99808000D01*
X201203200Y-102208000D02*
X194403200Y-102208000D01*
D10*
%TO.C,J1*%
X190750000Y-112050000D02*
X190750000Y-105950000D01*
X202850000Y-105950000D02*
X190750000Y-105950000D01*
X202850000Y-106200000D02*
X204850000Y-106200000D01*
X202850000Y-111800000D02*
X204850000Y-111800000D01*
X202850000Y-112050000D02*
X190750000Y-112050000D01*
X202850000Y-112050000D02*
X202850000Y-105950000D01*
X204850000Y-111800000D02*
X204850000Y-106200000D01*
%TD*%
M02*
