%TF.GenerationSoftware,KiCad,Pcbnew,8.0.3*%
%TF.CreationDate,2024-06-14T18:36:55-03:00*%
%TF.ProjectId,keyboard_pcb,6b657962-6f61-4726-945f-7063622e6b69,rev1.0*%
%TF.SameCoordinates,Original*%
%TF.FileFunction,Profile,NP*%
%FSLAX46Y46*%
G04 Gerber Fmt 4.6, Leading zero omitted, Abs format (unit mm)*
G04 Created by KiCad (PCBNEW 8.0.3) date 2024-06-14 18:36:55*
%MOMM*%
%LPD*%
G01*
G04 APERTURE LIST*
%TA.AperFunction,Profile*%
%ADD10C,0.100000*%
%TD*%
G04 APERTURE END LIST*
D10*
X124264759Y-152575240D02*
G75*
G02*
X122264760Y-150575240I41J2000040D01*
G01*
X171250000Y-41900000D02*
G75*
G02*
X173050000Y-43700000I0J-1800000D01*
G01*
X176264759Y-215775240D02*
G75*
G02*
X174264759Y-217775159I-1999959J40D01*
G01*
X68250000Y-51900000D02*
X36250000Y-51900000D01*
X70250000Y-41900000D02*
G75*
G02*
X72250000Y-39900000I2000000J0D01*
G01*
X36250000Y-105100000D02*
X76750000Y-105100000D01*
X160199999Y-123949999D02*
X172684044Y-106987896D01*
X112514759Y-225300240D02*
G75*
G02*
X133764759Y-217775242I21522741J-27011860D01*
G01*
X104750000Y-114675000D02*
G75*
G02*
X97999989Y-112625013I-764600J9620300D01*
G01*
X140264759Y-162575240D02*
X140264759Y-154575240D01*
X88250000Y-36900000D02*
G75*
G02*
X90250000Y-34900000I2000000J0D01*
G01*
X174264759Y-164575240D02*
G75*
G02*
X176264760Y-166575240I41J-1999960D01*
G01*
X171250000Y-41900000D02*
X128000002Y-41899998D01*
X88250000Y-36900000D02*
X88250000Y-37900000D01*
X108250000Y-37900000D02*
X108250000Y-36900000D01*
X82514757Y-154575238D02*
X39264759Y-154575240D01*
X120264759Y-147575240D02*
X104264759Y-147575240D01*
X176264759Y-215775240D02*
X176264759Y-166575240D01*
X102264759Y-149575240D02*
X102264759Y-150575240D01*
X100264759Y-152575240D02*
X85964759Y-152575240D01*
X173050000Y-105900000D02*
G75*
G02*
X172684044Y-106987896I-1800000J0D01*
G01*
X70250000Y-41900000D02*
X70250000Y-49900000D01*
X52750891Y-237296687D02*
X60135360Y-233975240D01*
X84264759Y-153575240D02*
G75*
G02*
X85964759Y-152575184I1700041J-944960D01*
G01*
X133764759Y-217775240D02*
X174264759Y-217775240D01*
X122264759Y-150575240D02*
X122264759Y-149575240D01*
X106250000Y-34900000D02*
G75*
G02*
X108250000Y-36900000I0J-2000000D01*
G01*
X174264759Y-164575240D02*
X142264759Y-164575240D01*
X88250000Y-37900000D02*
G75*
G02*
X86250000Y-39900000I-2000000J0D01*
G01*
X36250000Y-105100000D02*
G75*
G02*
X34250000Y-103100000I0J2000000D01*
G01*
X37464759Y-156375240D02*
X37464759Y-217375240D01*
X173050000Y-105900000D02*
X173050000Y-104700000D01*
X112050000Y-114100001D02*
X104750000Y-114675000D01*
X150379399Y-121300000D02*
X157763868Y-124621447D01*
X37830715Y-219663136D02*
X50314760Y-236625239D01*
X105764759Y-227350240D02*
X98464759Y-226775241D01*
X102264759Y-150575240D02*
G75*
G02*
X100264759Y-152575159I-1999959J40D01*
G01*
X52750891Y-237296687D02*
G75*
G02*
X50314792Y-236625218I-836091J1721487D01*
G01*
X110250000Y-39900000D02*
G75*
G02*
X108250000Y-37900000I0J2000000D01*
G01*
X128000002Y-41899998D02*
G75*
G02*
X126250023Y-40899986I-2J2031198D01*
G01*
X142264759Y-164575240D02*
G75*
G02*
X140264760Y-162575240I41J2000040D01*
G01*
X34250000Y-53900000D02*
X34250000Y-103100000D01*
X37464759Y-217375240D02*
X37464759Y-218575240D01*
X37464759Y-156375240D02*
G75*
G02*
X39264759Y-154575239I1800001J0D01*
G01*
X112514759Y-225300240D02*
G75*
G02*
X105764757Y-227350271I-5985359J7569940D01*
G01*
X60135360Y-233975240D02*
G75*
G02*
X98464759Y-226775240I32005470J-64758200D01*
G01*
X37830715Y-219663136D02*
G75*
G02*
X37464743Y-218575240I1434085J1087936D01*
G01*
X84264759Y-153575240D02*
G75*
G02*
X82514757Y-154575259I-1749959J1031140D01*
G01*
X138264759Y-152575240D02*
G75*
G02*
X140264760Y-154575240I41J-1999960D01*
G01*
X106250000Y-34900000D02*
X90250000Y-34900000D01*
X34250000Y-53900000D02*
G75*
G02*
X36250000Y-51900000I2000000J0D01*
G01*
X76750000Y-105100001D02*
G75*
G02*
X97999998Y-112625002I-272750J-34536869D01*
G01*
X86250000Y-39900000D02*
X72250000Y-39900000D01*
X124550000Y-39900000D02*
G75*
G02*
X126250045Y-40899975I0J-1945100D01*
G01*
X120264759Y-147575240D02*
G75*
G02*
X122264760Y-149575240I41J-1999960D01*
G01*
X173050000Y-104700000D02*
X173050000Y-43700000D01*
X70250000Y-49900000D02*
G75*
G02*
X68250000Y-51900000I-2000000J0D01*
G01*
X102264759Y-149575240D02*
G75*
G02*
X104264759Y-147575159I2000041J40D01*
G01*
X160199999Y-123949999D02*
G75*
G02*
X157763868Y-124621447I-1599999J1049999D01*
G01*
X124550000Y-39900000D02*
X110250000Y-39900000D01*
X138264759Y-152575240D02*
X124264759Y-152575240D01*
X112050000Y-114100001D02*
G75*
G02*
X150379401Y-121299997I6323900J-71958399D01*
G01*
M02*
