%TF.GenerationSoftware,KiCad,Pcbnew,8.0.3*%
%TF.CreationDate,2024-06-12T13:30:28-03:00*%
%TF.ProjectId,keyboard_pcb,6b657962-6f61-4726-945f-7063622e6b69,rev1.0*%
%TF.SameCoordinates,Original*%
%TF.FileFunction,Profile,NP*%
%FSLAX46Y46*%
G04 Gerber Fmt 4.6, Leading zero omitted, Abs format (unit mm)*
G04 Created by KiCad (PCBNEW 8.0.3) date 2024-06-12 13:30:28*
%MOMM*%
%LPD*%
G01*
G04 APERTURE LIST*
%TA.AperFunction,Profile*%
%ADD10C,0.100000*%
%TD*%
G04 APERTURE END LIST*
D10*
X111360000Y-198440001D02*
G75*
G02*
X149689397Y-205640004I6323922J-71958199D01*
G01*
X123860000Y-124240000D02*
X109560000Y-124240000D01*
X159509999Y-208289999D02*
G75*
G02*
X157073880Y-208961421I-1599977J1049999D01*
G01*
X69560000Y-134240000D02*
G75*
G02*
X67560000Y-136239978I-1999978J0D01*
G01*
X172360000Y-189040000D02*
X172360000Y-128040000D01*
X123860000Y-124240000D02*
G75*
G02*
X125560017Y-125239991I22J-1945000D01*
G01*
X85560000Y-124240000D02*
X71560000Y-124240000D01*
X76060000Y-189440001D02*
G75*
G02*
X97309999Y-196965001I-272748J-34536869D01*
G01*
X33560000Y-138240000D02*
G75*
G02*
X35560000Y-136239978I2000022J0D01*
G01*
X105560000Y-119240000D02*
X89560000Y-119240000D01*
X33560000Y-138240000D02*
X33560000Y-187440000D01*
X127310002Y-126239998D02*
G75*
G02*
X125559997Y-125240002I20J2031298D01*
G01*
X109560000Y-124240000D02*
G75*
G02*
X107560022Y-122240000I22J2000000D01*
G01*
X149689399Y-205640000D02*
X157073868Y-208961447D01*
X111360000Y-198440001D02*
X104060000Y-199015000D01*
X172360000Y-190240000D02*
X172360000Y-189040000D01*
X35560000Y-189440000D02*
G75*
G02*
X33560022Y-187440000I22J2000000D01*
G01*
X87560000Y-122240000D02*
G75*
G02*
X85560000Y-124239978I-1999978J0D01*
G01*
X105560000Y-119240000D02*
G75*
G02*
X107560022Y-121240000I22J-2000000D01*
G01*
X69560000Y-126240000D02*
X69560000Y-134240000D01*
X172360000Y-190240000D02*
G75*
G02*
X171994040Y-191327893I-1799978J0D01*
G01*
X107560000Y-122240000D02*
X107560000Y-121240000D01*
X87560000Y-121240000D02*
X87560000Y-122240000D01*
X170560000Y-126240000D02*
X127310002Y-126239998D01*
X87560000Y-121240000D02*
G75*
G02*
X89560000Y-119239978I2000022J0D01*
G01*
X104060000Y-199015000D02*
G75*
G02*
X97310021Y-196964973I-764678J9619800D01*
G01*
X159509999Y-208289999D02*
X171994044Y-191327896D01*
X35560000Y-189440000D02*
X76060000Y-189440000D01*
X69560000Y-126240000D02*
G75*
G02*
X71560000Y-124239978I2000022J0D01*
G01*
X67560000Y-136240000D02*
X35560000Y-136240000D01*
X170560000Y-126240000D02*
G75*
G02*
X172360022Y-128040000I22J-1800000D01*
G01*
X171000000Y-27900000D02*
G75*
G02*
X172800022Y-29700000I22J-1800000D01*
G01*
X68000000Y-37900000D02*
X36000000Y-37900000D01*
X70000000Y-27900000D02*
G75*
G02*
X72000000Y-25899978I2000022J0D01*
G01*
X36000000Y-91100000D02*
X76500000Y-91100000D01*
X159949999Y-109949999D02*
X172434044Y-92987896D01*
X104500000Y-100675000D02*
G75*
G02*
X97750021Y-98624973I-764678J9619800D01*
G01*
X88000000Y-22900000D02*
G75*
G02*
X90000000Y-20899978I2000022J0D01*
G01*
X171000000Y-27900000D02*
X127750002Y-27899998D01*
X88000000Y-22900000D02*
X88000000Y-23900000D01*
X108000000Y-23900000D02*
X108000000Y-22900000D01*
X172800000Y-91900000D02*
G75*
G02*
X172434040Y-92987893I-1799978J0D01*
G01*
X70000000Y-27900000D02*
X70000000Y-35900000D01*
X106000000Y-20900000D02*
G75*
G02*
X108000022Y-22900000I22J-2000000D01*
G01*
X88000000Y-23900000D02*
G75*
G02*
X86000000Y-25899978I-1999978J0D01*
G01*
X36000000Y-91100000D02*
G75*
G02*
X34000022Y-89100000I22J2000000D01*
G01*
X172800000Y-91900000D02*
X172800000Y-90700000D01*
X111800000Y-100100001D02*
X104500000Y-100675000D01*
X150129399Y-107300000D02*
X157513868Y-110621447D01*
X110000000Y-25900000D02*
G75*
G02*
X108000022Y-23900000I22J2000000D01*
G01*
X127750002Y-27899998D02*
G75*
G02*
X125999997Y-26900002I20J2031298D01*
G01*
X34000000Y-39900000D02*
X34000000Y-89100000D01*
X106000000Y-20900000D02*
X90000000Y-20900000D01*
X34000000Y-39900000D02*
G75*
G02*
X36000000Y-37899978I2000022J0D01*
G01*
X76500000Y-91100001D02*
G75*
G02*
X97749999Y-98625001I-272748J-34536869D01*
G01*
X86000000Y-25900000D02*
X72000000Y-25900000D01*
X124300000Y-25900000D02*
G75*
G02*
X126000017Y-26899991I22J-1945000D01*
G01*
X172800000Y-90700000D02*
X172800000Y-29700000D01*
X70000000Y-35900000D02*
G75*
G02*
X68000000Y-37899978I-1999978J0D01*
G01*
X159949999Y-109949999D02*
G75*
G02*
X157513880Y-110621421I-1599977J1049999D01*
G01*
X124300000Y-25900000D02*
X110000000Y-25900000D01*
X111800000Y-100100001D02*
G75*
G02*
X150129397Y-107300004I6323922J-71958199D01*
G01*
M02*
