%TF.GenerationSoftware,KiCad,Pcbnew,8.0.3*%
%TF.CreationDate,2024-06-11T01:45:41-03:00*%
%TF.ProjectId,keyboard_pcb,6b657962-6f61-4726-945f-7063622e6b69,rev1.0*%
%TF.SameCoordinates,Original*%
%TF.FileFunction,Soldermask,Bot*%
%TF.FilePolarity,Negative*%
%FSLAX46Y46*%
G04 Gerber Fmt 4.6, Leading zero omitted, Abs format (unit mm)*
G04 Created by KiCad (PCBNEW 8.0.3) date 2024-06-11 01:45:41*
%MOMM*%
%LPD*%
G01*
G04 APERTURE LIST*
G04 Aperture macros list*
%AMRoundRect*
0 Rectangle with rounded corners*
0 $1 Rounding radius*
0 $2 $3 $4 $5 $6 $7 $8 $9 X,Y pos of 4 corners*
0 Add a 4 corners polygon primitive as box body*
4,1,4,$2,$3,$4,$5,$6,$7,$8,$9,$2,$3,0*
0 Add four circle primitives for the rounded corners*
1,1,$1+$1,$2,$3*
1,1,$1+$1,$4,$5*
1,1,$1+$1,$6,$7*
1,1,$1+$1,$8,$9*
0 Add four rect primitives between the rounded corners*
20,1,$1+$1,$2,$3,$4,$5,0*
20,1,$1+$1,$4,$5,$6,$7,0*
20,1,$1+$1,$6,$7,$8,$9,0*
20,1,$1+$1,$8,$9,$2,$3,0*%
%AMRotRect*
0 Rectangle, with rotation*
0 The origin of the aperture is its center*
0 $1 length*
0 $2 width*
0 $3 Rotation angle, in degrees counterclockwise*
0 Add horizontal line*
21,1,$1,$2,0,0,$3*%
G04 Aperture macros list end*
%ADD10C,3.000000*%
%ADD11C,3.987800*%
%ADD12R,2.550000X2.500000*%
%ADD13O,1.700000X1.700000*%
%ADD14R,1.700000X1.700000*%
%ADD15RotRect,2.550000X2.500000X185.000000*%
%ADD16O,2.000000X1.600000*%
%ADD17RotRect,2.550000X2.500000X155.000000*%
%ADD18RotRect,2.550000X2.500000X170.000000*%
%ADD19RoundRect,0.250000X0.400000X0.625000X-0.400000X0.625000X-0.400000X-0.625000X0.400000X-0.625000X0*%
%ADD20RoundRect,0.250000X-0.400000X-0.625000X0.400000X-0.625000X0.400000X0.625000X-0.400000X0.625000X0*%
G04 APERTURE END LIST*
D10*
%TO.C,K25*%
X160460000Y-99080000D03*
D11*
X163000000Y-94000000D03*
D10*
X166810000Y-96540000D03*
D12*
X156710000Y-99080000D03*
X170560000Y-96540000D03*
%TD*%
D10*
%TO.C,K24*%
X142460000Y-97080000D03*
D11*
X145000000Y-92000000D03*
D10*
X148810000Y-94540000D03*
D12*
X138710000Y-97080000D03*
X152560000Y-94540000D03*
%TD*%
%TO.C,K21*%
X99060000Y-106540000D03*
X85210000Y-109080000D03*
D10*
X95310000Y-106540000D03*
D11*
X91500000Y-104000000D03*
D10*
X88960000Y-109080000D03*
%TD*%
%TO.C,K02*%
X106460000Y-63080000D03*
D11*
X109000000Y-58000000D03*
D10*
X112810000Y-60540000D03*
D12*
X102710000Y-63080000D03*
X116560000Y-60540000D03*
%TD*%
D10*
%TO.C,K10*%
X71460000Y-92080000D03*
D11*
X74000000Y-87000000D03*
D10*
X77810000Y-89540000D03*
D12*
X67710000Y-92080000D03*
X81560000Y-89540000D03*
%TD*%
D13*
%TO.C,U2*%
X181813200Y-52578000D03*
X181813200Y-55118000D03*
D14*
X181813200Y-57658000D03*
D13*
X181813200Y-60198000D03*
X181813200Y-62738000D03*
X181813200Y-65278000D03*
X181813200Y-67818000D03*
D14*
X181813200Y-70358000D03*
D13*
X181813200Y-72898000D03*
X181813200Y-75438000D03*
X181813200Y-77978000D03*
X181813200Y-80518000D03*
D14*
X181813200Y-83058000D03*
D13*
X181813200Y-85598000D03*
X181813200Y-88138000D03*
X181813200Y-90678000D03*
X181813200Y-93218000D03*
D14*
X181813200Y-95758000D03*
D13*
X181813200Y-98298000D03*
X181813200Y-100838000D03*
X199593200Y-100838000D03*
X199593200Y-98298000D03*
D14*
X199593200Y-95758000D03*
D13*
X199593200Y-93218000D03*
X199593200Y-90678000D03*
X199593200Y-88138000D03*
X199593200Y-85598000D03*
D14*
X199593200Y-83058000D03*
D13*
X199593200Y-80518000D03*
X199593200Y-77978000D03*
X199593200Y-75438000D03*
X199593200Y-72898000D03*
D14*
X199593200Y-70358000D03*
D13*
X199593200Y-67818000D03*
X199593200Y-65278000D03*
X199593200Y-62738000D03*
X199593200Y-60198000D03*
D14*
X199593200Y-57658000D03*
D13*
X199593200Y-55118000D03*
X199593200Y-52578000D03*
%TD*%
D10*
%TO.C,K04*%
X142460000Y-63080000D03*
D11*
X145000000Y-58000000D03*
D10*
X148810000Y-60540000D03*
D12*
X138710000Y-63080000D03*
X152560000Y-60540000D03*
%TD*%
D10*
%TO.C,K12*%
X106460000Y-80080000D03*
D11*
X109000000Y-75000000D03*
D10*
X112810000Y-77540000D03*
D12*
X102710000Y-80080000D03*
X116560000Y-77540000D03*
%TD*%
D10*
%TO.C,K30*%
X137916222Y-118369200D03*
D11*
X140003805Y-113087156D03*
D10*
X144020683Y-115285427D03*
D15*
X134180492Y-118696034D03*
X147756413Y-114958593D03*
%TD*%
D12*
%TO.C,K01*%
X99060000Y-72540000D03*
X85210000Y-75080000D03*
D10*
X95310000Y-72540000D03*
D11*
X91500000Y-70000000D03*
D10*
X88960000Y-75080000D03*
%TD*%
%TO.C,K14*%
X142460000Y-80080000D03*
D11*
X145000000Y-75000000D03*
D10*
X148810000Y-77540000D03*
D12*
X138710000Y-80080000D03*
X152560000Y-77540000D03*
%TD*%
D10*
%TO.C,K23*%
X124460000Y-92080000D03*
D11*
X127000000Y-87000000D03*
D10*
X130810000Y-89540000D03*
D12*
X120710000Y-92080000D03*
X134560000Y-89540000D03*
%TD*%
D10*
%TO.C,K03*%
X124460000Y-58080000D03*
D11*
X127000000Y-53000000D03*
D10*
X130810000Y-55540000D03*
D12*
X120710000Y-58080000D03*
X134560000Y-55540000D03*
%TD*%
D10*
%TO.C,K22*%
X106460000Y-97080000D03*
D11*
X109000000Y-92000000D03*
D10*
X112810000Y-94540000D03*
D12*
X102710000Y-97080000D03*
X116560000Y-94540000D03*
%TD*%
D16*
%TO.C,J1*%
X191550000Y-106700000D03*
X192650000Y-111300000D03*
X196650000Y-111300000D03*
X199650000Y-111300000D03*
%TD*%
D10*
%TO.C,K15*%
X160460000Y-82080000D03*
D11*
X163000000Y-77000000D03*
D10*
X166810000Y-79540000D03*
D12*
X156710000Y-82080000D03*
X170560000Y-79540000D03*
%TD*%
D10*
%TO.C,K32*%
X178644770Y-124107975D03*
D11*
X183093692Y-120577382D03*
D10*
X185473274Y-124489579D03*
D17*
X175246115Y-122523156D03*
X188871929Y-126074398D03*
%TD*%
D12*
%TO.C,K11*%
X99060000Y-89540000D03*
X85210000Y-92080000D03*
D10*
X95310000Y-89540000D03*
D11*
X91500000Y-87000000D03*
D10*
X88960000Y-92080000D03*
%TD*%
%TO.C,K05*%
X160460000Y-65080000D03*
D11*
X163000000Y-60000000D03*
D10*
X166810000Y-62540000D03*
D12*
X156710000Y-65080000D03*
X170560000Y-62540000D03*
%TD*%
D10*
%TO.C,K20*%
X71460000Y-109080000D03*
D11*
X74000000Y-104000000D03*
D10*
X77810000Y-106540000D03*
D12*
X67710000Y-109080000D03*
X81560000Y-106540000D03*
%TD*%
D10*
%TO.C,K13*%
X124460000Y-75080000D03*
D11*
X127000000Y-70000000D03*
D10*
X130810000Y-72540000D03*
D12*
X120710000Y-75080000D03*
X134560000Y-72540000D03*
%TD*%
D10*
%TO.C,K00*%
X71460000Y-75080000D03*
D11*
X74000000Y-70000000D03*
D10*
X77810000Y-72540000D03*
D12*
X67710000Y-75080000D03*
X81560000Y-72540000D03*
%TD*%
D10*
%TO.C,K31*%
X158631648Y-118388109D03*
D11*
X162015192Y-113826352D03*
D10*
X165326243Y-116989363D03*
D18*
X154938619Y-117736928D03*
X169019272Y-117640544D03*
%TD*%
D19*
%TO.C,R2*%
X193980400Y-64109600D03*
X190880400Y-64109600D03*
%TD*%
D20*
%TO.C,R1*%
X190880400Y-60401200D03*
X193980400Y-60401200D03*
%TD*%
M02*
