%TF.GenerationSoftware,KiCad,Pcbnew,8.0.3*%
%TF.CreationDate,2024-06-14T18:36:55-03:00*%
%TF.ProjectId,keyboard_pcb,6b657962-6f61-4726-945f-7063622e6b69,rev1.0*%
%TF.SameCoordinates,Original*%
%TF.FileFunction,Soldermask,Top*%
%TF.FilePolarity,Negative*%
%FSLAX46Y46*%
G04 Gerber Fmt 4.6, Leading zero omitted, Abs format (unit mm)*
G04 Created by KiCad (PCBNEW 8.0.3) date 2024-06-14 18:36:55*
%MOMM*%
%LPD*%
G01*
G04 APERTURE LIST*
%ADD10C,3.000000*%
%ADD11C,3.987800*%
%ADD12O,1.700000X1.700000*%
%ADD13R,3.500000X1.700000*%
%ADD14R,1.700000X1.700000*%
%ADD15O,2.000000X1.600000*%
G04 APERTURE END LIST*
D10*
%TO.C,K25*%
X130710000Y-90580000D03*
D11*
X133250000Y-85500000D03*
D10*
X137060000Y-88040000D03*
%TD*%
%TO.C,K00*%
X162724759Y-179255240D03*
D11*
X165264759Y-174175240D03*
D10*
X169074759Y-176715240D03*
%TD*%
D12*
%TO.C,U2*%
X40671559Y-156753240D03*
D13*
X39771559Y-156753240D03*
D12*
X40671559Y-159293240D03*
D13*
X39771559Y-159293240D03*
D14*
X40671559Y-161833240D03*
D13*
X39771559Y-161833240D03*
D12*
X40671559Y-164373240D03*
D13*
X39771559Y-164373240D03*
D12*
X40671559Y-166913240D03*
D13*
X39771559Y-166913240D03*
D12*
X40671559Y-169453240D03*
D13*
X39771559Y-169453240D03*
D12*
X40671559Y-171993240D03*
D13*
X39771559Y-171993240D03*
D14*
X40671559Y-174533240D03*
D13*
X39771559Y-174533240D03*
D12*
X40671559Y-177073240D03*
D13*
X39771559Y-177073240D03*
D12*
X40671559Y-179613240D03*
D13*
X39771559Y-179613240D03*
D12*
X40671559Y-182153240D03*
D13*
X39771559Y-182153240D03*
D12*
X40671559Y-184693240D03*
D13*
X39771559Y-184693240D03*
D14*
X40671559Y-187233240D03*
D13*
X39771559Y-187233240D03*
D12*
X40671559Y-189773240D03*
D13*
X39771559Y-189773240D03*
D12*
X40671559Y-192313240D03*
D13*
X39771559Y-192313240D03*
D12*
X40671559Y-194853240D03*
D13*
X39771559Y-194853240D03*
D12*
X40671559Y-197393240D03*
D13*
X39771559Y-197393240D03*
D14*
X40671559Y-199933240D03*
D13*
X39771559Y-199933240D03*
D12*
X40671559Y-202473240D03*
D13*
X39771559Y-202473240D03*
D12*
X40671559Y-205013240D03*
D13*
X39771559Y-205013240D03*
D12*
X58451559Y-205013240D03*
D13*
X59351559Y-205013240D03*
D12*
X58451559Y-202473240D03*
D13*
X59351559Y-202473240D03*
D14*
X58451559Y-199933240D03*
D13*
X59351559Y-199933240D03*
D12*
X58451559Y-197393240D03*
D13*
X59351559Y-197393240D03*
D12*
X58451559Y-194853240D03*
D13*
X59351559Y-194853240D03*
D12*
X58451559Y-192313240D03*
D13*
X59351559Y-192313240D03*
D12*
X58451559Y-189773240D03*
D13*
X59351559Y-189773240D03*
D14*
X58451559Y-187233240D03*
D13*
X59351559Y-187233240D03*
D12*
X58451559Y-184693240D03*
D13*
X59351559Y-184693240D03*
D12*
X58451559Y-182153240D03*
D13*
X59351559Y-182153240D03*
D12*
X58451559Y-179613240D03*
D13*
X59351559Y-179613240D03*
D12*
X58451559Y-177073240D03*
D13*
X59351559Y-177073240D03*
D14*
X58451559Y-174533240D03*
D13*
X59351559Y-174533240D03*
D12*
X58451559Y-171993240D03*
D13*
X59351559Y-171993240D03*
D12*
X58451559Y-169453240D03*
D13*
X59351559Y-169453240D03*
D12*
X58451559Y-166913240D03*
D13*
X59351559Y-166913240D03*
D12*
X58451559Y-164373240D03*
D13*
X59351559Y-164373240D03*
D14*
X58451559Y-161833240D03*
D13*
X59351559Y-161833240D03*
D12*
X58451559Y-159293240D03*
D13*
X59351559Y-159293240D03*
D12*
X58451559Y-156753240D03*
D13*
X59351559Y-156753240D03*
%TD*%
D10*
%TO.C,K24*%
X112710000Y-88580000D03*
D11*
X115250000Y-83500000D03*
D10*
X119060000Y-86040000D03*
%TD*%
%TO.C,K21*%
X59210000Y-100580000D03*
D11*
X61750000Y-95500000D03*
D10*
X65560000Y-98040000D03*
%TD*%
%TO.C,K10*%
X162724759Y-196255240D03*
D11*
X165264759Y-191175240D03*
D10*
X169074759Y-193715240D03*
%TD*%
%TO.C,K02*%
X76710000Y-54580000D03*
D11*
X79250000Y-49500000D03*
D10*
X83060000Y-52040000D03*
%TD*%
%TO.C,K22*%
X126724759Y-201255240D03*
D11*
X129264759Y-196175240D03*
D10*
X133074759Y-198715240D03*
%TD*%
%TO.C,K10*%
X47290000Y-73420000D03*
D11*
X44750000Y-78500000D03*
D10*
X40940000Y-75960000D03*
%TD*%
D12*
%TO.C,U2*%
X152063200Y-44078000D03*
D13*
X151163200Y-44078000D03*
D12*
X152063200Y-46618000D03*
D13*
X151163200Y-46618000D03*
D14*
X152063200Y-49158000D03*
D13*
X151163200Y-49158000D03*
D12*
X152063200Y-51698000D03*
D13*
X151163200Y-51698000D03*
D12*
X152063200Y-54238000D03*
D13*
X151163200Y-54238000D03*
D12*
X152063200Y-56778000D03*
D13*
X151163200Y-56778000D03*
D12*
X152063200Y-59318000D03*
D13*
X151163200Y-59318000D03*
D14*
X152063200Y-61858000D03*
D13*
X151163200Y-61858000D03*
D12*
X152063200Y-64398000D03*
D13*
X151163200Y-64398000D03*
D12*
X152063200Y-66938000D03*
D13*
X151163200Y-66938000D03*
D12*
X152063200Y-69478000D03*
D13*
X151163200Y-69478000D03*
D12*
X152063200Y-72018000D03*
D13*
X151163200Y-72018000D03*
D14*
X152063200Y-74558000D03*
D13*
X151163200Y-74558000D03*
D12*
X152063200Y-77098000D03*
D13*
X151163200Y-77098000D03*
D12*
X152063200Y-79638000D03*
D13*
X151163200Y-79638000D03*
D12*
X152063200Y-82178000D03*
D13*
X151163200Y-82178000D03*
D12*
X152063200Y-84718000D03*
D13*
X151163200Y-84718000D03*
D14*
X152063200Y-87258000D03*
D13*
X151163200Y-87258000D03*
D12*
X152063200Y-89798000D03*
D13*
X151163200Y-89798000D03*
D12*
X152063200Y-92338000D03*
D13*
X151163200Y-92338000D03*
D12*
X169843200Y-92338000D03*
D13*
X170743200Y-92338000D03*
D12*
X169843200Y-89798000D03*
D13*
X170743200Y-89798000D03*
D14*
X169843200Y-87258000D03*
D13*
X170743200Y-87258000D03*
D12*
X169843200Y-84718000D03*
D13*
X170743200Y-84718000D03*
D12*
X169843200Y-82178000D03*
D13*
X170743200Y-82178000D03*
D12*
X169843200Y-79638000D03*
D13*
X170743200Y-79638000D03*
D12*
X169843200Y-77098000D03*
D13*
X170743200Y-77098000D03*
D14*
X169843200Y-74558000D03*
D13*
X170743200Y-74558000D03*
D12*
X169843200Y-72018000D03*
D13*
X170743200Y-72018000D03*
D12*
X169843200Y-69478000D03*
D13*
X170743200Y-69478000D03*
D12*
X169843200Y-66938000D03*
D13*
X170743200Y-66938000D03*
D12*
X169843200Y-64398000D03*
D13*
X170743200Y-64398000D03*
D14*
X169843200Y-61858000D03*
D13*
X170743200Y-61858000D03*
D12*
X169843200Y-59318000D03*
D13*
X170743200Y-59318000D03*
D12*
X169843200Y-56778000D03*
D13*
X170743200Y-56778000D03*
D12*
X169843200Y-54238000D03*
D13*
X170743200Y-54238000D03*
D12*
X169843200Y-51698000D03*
D13*
X170743200Y-51698000D03*
D14*
X169843200Y-49158000D03*
D13*
X170743200Y-49158000D03*
D12*
X169843200Y-46618000D03*
D13*
X170743200Y-46618000D03*
D12*
X169843200Y-44078000D03*
D13*
X170743200Y-44078000D03*
%TD*%
D10*
%TO.C,K04*%
X112710000Y-54580000D03*
D11*
X115250000Y-49500000D03*
D10*
X119060000Y-52040000D03*
%TD*%
%TO.C,K12*%
X76710000Y-71580000D03*
D11*
X79250000Y-66500000D03*
D10*
X83060000Y-69040000D03*
%TD*%
%TO.C,K01*%
X149990000Y-169095000D03*
D11*
X147450000Y-174175000D03*
D10*
X143640000Y-171635000D03*
%TD*%
%TO.C,K30*%
X108166222Y-109869200D03*
D11*
X110253805Y-104587156D03*
D10*
X114270683Y-106785427D03*
%TD*%
%TO.C,K03*%
X108724759Y-162255240D03*
D11*
X111264759Y-157175240D03*
D10*
X115074759Y-159715240D03*
%TD*%
%TO.C,K31*%
X74660672Y-223792778D03*
D11*
X76279951Y-218348888D03*
D10*
X80473135Y-220188700D03*
%TD*%
%TO.C,K01*%
X59210000Y-66580000D03*
D11*
X61750000Y-61500000D03*
D10*
X65560000Y-64040000D03*
%TD*%
%TO.C,K20*%
X162724759Y-213255240D03*
D11*
X165264759Y-208175240D03*
D10*
X169074759Y-210715240D03*
%TD*%
%TO.C,K23*%
X108724759Y-196255240D03*
D11*
X111264759Y-191175240D03*
D10*
X115074759Y-193715240D03*
%TD*%
%TO.C,K05*%
X72724759Y-169255240D03*
D11*
X75264759Y-164175240D03*
D10*
X79074759Y-166715240D03*
%TD*%
%TO.C,K14*%
X112710000Y-71580000D03*
D11*
X115250000Y-66500000D03*
D10*
X119060000Y-69040000D03*
%TD*%
%TO.C,K23*%
X94710000Y-83580000D03*
D11*
X97250000Y-78500000D03*
D10*
X101060000Y-81040000D03*
%TD*%
%TO.C,K03*%
X94710000Y-49580000D03*
D11*
X97250000Y-44500000D03*
D10*
X101060000Y-47040000D03*
%TD*%
%TO.C,K22*%
X76710000Y-88580000D03*
D11*
X79250000Y-83500000D03*
D10*
X83060000Y-86040000D03*
%TD*%
D15*
%TO.C,J1*%
X161800000Y-98200000D03*
X162900000Y-102800000D03*
X166900000Y-102800000D03*
X169900000Y-102800000D03*
%TD*%
D10*
%TO.C,K21*%
X150040000Y-202920000D03*
D11*
X147500000Y-208000000D03*
D10*
X143690000Y-205460000D03*
%TD*%
%TO.C,K11*%
X150040000Y-186095240D03*
D11*
X147500000Y-191175240D03*
D10*
X143690000Y-188635240D03*
%TD*%
%TO.C,K02*%
X126724759Y-167255240D03*
D11*
X129264759Y-162175240D03*
D10*
X133074759Y-164715240D03*
%TD*%
%TO.C,K24*%
X90724759Y-201255240D03*
D11*
X93264759Y-196175240D03*
D10*
X97074759Y-198715240D03*
%TD*%
%TO.C,K15*%
X130710000Y-73580000D03*
D11*
X133250000Y-68500000D03*
D10*
X137060000Y-71040000D03*
%TD*%
%TO.C,K04*%
X90724759Y-167255240D03*
D11*
X93264759Y-162175240D03*
D10*
X97074759Y-164715240D03*
%TD*%
%TO.C,K12*%
X126724759Y-184255240D03*
D11*
X129264759Y-179175240D03*
D10*
X133074759Y-181715240D03*
%TD*%
%TO.C,K32*%
X55203330Y-231275352D03*
D11*
X55358451Y-225597858D03*
D10*
X59884934Y-226289704D03*
%TD*%
%TO.C,K32*%
X148894770Y-115607975D03*
D11*
X153343692Y-112077382D03*
D10*
X155723274Y-115989579D03*
%TD*%
%TO.C,K11*%
X59210000Y-83580000D03*
D11*
X61750000Y-78500000D03*
D10*
X65560000Y-81040000D03*
%TD*%
%TO.C,K25*%
X72724759Y-203255240D03*
D11*
X75264759Y-198175240D03*
D10*
X79074759Y-200715240D03*
%TD*%
%TO.C,K13*%
X108724759Y-179255240D03*
D11*
X111264759Y-174175240D03*
D10*
X115074759Y-176715240D03*
%TD*%
%TO.C,K14*%
X90724759Y-184255240D03*
D11*
X93264759Y-179175240D03*
D10*
X97074759Y-181715240D03*
%TD*%
%TO.C,K30*%
X95295479Y-221927378D03*
D11*
X98268564Y-217088084D03*
D10*
X101842691Y-219950482D03*
%TD*%
%TO.C,K05*%
X130710000Y-56580000D03*
D11*
X133250000Y-51500000D03*
D10*
X137060000Y-54040000D03*
%TD*%
%TO.C,K15*%
X72724759Y-186255240D03*
D11*
X75264759Y-181175240D03*
D10*
X79074759Y-183715240D03*
%TD*%
%TO.C,K20*%
X47290000Y-90420000D03*
D11*
X44750000Y-95500000D03*
D10*
X40940000Y-92960000D03*
%TD*%
%TO.C,K13*%
X94710000Y-66580000D03*
D11*
X97250000Y-61500000D03*
D10*
X101060000Y-64040000D03*
%TD*%
D15*
%TO.C,J1*%
X48714759Y-215475240D03*
X47614759Y-210875240D03*
X43614759Y-210875240D03*
X40614759Y-210875240D03*
%TD*%
D10*
%TO.C,K00*%
X47290000Y-56420000D03*
D11*
X44750000Y-61500000D03*
D10*
X40940000Y-58960000D03*
%TD*%
%TO.C,K31*%
X128881648Y-109888109D03*
D11*
X132265192Y-105326352D03*
D10*
X135576243Y-108489363D03*
%TD*%
M02*
