%TF.GenerationSoftware,KiCad,Pcbnew,8.0.3*%
%TF.CreationDate,2024-06-12T13:30:28-03:00*%
%TF.ProjectId,keyboard_pcb,6b657962-6f61-4726-945f-7063622e6b69,rev1.0*%
%TF.SameCoordinates,Original*%
%TF.FileFunction,Legend,Top*%
%TF.FilePolarity,Positive*%
%FSLAX46Y46*%
G04 Gerber Fmt 4.6, Leading zero omitted, Abs format (unit mm)*
G04 Created by KiCad (PCBNEW 8.0.3) date 2024-06-12 13:30:28*
%MOMM*%
%LPD*%
G01*
G04 APERTURE LIST*
%ADD10C,0.150000*%
%ADD11C,0.120000*%
G04 APERTURE END LIST*
D10*
X153488571Y-127981890D02*
X153412381Y-127943795D01*
X153412381Y-127943795D02*
X153298095Y-127943795D01*
X153298095Y-127943795D02*
X153183809Y-127981890D01*
X153183809Y-127981890D02*
X153107619Y-128058080D01*
X153107619Y-128058080D02*
X153069524Y-128134271D01*
X153069524Y-128134271D02*
X153031428Y-128286652D01*
X153031428Y-128286652D02*
X153031428Y-128400938D01*
X153031428Y-128400938D02*
X153069524Y-128553319D01*
X153069524Y-128553319D02*
X153107619Y-128629509D01*
X153107619Y-128629509D02*
X153183809Y-128705700D01*
X153183809Y-128705700D02*
X153298095Y-128743795D01*
X153298095Y-128743795D02*
X153374286Y-128743795D01*
X153374286Y-128743795D02*
X153488571Y-128705700D01*
X153488571Y-128705700D02*
X153526667Y-128667604D01*
X153526667Y-128667604D02*
X153526667Y-128400938D01*
X153526667Y-128400938D02*
X153374286Y-128400938D01*
X153869524Y-128743795D02*
X153869524Y-127943795D01*
X153869524Y-127943795D02*
X154174286Y-127943795D01*
X154174286Y-127943795D02*
X154250476Y-127981890D01*
X154250476Y-127981890D02*
X154288571Y-128019985D01*
X154288571Y-128019985D02*
X154326667Y-128096176D01*
X154326667Y-128096176D02*
X154326667Y-128210461D01*
X154326667Y-128210461D02*
X154288571Y-128286652D01*
X154288571Y-128286652D02*
X154250476Y-128324747D01*
X154250476Y-128324747D02*
X154174286Y-128362842D01*
X154174286Y-128362842D02*
X153869524Y-128362842D01*
X154821905Y-127943795D02*
X154898095Y-127943795D01*
X154898095Y-127943795D02*
X154974286Y-127981890D01*
X154974286Y-127981890D02*
X155012381Y-128019985D01*
X155012381Y-128019985D02*
X155050476Y-128096176D01*
X155050476Y-128096176D02*
X155088571Y-128248557D01*
X155088571Y-128248557D02*
X155088571Y-128439033D01*
X155088571Y-128439033D02*
X155050476Y-128591414D01*
X155050476Y-128591414D02*
X155012381Y-128667604D01*
X155012381Y-128667604D02*
X154974286Y-128705700D01*
X154974286Y-128705700D02*
X154898095Y-128743795D01*
X154898095Y-128743795D02*
X154821905Y-128743795D01*
X154821905Y-128743795D02*
X154745714Y-128705700D01*
X154745714Y-128705700D02*
X154707619Y-128667604D01*
X154707619Y-128667604D02*
X154669524Y-128591414D01*
X154669524Y-128591414D02*
X154631428Y-128439033D01*
X154631428Y-128439033D02*
X154631428Y-128248557D01*
X154631428Y-128248557D02*
X154669524Y-128096176D01*
X154669524Y-128096176D02*
X154707619Y-128019985D01*
X154707619Y-128019985D02*
X154745714Y-127981890D01*
X154745714Y-127981890D02*
X154821905Y-127943795D01*
X153928571Y-29641890D02*
X153852381Y-29603795D01*
X153852381Y-29603795D02*
X153738095Y-29603795D01*
X153738095Y-29603795D02*
X153623809Y-29641890D01*
X153623809Y-29641890D02*
X153547619Y-29718080D01*
X153547619Y-29718080D02*
X153509524Y-29794271D01*
X153509524Y-29794271D02*
X153471428Y-29946652D01*
X153471428Y-29946652D02*
X153471428Y-30060938D01*
X153471428Y-30060938D02*
X153509524Y-30213319D01*
X153509524Y-30213319D02*
X153547619Y-30289509D01*
X153547619Y-30289509D02*
X153623809Y-30365700D01*
X153623809Y-30365700D02*
X153738095Y-30403795D01*
X153738095Y-30403795D02*
X153814286Y-30403795D01*
X153814286Y-30403795D02*
X153928571Y-30365700D01*
X153928571Y-30365700D02*
X153966667Y-30327604D01*
X153966667Y-30327604D02*
X153966667Y-30060938D01*
X153966667Y-30060938D02*
X153814286Y-30060938D01*
X154309524Y-30403795D02*
X154309524Y-29603795D01*
X154309524Y-29603795D02*
X154614286Y-29603795D01*
X154614286Y-29603795D02*
X154690476Y-29641890D01*
X154690476Y-29641890D02*
X154728571Y-29679985D01*
X154728571Y-29679985D02*
X154766667Y-29756176D01*
X154766667Y-29756176D02*
X154766667Y-29870461D01*
X154766667Y-29870461D02*
X154728571Y-29946652D01*
X154728571Y-29946652D02*
X154690476Y-29984747D01*
X154690476Y-29984747D02*
X154614286Y-30022842D01*
X154614286Y-30022842D02*
X154309524Y-30022842D01*
X155261905Y-29603795D02*
X155338095Y-29603795D01*
X155338095Y-29603795D02*
X155414286Y-29641890D01*
X155414286Y-29641890D02*
X155452381Y-29679985D01*
X155452381Y-29679985D02*
X155490476Y-29756176D01*
X155490476Y-29756176D02*
X155528571Y-29908557D01*
X155528571Y-29908557D02*
X155528571Y-30099033D01*
X155528571Y-30099033D02*
X155490476Y-30251414D01*
X155490476Y-30251414D02*
X155452381Y-30327604D01*
X155452381Y-30327604D02*
X155414286Y-30365700D01*
X155414286Y-30365700D02*
X155338095Y-30403795D01*
X155338095Y-30403795D02*
X155261905Y-30403795D01*
X155261905Y-30403795D02*
X155185714Y-30365700D01*
X155185714Y-30365700D02*
X155147619Y-30327604D01*
X155147619Y-30327604D02*
X155109524Y-30251414D01*
X155109524Y-30251414D02*
X155071428Y-30099033D01*
X155071428Y-30099033D02*
X155071428Y-29908557D01*
X155071428Y-29908557D02*
X155109524Y-29756176D01*
X155109524Y-29756176D02*
X155147619Y-29679985D01*
X155147619Y-29679985D02*
X155185714Y-29641890D01*
X155185714Y-29641890D02*
X155261905Y-29603795D01*
%TO.C,J1*%
X160310000Y-187890000D02*
X160310000Y-181790000D01*
X172410000Y-181790000D02*
X160310000Y-181790000D01*
X172410000Y-182040000D02*
X174410000Y-182040000D01*
X172410000Y-187640000D02*
X174410000Y-187640000D01*
X172410000Y-187890000D02*
X160310000Y-187890000D01*
X172410000Y-187890000D02*
X172410000Y-181790000D01*
X174410000Y-187640000D02*
X174410000Y-182040000D01*
D11*
%TO.C,U2*%
X149763200Y-127048000D02*
X149763200Y-127348000D01*
X149763200Y-127048000D02*
X170763200Y-127048000D01*
X149763200Y-129448000D02*
X149763200Y-129848000D01*
X149763200Y-129715000D02*
X152770200Y-129715000D01*
X149763200Y-132048000D02*
X149763200Y-132448000D01*
X149763200Y-134548000D02*
X149763200Y-134948000D01*
X149763200Y-137148000D02*
X149763200Y-137548000D01*
X149763200Y-139648000D02*
X149763200Y-140048000D01*
X149763200Y-142148000D02*
X149763200Y-142548000D01*
X149763200Y-144748000D02*
X149763200Y-145148000D01*
X149763200Y-147248000D02*
X149763200Y-147648000D01*
X149763200Y-149848000D02*
X149763200Y-150248000D01*
X149763200Y-152348000D02*
X149763200Y-152748000D01*
X149763200Y-154848000D02*
X149763200Y-155248000D01*
X149763200Y-157448000D02*
X149763200Y-157848000D01*
X149763200Y-159948000D02*
X149763200Y-160348000D01*
X149763200Y-162548000D02*
X149763200Y-162948000D01*
X149763200Y-165048000D02*
X149763200Y-165448000D01*
X149763200Y-167648000D02*
X149763200Y-168048000D01*
X149763200Y-170148000D02*
X149763200Y-170548000D01*
X149763200Y-172648000D02*
X149763200Y-173048000D01*
X149763200Y-175248000D02*
X149763200Y-175648000D01*
X152770200Y-129715000D02*
X152770200Y-127048000D01*
X156563200Y-178048000D02*
X149763200Y-178048000D01*
X170763200Y-127048000D02*
X170763200Y-127348000D01*
X170763200Y-129448000D02*
X170763200Y-129848000D01*
X170763200Y-132048000D02*
X170763200Y-132448000D01*
X170763200Y-134548000D02*
X170763200Y-134948000D01*
X170763200Y-137148000D02*
X170763200Y-137548000D01*
X170763200Y-139648000D02*
X170763200Y-140048000D01*
X170763200Y-142148000D02*
X170763200Y-142548000D01*
X170763200Y-144748000D02*
X170763200Y-145148000D01*
X170763200Y-147248000D02*
X170763200Y-147648000D01*
X170763200Y-149848000D02*
X170763200Y-150248000D01*
X170763200Y-152348000D02*
X170763200Y-152748000D01*
X170763200Y-154848000D02*
X170763200Y-155248000D01*
X170763200Y-157448000D02*
X170763200Y-157848000D01*
X170763200Y-159948000D02*
X170763200Y-160348000D01*
X170763200Y-162548000D02*
X170763200Y-162948000D01*
X170763200Y-165048000D02*
X170763200Y-165448000D01*
X170763200Y-167648000D02*
X170763200Y-168048000D01*
X170763200Y-170148000D02*
X170763200Y-170548000D01*
X170763200Y-172648000D02*
X170763200Y-173048000D01*
X170763200Y-175248000D02*
X170763200Y-175648000D01*
X170763200Y-178048000D02*
X163963200Y-178048000D01*
X150203200Y-28708000D02*
X150203200Y-29008000D01*
X150203200Y-28708000D02*
X171203200Y-28708000D01*
X150203200Y-31108000D02*
X150203200Y-31508000D01*
X150203200Y-31375000D02*
X153210200Y-31375000D01*
X150203200Y-33708000D02*
X150203200Y-34108000D01*
X150203200Y-36208000D02*
X150203200Y-36608000D01*
X150203200Y-38808000D02*
X150203200Y-39208000D01*
X150203200Y-41308000D02*
X150203200Y-41708000D01*
X150203200Y-43808000D02*
X150203200Y-44208000D01*
X150203200Y-46408000D02*
X150203200Y-46808000D01*
X150203200Y-48908000D02*
X150203200Y-49308000D01*
X150203200Y-51508000D02*
X150203200Y-51908000D01*
X150203200Y-54008000D02*
X150203200Y-54408000D01*
X150203200Y-56508000D02*
X150203200Y-56908000D01*
X150203200Y-59108000D02*
X150203200Y-59508000D01*
X150203200Y-61608000D02*
X150203200Y-62008000D01*
X150203200Y-64208000D02*
X150203200Y-64608000D01*
X150203200Y-66708000D02*
X150203200Y-67108000D01*
X150203200Y-69308000D02*
X150203200Y-69708000D01*
X150203200Y-71808000D02*
X150203200Y-72208000D01*
X150203200Y-74308000D02*
X150203200Y-74708000D01*
X150203200Y-76908000D02*
X150203200Y-77308000D01*
X153210200Y-31375000D02*
X153210200Y-28708000D01*
X157003200Y-79708000D02*
X150203200Y-79708000D01*
X171203200Y-28708000D02*
X171203200Y-29008000D01*
X171203200Y-31108000D02*
X171203200Y-31508000D01*
X171203200Y-33708000D02*
X171203200Y-34108000D01*
X171203200Y-36208000D02*
X171203200Y-36608000D01*
X171203200Y-38808000D02*
X171203200Y-39208000D01*
X171203200Y-41308000D02*
X171203200Y-41708000D01*
X171203200Y-43808000D02*
X171203200Y-44208000D01*
X171203200Y-46408000D02*
X171203200Y-46808000D01*
X171203200Y-48908000D02*
X171203200Y-49308000D01*
X171203200Y-51508000D02*
X171203200Y-51908000D01*
X171203200Y-54008000D02*
X171203200Y-54408000D01*
X171203200Y-56508000D02*
X171203200Y-56908000D01*
X171203200Y-59108000D02*
X171203200Y-59508000D01*
X171203200Y-61608000D02*
X171203200Y-62008000D01*
X171203200Y-64208000D02*
X171203200Y-64608000D01*
X171203200Y-66708000D02*
X171203200Y-67108000D01*
X171203200Y-69308000D02*
X171203200Y-69708000D01*
X171203200Y-71808000D02*
X171203200Y-72208000D01*
X171203200Y-74308000D02*
X171203200Y-74708000D01*
X171203200Y-76908000D02*
X171203200Y-77308000D01*
X171203200Y-79708000D02*
X164403200Y-79708000D01*
D10*
%TO.C,J1*%
X160750000Y-89550000D02*
X160750000Y-83450000D01*
X172850000Y-83450000D02*
X160750000Y-83450000D01*
X172850000Y-83700000D02*
X174850000Y-83700000D01*
X172850000Y-89300000D02*
X174850000Y-89300000D01*
X172850000Y-89550000D02*
X160750000Y-89550000D01*
X172850000Y-89550000D02*
X172850000Y-83450000D01*
X174850000Y-89300000D02*
X174850000Y-83700000D01*
%TD*%
M02*
