%TF.GenerationSoftware,KiCad,Pcbnew,8.0.3*%
%TF.CreationDate,2024-06-11T01:45:41-03:00*%
%TF.ProjectId,keyboard_pcb,6b657962-6f61-4726-945f-7063622e6b69,rev1.0*%
%TF.SameCoordinates,Original*%
%TF.FileFunction,Profile,NP*%
%FSLAX46Y46*%
G04 Gerber Fmt 4.6, Leading zero omitted, Abs format (unit mm)*
G04 Created by KiCad (PCBNEW 8.0.3) date 2024-06-11 01:45:41*
%MOMM*%
%LPD*%
G01*
G04 APERTURE LIST*
%TA.AperFunction,Profile*%
%ADD10C,0.100000*%
%TD*%
G04 APERTURE END LIST*
D10*
X201000000Y-50400000D02*
G75*
G02*
X202800000Y-52200000I0J-1800000D01*
G01*
X98000000Y-60400000D02*
X66000000Y-60400000D01*
X100000000Y-50400000D02*
G75*
G02*
X102000000Y-48400000I2000000J0D01*
G01*
X66000000Y-113600000D02*
X106500000Y-113600000D01*
X189949999Y-132449999D02*
X202434044Y-115487896D01*
X134500000Y-123175000D02*
G75*
G02*
X127749986Y-121125018I-764700J9620000D01*
G01*
X118000000Y-45400000D02*
G75*
G02*
X120000000Y-43400000I2000000J0D01*
G01*
X201000000Y-50400000D02*
X157750002Y-50399998D01*
X118000000Y-45400000D02*
X118000000Y-46400000D01*
X138000000Y-46400000D02*
X138000000Y-45400000D01*
X202800000Y-114400000D02*
G75*
G02*
X202434044Y-115487896I-1800000J0D01*
G01*
X100000000Y-50400000D02*
X100000000Y-58400000D01*
X136000000Y-43400000D02*
G75*
G02*
X138000000Y-45400000I0J-2000000D01*
G01*
X118000000Y-46400000D02*
G75*
G02*
X116000000Y-48400000I-2000000J0D01*
G01*
X66000000Y-113600000D02*
G75*
G02*
X64000000Y-111600000I0J2000000D01*
G01*
X202800000Y-114400000D02*
X202800000Y-113200000D01*
X141800000Y-122600001D02*
X134500000Y-123175000D01*
X180129399Y-129800000D02*
X187513868Y-133121447D01*
X140000000Y-48400000D02*
G75*
G02*
X138000000Y-46400000I0J2000000D01*
G01*
X157750002Y-50399998D02*
G75*
G02*
X156000023Y-49399986I-2J2031198D01*
G01*
X64000000Y-62400000D02*
X64000000Y-111600000D01*
X136000000Y-43400000D02*
X120000000Y-43400000D01*
X64000000Y-62400000D02*
G75*
G02*
X66000000Y-60400000I2000000J0D01*
G01*
X106500000Y-113600001D02*
G75*
G02*
X127750001Y-121124999I-272750J-34536889D01*
G01*
X116000000Y-48400000D02*
X102000000Y-48400000D01*
X154300000Y-48400000D02*
G75*
G02*
X156000000Y-49400000I0J-1945000D01*
G01*
X202800000Y-113200000D02*
X202800000Y-52200000D01*
X100000000Y-58400000D02*
G75*
G02*
X98000000Y-60400000I-2000000J0D01*
G01*
X189949999Y-132449999D02*
G75*
G02*
X187513868Y-133121447I-1599999J1049999D01*
G01*
X154300000Y-48400000D02*
X140000000Y-48400000D01*
X141800000Y-122600001D02*
G75*
G02*
X180129399Y-129800000I6323930J-71958199D01*
G01*
M02*
